<?xml version="1.0" encoding="utf-8"?>
<!-- Generator: Adobe Illustrator 26.0.1, SVG Export Plug-In . SVG Version: 6.00 Build 0)  -->
<svg version="1.1" id="Capa_3" xmlns="http://www.w3.org/2000/svg" xmlns:xlink="http://www.w3.org/1999/xlink" x="0px" y="0px"
	 viewBox="0 0 4058.6 3626.6" style="enable-background:new 0 0 4058.6 3626.6;" xml:space="preserve">
<style type="text/css">
	.st0{fill:url(#SVGID_1_);}
	.st1{fill:#FFFFFF;}
</style>
<radialGradient id="SVGID_1_" cx="2029.3229" cy="1813.3229" r="1813.3229" gradientTransform="matrix(1.1191 0 0 1 -241.7296 0)" gradientUnits="userSpaceOnUse">
	<stop  offset="0" style="stop-color:#009FE3"/>
	<stop  offset="8.169742e-02" style="stop-color:#0098DD"/>
	<stop  offset="0.2335" style="stop-color:#0087CA"/>
	<stop  offset="0.4375" style="stop-color:#006AAC"/>
	<stop  offset="0.4832" style="stop-color:#0063A5"/>
	<stop  offset="0.5904" style="stop-color:#005592"/>
	<stop  offset="0.7706" style="stop-color:#004176"/>
	<stop  offset="0.9134" style="stop-color:#003566"/>
	<stop  offset="1" style="stop-color:#003160"/>
</radialGradient>
<rect x="0" y="0" class="st0" width="4058.6" height="3626.6"/>
<g>
	<g>
		<path class="st1" d="M1308.3,1124.5c-91.3,91.3-163,197.6-213.1,316c-40.7,96.3-65.7,197.3-74.5,301.3h44.2
			c30.4-338.6,239.2-626.6,531.5-769.1l-20.9-39.1C1476.6,981.9,1386.9,1045.9,1308.3,1124.5z"/>
		<path class="st1" d="M2959.7,1440.5c-50.1-118.4-121.8-224.7-213.1-316c-76.1-76.1-162.7-138.6-257.9-186.3l-21.8,38.6
			c312.1,156,527,478.7,527,850.7c0,145.7-33,283.8-91.8,407.3h48.8c3-6.7,6-13.5,8.9-20.3c51.9-122.6,78.1-252.8,78.1-387
			C3037.9,1693.3,3011.6,1563.1,2959.7,1440.5z"/>
	</g>
	<g>
		<path class="st1" d="M1612.9,1741.7l10.3-84.3l-30.4-27.1c0,0-9-10.5,55.6-52.9c0,0,396-232.8,815.1-47.7c0,0,34.2,26.7-132.1-3.4
			c0,0-393.8-22.1-602.7,106.9l-28.4,143.5C1700.2,1776.7,1679.9,1742.6,1612.9,1741.7z"/>
	</g>
	<path class="st1" d="M2301.2,746.7c0,0-33-19.1-253.3-152l47,58.3c0,0,29.7,37.8,1,35.1c0,0-155.2-27.1-338.4,58.5
		c0,0,73.5-51.1,164.9-107.1c0,0,87.6-63,107.5-120.5L2301.2,746.7z"/>
	<path class="st1" d="M2432.1,1398c4,2.3,8.6-1.7,6.9-5.9c-67.9-165.6-409.7-177-409.7-177c-213.6,0-352.2,88.7-391.5,123.2
		c-7.8,6.8-12.6,16.3-13.5,26.6l-5,53.1c-0.6,5.9,6.1,9.6,10.8,6.1C1696.6,1374.6,2023.8,1160.6,2432.1,1398z"/>
	<path class="st1" d="M1762.4,1224.9c0,0,51-29.5,149.3-43.8V904.2c-43.6,7.9-87,21.4-128.1,42.7L1762.4,1224.9z"/>
	<path class="st1" d="M1954.3,898.2v278c47.8-4,104.2-4,169,3.5V902.4C2071.9,895.4,2013.7,892.2,1954.3,898.2z"/>
	<path class="st1" d="M2327.7,1223.7l-22.8-276.8c0,0-56.5-22.3-139-37.7v276.4C2215.5,1193.5,2269.4,1205.7,2327.7,1223.7z"/>
	<path class="st1" d="M2372.4,941.7c-24.4-18.1-175.5-83.6-346.6-82.9c0,0-214.5,5.1-271.7,68.9l-28.1,309.8c0,0-0.5,6.5-1,10.5
		c-24.9,13.4-48.9,30.3-48.9,30.3l22.8-311.8c0,0-127.2-31.9-17.1-109.4c0,0,316.9-182.2,639.7-23c0,0,171.6,70.9,75,111.8
		C2396.5,945.8,2382.4,949.1,2372.4,941.7z"/>
	<path class="st1" d="M1173.3,1808v601.1h-154.7V1808H1173.3z"/>
	<path class="st1" d="M1286.3,1808h277c62.8,0,112.8,17.6,149.8,52.9c37,35.3,55.6,77,55.6,125.2c0,49.9-18.3,92.7-54.9,128.2
		c-36.6,35.6-86.5,53.3-149.6,53.3H1441v241.4h-154.7V1808z M1441,1918.2v139.4h72c64.3,0,96.5-23.2,96.5-69.7
		c0-26.1-8.6-44.2-25.8-54.4c-17.2-10.2-46.5-15.3-88-15.3H1441z"/>
	<path class="st1" d="M2335.5,1808h154.7v341.2c0,87.8-26.8,154.3-80.5,199.6c-53.6,45.3-130.3,68-229.9,68
		c-98.4,0-174.8-22.9-229.2-68.8c-54.4-45.9-81.6-111.9-81.6-197.9v-342h155.2v345.5c0,41.9,14.1,75.4,42.5,100.7
		c28.3,25.2,65.4,37.9,111.4,37.9c47.7,0,85.9-12.9,114.5-38.7c28.6-25.8,42.9-62.5,42.9-110.1V1808z"/>
	<path class="st1" d="M3040.1,2289.6v119.4h-427.6V1808h154.7v481.6H3040.1z"/>
	<g>
		<path class="st1" d="M1552.3,3016.1h12.9l-26.8,61.7h-3.8l-17.9-42.2l-17.7,42.2h-3.9l-27-61.7h12.9l15.9,36.8l15.5-36.8h8.9
			l15.3,36.8L1552.3,3016.1z"/>
		<path class="st1" d="M1696.5,3016.1h12.9l-26.8,61.7h-3.8l-17.9-42.2l-17.7,42.2h-3.9l-27-61.7h12.9l15.9,36.8l15.5-36.8h8.9
			l15.3,36.8L1696.5,3016.1z"/>
		<path class="st1" d="M1840.8,3016.1h12.9l-26.8,61.7h-3.8l-17.9-42.2l-17.7,42.2h-3.9l-27-61.7h12.9l15.9,36.8l15.5-36.8h8.9
			l15.3,36.8L1840.8,3016.1z"/>
		<path class="st1" d="M1907.4,3062c2.2,0,4.2,0.8,5.7,2.3c1.6,1.5,2.4,3.4,2.4,5.7c0,2.2-0.8,4-2.3,5.5c-1.6,1.5-3.5,2.2-5.8,2.2
			c-2.2,0-4.1-0.7-5.7-2.2c-1.5-1.5-2.3-3.3-2.3-5.5c0-2.2,0.8-4.1,2.3-5.7C1903.3,3062.8,1905.2,3062,1907.4,3062z"/>
		<path class="st1" d="M1984.2,2990.6c2,0,3.7,0.7,5.1,2c1.4,1.4,2.1,3,2.1,5c0,1.9-0.7,3.6-2.1,5c-1.4,1.4-3.1,2.1-5.1,2.1
			c-1.8,0-3.5-0.7-4.9-2.1c-1.4-1.4-2.1-3.1-2.1-5c0-1.8,0.7-3.5,2.1-4.9C1980.8,2991.3,1982.4,2990.6,1984.2,2990.6z
			 M1978.3,3016.1h12v60.6h-12V3016.1z"/>
		<path class="st1" d="M2054.1,3107.6v-91.5h21c10.7,0,19.1,2.7,25.1,8c6,5.4,9,12.8,9,22.5c0,9.1-2.8,16.6-8.5,22.4
			c-5.6,5.8-12.8,8.8-21.5,8.8c-3.9,0-8.1-0.9-12.8-2.6v32.4H2054.1z M2074.8,3027.3h-8.5v37.3c3.7,1.9,7.5,2.8,11.6,2.8
			c5.6,0,10.2-2,13.8-5.9c3.6-3.9,5.4-8.9,5.4-15.1c0-4-0.8-7.4-2.5-10.5c-1.7-3-4-5.2-6.9-6.6
			C2084.7,3028,2080.4,3027.3,2074.8,3027.3z"/>
		<path class="st1" d="M2208.2,3076.7v-7.8c-2.5,2.8-5.5,5-8.7,6.5c-3.3,1.5-6.5,2.3-9.8,2.3c-3.8,0-7.3-1-10.6-2.9
			s-5.7-4.5-7.3-7.8c-1.6-3.3-2.5-8.7-2.5-16.3v-34.7h12v34.5c0,6.4,0.9,10.8,2.7,13.3c1.8,2.5,5,3.8,9.6,3.8
			c5.7,0,10.6-2.8,14.6-8.4v-43.3h12v60.6H2208.2z"/>
		<path class="st1" d="M2284.5,2984.7h12v92h-12V2984.7z"/>
		<path class="st1" d="M2367.2,3062c2.2,0,4.2,0.8,5.7,2.3c1.6,1.5,2.4,3.4,2.4,5.7c0,2.2-0.8,4-2.3,5.5c-1.6,1.5-3.5,2.2-5.8,2.2
			c-2.2,0-4.1-0.7-5.7-2.2c-1.5-1.5-2.3-3.3-2.3-5.5c0-2.2,0.8-4.1,2.3-5.7C2363.1,3062.8,2365,3062,2367.2,3062z"/>
		<path class="st1" d="M2476.5,3076.7v-7.8c-2.5,2.8-5.5,5-8.7,6.5c-3.3,1.5-6.5,2.3-9.8,2.3c-3.8,0-7.3-1-10.6-2.9
			c-3.2-1.9-5.7-4.5-7.3-7.8c-1.6-3.3-2.5-8.7-2.5-16.3v-34.7h12v34.5c0,6.4,0.9,10.8,2.7,13.3c1.8,2.5,5,3.8,9.6,3.8
			c5.7,0,10.6-2.8,14.6-8.4v-43.3h12v60.6H2476.5z"/>
		<path class="st1" d="M2549.6,3072.4v-12.9c3.4,2.4,6.8,4.3,10.4,5.8c3.5,1.5,6.5,2.2,8.9,2.2c2.5,0,4.7-0.6,6.5-1.8
			c1.8-1.2,2.7-2.7,2.7-4.4c0-1.8-0.6-3.2-1.7-4.4c-1.2-1.2-3.7-2.8-7.5-5c-7.7-4.3-12.8-8-15.2-11c-2.4-3.1-3.6-6.4-3.6-10
			c0-4.7,1.8-8.5,5.4-11.4c3.6-2.9,8.3-4.4,14-4.4c5.9,0,12,1.7,18.3,5v11.9c-7.1-4.3-12.9-6.5-17.5-6.5c-2.3,0-4.2,0.5-5.6,1.5
			c-1.4,1-2.1,2.3-2.1,3.9c0,1.4,0.6,2.8,1.9,4c1.3,1.3,3.6,2.8,6.8,4.6l4.3,2.4c10.1,5.7,15.2,12,15.2,19c0,5-1.9,9-5.8,12.2
			c-3.9,3.2-8.9,4.8-15,4.8c-3.6,0-6.8-0.4-9.6-1.2C2557.4,3075.9,2553.9,3074.4,2549.6,3072.4z"/>
	</g>
	<g>
		<path class="st1" d="M764.8,2540.5h24.5v170.8h-24.5V2540.5z"/>
		<path class="st1" d="M919.4,2627.2h57.3v72.4c-21,9.1-41.9,13.7-62.6,13.7c-28.3,0-50.9-8.3-67.8-24.8
			c-16.9-16.5-25.4-36.9-25.4-61.1c0-25.5,8.8-46.7,26.3-63.7c17.5-17,39.5-25.4,65.9-25.4c9.6,0,18.7,1,27.4,3.1
			c8.6,2.1,19.6,5.9,32.8,11.4v24.9c-20.4-11.8-40.6-17.7-60.6-17.7c-18.7,0-34.4,6.4-47.2,19.1c-12.8,12.7-19.2,28.3-19.2,46.8
			c0,19.4,6.4,35.3,19.2,47.6c12.8,12.3,29.3,18.5,49.4,18.5c9.8,0,21.5-2.2,35.1-6.7l2.3-0.7V2649h-32.9V2627.2z"/>
		<path class="st1" d="M1012.5,2540.5h24.5v148.6h76.9v22.3h-101.4V2540.5z"/>
		<path class="st1" d="M1135.2,2540.5h96.8v21.8h-72.4v52.1h69.9v21.9h-69.9v53.1h74.7v21.8h-99.2V2540.5z"/>
		<path class="st1" d="M1302.7,2639.8l-18.6-11.3c-11.7-7.1-20-14.1-24.9-21c-4.9-6.9-7.4-14.8-7.4-23.8c0-13.4,4.7-24.4,14-32.8
			c9.3-8.4,21.5-12.6,36.4-12.6c14.3,0,27.3,4,39.2,12v27.8c-12.3-11.8-25.6-17.8-39.7-17.8c-8,0-14.5,1.8-19.7,5.5
			c-5.1,3.7-7.7,8.4-7.7,14.2c0,5.1,1.9,9.9,5.7,14.4c3.8,4.5,9.9,9.2,18.2,14.1l18.7,11.1c20.8,12.4,31.3,28.3,31.3,47.5
			c0,13.7-4.6,24.8-13.8,33.4c-9.2,8.6-21.1,12.8-35.8,12.8c-16.9,0-32.2-5.2-46.1-15.6v-31.1c13.2,16.7,28.5,25.1,45.8,25.1
			c7.7,0,14-2.1,19.1-6.4c5.1-4.3,7.6-9.6,7.6-16C1325.2,2659,1317.7,2649.1,1302.7,2639.8z"/>
		<path class="st1" d="M1375.4,2540.5h24.5v170.8h-24.5V2540.5z"/>
		<path class="st1" d="M1492.3,2539.6h17.2l76.6,171.8h-25l-22.8-50.6h-72.9l-21.3,50.6h-25.1L1492.3,2539.6z M1528.2,2639
			l-27.6-61.9l-25.6,61.9H1528.2z"/>
		<path class="st1" d="M1673,2711.4v-171.1h54.2c16.3,0,29.3,4.4,39,13.2c9.7,8.8,14.5,20.6,14.5,35.5c0,9.9-2.5,18.7-7.5,26.4
			c-5,7.7-11.8,13.2-20.4,16.7c-8.6,3.5-21,5.2-37.2,5.2h-18.1v74.1H1673z M1722.8,2562.1h-25.3v53.4h26.8c9.9,0,17.6-2.3,23-7
			c5.4-4.7,8.1-11.4,8.1-20.1C1755.4,2570.8,1744.5,2562.1,1722.8,2562.1z"/>
		<path class="st1" d="M1802,2540.5h96.8v21.8h-72.4v52.1h69.9v21.9h-69.9v53.1h74.7v21.8H1802V2540.5z"/>
		<path class="st1" d="M2062.9,2540.5h23.2v170.8h-21l-114.2-131.5v131.5h-23v-170.8h19.8l115.2,132.7V2540.5z"/>
		<path class="st1" d="M2108.1,2540.3h142.7v21.8h-59.5v149.3h-24.6v-149.3h-58.6V2540.3z"/>
		<path class="st1" d="M2273.9,2540.5h96.8v21.8h-72.4v52.1h69.9v21.9h-69.9v53.1h74.7v21.8h-99.2V2540.5z"/>
		<path class="st1" d="M2546.3,2671.7v26.9c-17.9,9.8-38.6,14.7-62.1,14.7c-19.1,0-35.3-3.8-48.5-11.5
			c-13.3-7.7-23.8-18.2-31.5-31.7c-7.7-13.4-11.6-28-11.6-43.6c0-24.9,8.9-45.8,26.6-62.7c17.7-17,39.6-25.4,65.6-25.4
			c17.9,0,37.9,4.7,59.8,14.1v26.3c-20-11.4-39.5-17.1-58.6-17.1c-19.6,0-35.8,6.2-48.7,18.5c-12.9,12.3-19.4,27.8-19.4,46.4
			c0,18.7,6.4,34.2,19.1,46.2c12.7,12.1,29,18.1,48.8,18.1C2506.4,2690.8,2526.6,2684.5,2546.3,2671.7z"/>
		<path class="st1" d="M2660.2,2538.1c26.4,0,48.4,8.4,65.9,25.1c17.6,16.7,26.3,37.7,26.3,62.8c0,25.2-8.9,46-26.6,62.5
			c-17.7,16.5-40.1,24.8-67,24.8c-25.7,0-47.2-8.3-64.3-24.8c-17.1-16.5-25.7-37.2-25.7-62.1c0-25.5,8.6-46.6,25.9-63.3
			C2612,2546.5,2633.8,2538.1,2660.2,2538.1z M2661.2,2561.3c-19.5,0-35.6,6.1-48.2,18.3c-12.6,12.2-18.9,27.8-18.9,46.8
			c0,18.4,6.3,33.7,18.9,46c12.6,12.2,28.4,18.3,47.4,18.3c19.1,0,35-6.2,47.7-18.7c12.7-12.5,19.1-28,19.1-46.6
			c0-18.1-6.4-33.3-19.1-45.7C2695.4,2567.5,2679.7,2561.3,2661.2,2561.3z"/>
		<path class="st1" d="M2824.8,2639.8l-18.6-11.3c-11.7-7.1-20-14.1-24.9-21c-4.9-6.9-7.4-14.8-7.4-23.8c0-13.4,4.7-24.4,14-32.8
			c9.3-8.4,21.5-12.6,36.4-12.6c14.3,0,27.3,4,39.2,12v27.8c-12.3-11.8-25.6-17.8-39.7-17.8c-8,0-14.5,1.8-19.7,5.5
			c-5.1,3.7-7.7,8.4-7.7,14.2c0,5.1,1.9,9.9,5.7,14.4c3.8,4.5,9.9,9.2,18.2,14.1l18.7,11.1c20.8,12.4,31.3,28.3,31.3,47.5
			c0,13.7-4.6,24.8-13.8,33.4c-9.2,8.6-21.1,12.8-35.8,12.8c-16.9,0-32.2-5.2-46.1-15.6v-31.1c13.2,16.7,28.5,25.1,45.8,25.1
			c7.7,0,14-2.1,19.1-6.4c5.1-4.3,7.6-9.6,7.6-16C2847.3,2659,2839.8,2649.1,2824.8,2639.8z"/>
		<path class="st1" d="M2882.7,2540.3h142.7v21.8h-59.5v149.3h-24.6v-149.3h-58.6V2540.3z"/>
		<path class="st1" d="M3077.9,2539.6h17.2l76.6,171.8h-25l-22.8-50.6H3051l-21.3,50.6h-25.1L3077.9,2539.6z M3113.9,2639
			l-27.6-61.9l-25.6,61.9H3113.9z"/>
		<path class="st1" d="M3190.4,2540.5h24.5v148.6h76.9v22.3h-101.4V2540.5z"/>
		<path class="st1" d="M858,2747.3h20.1v79.1c0,10.7-0.8,18.8-2.3,24.2c-1.6,5.5-3.5,10-5.8,13.6c-2.3,3.6-5.1,6.9-8.4,9.7
			c-11,9.5-25.5,14.3-43.3,14.3c-18.2,0-32.7-4.7-43.7-14.2c-3.3-2.9-6.1-6.2-8.4-9.8c-2.3-3.6-4.2-8.1-5.7-13.3
			c-1.5-5.3-2.2-13.5-2.2-24.7v-78.9h20.1v79.1c0,13.1,1.5,22.2,4.5,27.3c3,5.1,7.5,9.2,13.7,12.3c6.1,3.1,13.3,4.6,21.6,4.6
			c11.8,0,21.5-3.1,28.9-9.3c3.9-3.3,6.8-7.2,8.5-11.8c1.7-4.5,2.6-12.3,2.6-23.2V2747.3z"/>
		<path class="st1" d="M1016.5,2747.3h19v139.4h-17.2l-93.2-107.3v107.3h-18.8v-139.4h16.2l94,108.3V2747.3z"/>
		<path class="st1" d="M1065.5,2747.3h20v139.4h-20V2747.3z"/>
		<path class="st1" d="M1116.5,2886.4v-139.2h47c19,0,34,2.8,45,8.5c11,5.7,19.8,14.1,26.3,25.1c6.5,11,9.8,23.1,9.8,36.1
			c0,9.3-1.8,18.2-5.4,26.7c-3.6,8.5-8.7,16-15.4,22.4c-6.8,6.7-14.7,11.7-23.6,15.1c-5.3,2.1-10.1,3.4-14.5,4.1
			c-4.4,0.7-12.8,1-25.1,1H1116.5z M1161.4,2765h-24.9v103.7h25.5c10,0,17.7-0.7,23.2-2c5.5-1.4,10.1-3.1,13.8-5.2
			c3.7-2.1,7.1-4.7,10.1-7.7c9.8-10,14.8-22.6,14.8-37.8c0-15-5.1-27.2-15.2-36.6c-3.7-3.5-8-6.4-12.8-8.7
			c-4.8-2.3-9.4-3.8-13.7-4.5C1178,2765.4,1171,2765,1161.4,2765z"/>
		<path class="st1" d="M1302.8,2746.5h14l62.5,140.2h-20.4l-18.6-41.3h-59.5l-17.4,41.3h-20.5L1302.8,2746.5z M1332.1,2827.6
			l-22.5-50.5l-20.9,50.5H1332.1z"/>
		<path class="st1" d="M1451.4,2747.3h20v121.2h62.8v18.2h-82.7V2747.3z"/>
		<path class="st1" d="M1596,2746.5h14l62.5,140.2h-20.4l-18.6-41.3h-59.5l-17.4,41.3h-20.5L1596,2746.5z M1625.3,2827.6l-22.5-50.5
			l-20.9,50.5H1625.3z"/>
		<path class="st1" d="M1655.5,2747.1h116.4v17.8h-48.6v121.8h-20.1v-121.8h-47.8V2747.1z"/>
		<path class="st1" d="M1791,2747.3h20v139.4h-20V2747.3z"/>
		<path class="st1" d="M1952.6,2747.3h19v139.4h-17.2l-93.2-107.3v107.3h-18.8v-139.4h16.2l94,108.3V2747.3z"/>
		<path class="st1" d="M2069.8,2745.3c21.5,0,39.5,6.8,53.8,20.5c14.3,13.6,21.5,30.7,21.5,51.3c0,20.6-7.2,37.6-21.7,51
			c-14.5,13.5-32.7,20.2-54.7,20.2c-21,0-38.5-6.7-52.5-20.2c-14-13.5-21-30.3-21-50.6c0-20.8,7-38,21.1-51.7
			C2030.4,2752.1,2048.2,2745.3,2069.8,2745.3z M2070.6,2764.2c-15.9,0-29.1,5-39.3,15c-10.3,10-15.4,22.7-15.4,38.2
			c0,15,5.1,27.5,15.5,37.5c10.3,10,23.2,15,38.7,15c15.5,0,28.5-5.1,38.9-15.3c10.4-10.2,15.6-22.8,15.6-38
			c0-14.8-5.2-27.2-15.6-37.3C2098.5,2769.3,2085.7,2764.2,2070.6,2764.2z"/>
		<path class="st1" d="M2205.9,2746.5h14l62.5,140.2H2262l-18.6-41.3H2184l-17.4,41.3h-20.5L2205.9,2746.5z M2235.2,2827.6
			l-22.5-50.5l-20.9,50.5H2235.2z"/>
		<path class="st1" d="M2408.5,2747.3h18.7v139.4h-20.1v-108.4l-42.9,53.9h-3.7l-43.3-53.9v108.4h-20v-139.4h18.9l46.3,57.2
			L2408.5,2747.3z"/>
		<path class="st1" d="M2457.2,2747.3h79v17.8h-59.1v42.5h57.1v17.9h-57.1v43.3h61v17.8h-80.9V2747.3z"/>
		<path class="st1" d="M2560,2886.6v-139.4h34.9c14.1,0,25.3,3.5,33.6,10.5c8.3,7,12.4,16.4,12.4,28.3c0,8.1-2,15.1-6.1,21.1
			c-4.1,5.9-9.9,10.3-17.5,13.3c4.5,2.9,8.8,6.9,13.1,12c4.3,5.1,10.2,13.9,18,26.4c4.9,7.9,8.7,13.9,11.7,17.9l7.4,10h-23.7
			l-6.1-9.2c-0.2-0.3-0.6-0.9-1.2-1.7l-3.9-5.5l-6.2-10.2l-6.7-10.9c-4.1-5.7-7.9-10.3-11.3-13.7c-3.4-3.4-6.5-5.8-9.3-7.3
			c-2.8-1.5-7.4-2.2-13.9-2.2h-5.2v60.7H2560z M2585.9,2764.2h-6v44h7.6c10.1,0,17-0.9,20.8-2.6c3.8-1.7,6.7-4.3,8.8-7.8
			c2.1-3.5,3.1-7.5,3.1-11.9c0-4.4-1.2-8.4-3.5-11.9c-2.3-3.6-5.6-6.1-9.8-7.5C2602.7,2765,2595.7,2764.2,2585.9,2764.2z"/>
		<path class="st1" d="M2683,2747.3h20v139.4h-20V2747.3z"/>
		<path class="st1" d="M2854,2854.3v21.9c-14.6,8-31.5,12-50.7,12c-15.6,0-28.8-3.1-39.6-9.4c-10.8-6.3-19.4-14.9-25.7-25.8
			c-6.3-11-9.5-22.8-9.5-35.6c0-20.3,7.2-37.3,21.7-51.2c14.5-13.8,32.3-20.8,53.5-20.8c14.6,0,30.9,3.8,48.8,11.5v21.5
			c-16.3-9.3-32.2-14-47.8-14c-16,0-29.2,5-39.8,15.1c-10.5,10.1-15.8,22.7-15.8,37.9c0,15.3,5.2,27.9,15.6,37.7
			c10.4,9.8,23.6,14.8,39.8,14.8C2821.4,2869.9,2837.9,2864.7,2854,2854.3z"/>
		<path class="st1" d="M2928.2,2746.5h14l62.5,140.2h-20.4l-18.6-41.3h-59.5l-17.4,41.3h-20.5L2928.2,2746.5z M2957.5,2827.6
			l-22.5-50.5l-20.9,50.5H2957.5z"/>
		<path class="st1" d="M3130.7,2747.3h19v139.4h-17.2l-93.2-107.3v107.3h-18.8v-139.4h16.2l94,108.3V2747.3z"/>
		<path class="st1" d="M3224,2746.5h14l62.5,140.2h-20.4l-18.6-41.3H3202l-17.4,41.3h-20.5L3224,2746.5z M3253.3,2827.6l-22.5-50.5
			l-20.9,50.5H3253.3z"/>
	</g>
</g>
</svg>
