<?xml version="1.0" encoding="utf-8"?>
<!-- Generator: Adobe Illustrator 24.0.1, SVG Export Plug-In . SVG Version: 6.00 Build 0)  -->
<svg version="1.1" id="Capa_1" xmlns="http://www.w3.org/2000/svg" xmlns:xlink="http://www.w3.org/1999/xlink" x="0px" y="0px"
	 viewBox="0 0 612 600.7" style="enable-background:new 0 0 612 600.7;" xml:space="preserve">
<style type="text/css">
	.st0{fill:#003160;}
</style>
<g>
	<g>
		<path class="st0" d="M150.5,151.8c-19.7,19.7-35.1,42.6-45.9,68.1c-8.8,20.8-14.2,42.6-16.1,65h9.5c6.6-73,51.6-135.1,114.6-165.8
			l-4.5-8.4C186.8,121.1,167.5,134.9,150.5,151.8z"/>
		<path class="st0" d="M506.6,220c-10.8-25.5-26.3-48.5-45.9-68.1c-16.4-16.4-35.1-29.9-55.6-40.2l-4.7,8.3
			C467.7,153.6,514,223.2,514,303.4c0,31.4-7.1,61.2-19.8,87.8h10.5c0.6-1.5,1.3-2.9,1.9-4.4c11.2-26.4,16.9-54.5,16.9-83.5
			C523.5,274.5,517.8,246.4,506.6,220z"/>
	</g>
	<g>
		<path class="st0" d="M216.2,284.9l2.2-18.2l-6.6-5.9c0,0-1.9-2.3,12-11.4c0,0,85.4-50.2,175.8-10.3c0,0,7.4,5.8-28.5-0.7
			c0,0-84.9-4.8-130,23.1l-6.1,30.9C235,292.4,230.7,285.1,216.2,284.9z"/>
	</g>
	<path class="st0" d="M364.6,70.3c0,0-7.1-4.1-54.6-32.8l10.1,12.6c0,0,6.4,8.1,0.2,7.6c0,0-33.5-5.8-73,12.6c0,0,15.9-11,35.6-23.1
		c0,0,18.9-13.6,23.2-26L364.6,70.3z"/>
	<path class="st0" d="M392.9,210.8c0.9,0.5,1.9-0.4,1.5-1.3c-14.6-35.7-88.3-38.2-88.3-38.2c-46.1,0-75.9,19.1-84.4,26.6
		c-1.7,1.5-2.7,3.5-2.9,5.7l-1.1,11.4c-0.1,1.3,1.3,2.1,2.3,1.3C234.2,205.7,304.8,159.6,392.9,210.8z"/>
	<path class="st0" d="M248.4,173.5c0,0,11-6.4,32.2-9.4v-59.7c-9.4,1.7-18.8,4.6-27.6,9.2L248.4,173.5z"/>
	<path class="st0" d="M289.8,103v60c10.3-0.9,22.5-0.9,36.4,0.8v-59.8C315.2,102.4,302.6,101.7,289.8,103z"/>
	<path class="st0" d="M370.3,173.2l-4.9-59.7c0,0-12.2-4.8-30-8.1V165C346.1,166.7,357.8,169.3,370.3,173.2z"/>
	<path class="st0" d="M380,112.4c-5.2-3.9-37.8-18-74.7-17.9c0,0-46.2,1.1-58.6,14.8l-6.1,66.8c0,0-0.1,1.4-0.2,2.3
		c-5.4,2.9-10.6,6.5-10.6,6.5l4.9-67.2c0,0-27.4-6.9-3.7-23.6c0,0,68.3-39.3,137.9-5c0,0,37,15.3,16.2,24.1
		C385.2,113.3,382.1,114,380,112.4z"/>
	<path class="st0" d="M121.4,299.2v129.6H88.1V299.2H121.4z"/>
	<path class="st0" d="M145.8,299.2h59.7c13.6,0,24.3,3.8,32.3,11.4c8,7.6,12,16.6,12,27c0,10.8-3.9,20-11.8,27.6
		c-7.9,7.7-18.6,11.5-32.3,11.5h-26.6v52h-33.4V299.2z M179.1,322.9V353h15.5c13.9,0,20.8-5,20.8-15c0-5.6-1.9-9.5-5.6-11.7
		c-3.7-2.2-10-3.3-19-3.3H179.1z"/>
	<path class="st0" d="M372,299.2h33.4v73.6c0,18.9-5.8,33.3-17.4,43c-11.6,9.8-28.1,14.7-49.6,14.7c-21.2,0-37.7-5-49.4-14.8
		c-11.7-9.9-17.6-24.1-17.6-42.7v-73.8h33.5v74.5c0,9,3,16.3,9.2,21.7c6.1,5.4,14.1,8.2,24,8.2c10.3,0,18.5-2.8,24.7-8.4
		s9.2-13.5,9.2-23.8L372,299.2L372,299.2z"/>
	<path class="st0" d="M523.9,403v25.8h-92.2V299.2h33.4V403H523.9z"/>
	<g>
		<path class="st0" d="M203.1,559.7h2.8l-5.8,13.3h-0.8l-3.9-9.1l-3.8,9.1h-0.8l-5.8-13.3h2.8l3.4,7.9l3.3-7.9h1.9l3.3,7.9
			L203.1,559.7z"/>
		<path class="st0" d="M234.2,559.7h2.8l-5.8,13.3h-0.8l-3.9-9.1l-3.8,9.1h-0.8l-5.8-13.3h2.8l3.4,7.9l3.3-7.9h1.9l3.3,7.9
			L234.2,559.7z"/>
		<path class="st0" d="M265.4,559.7h2.8l-5.8,13.3h-0.8l-3.9-9.1l-3.8,9.1H253l-5.8-13.3h2.8l3.4,7.9l3.3-7.9h1.9l3.3,7.9
			L265.4,559.7z"/>
		<path class="st0" d="M279.7,569.6c0.5,0,0.9,0.2,1.2,0.5s0.5,0.7,0.5,1.2c0,0.5-0.2,0.9-0.5,1.2c-0.3,0.3-0.8,0.5-1.2,0.5
			c-0.5,0-0.9-0.2-1.2-0.5s-0.5-0.7-0.5-1.2c0-0.5,0.2-0.9,0.5-1.2C278.8,569.8,279.2,569.6,279.7,569.6z"/>
		<path class="st0" d="M296.3,554.2c0.4,0,0.8,0.2,1.1,0.4s0.5,0.7,0.5,1.1c0,0.4-0.1,0.8-0.5,1.1c-0.3,0.3-0.7,0.5-1.1,0.5
			c-0.4,0-0.8-0.2-1-0.5s-0.5-0.7-0.5-1.1s0.1-0.8,0.5-1.1C295.5,554.3,295.9,554.2,296.3,554.2z M295,559.7h2.6v13.1H295V559.7z"/>
		<path class="st0" d="M311.3,579.4v-19.7h4.5c2.3,0,4.1,0.6,5.4,1.7c1.3,1.2,1.9,2.8,1.9,4.8c0,2-0.6,3.6-1.8,4.8
			c-1.2,1.3-2.8,1.9-4.6,1.9c-0.8,0-1.8-0.2-2.8-0.5v7L311.3,579.4L311.3,579.4z M315.8,562.1H314v8c0.8,0.4,1.6,0.6,2.5,0.6
			c1.2,0,2.2-0.4,3-1.3s1.2-1.9,1.2-3.2c0-0.8-0.2-1.6-0.5-2.3c-0.4-0.7-0.9-1.1-1.5-1.4S317,562.1,315.8,562.1z"/>
		<path class="st0" d="M344.6,572.8v-1.7c-0.5,0.6-1.2,1.1-1.9,1.4c-0.7,0.3-1.4,0.5-2.1,0.5c-0.8,0-1.6-0.2-2.3-0.6s-1.2-1-1.6-1.7
			s-0.5-1.9-0.5-3.5v-7.5h2.6v7.5c0,1.4,0.2,2.3,0.6,2.9c0.4,0.5,1.1,0.8,2.1,0.8c1.2,0,2.3-0.6,3.1-1.8v-9.3h2.6v13.1L344.6,572.8
			L344.6,572.8z"/>
		<path class="st0" d="M361,552.9h2.6v19.8H361V552.9z"/>
		<path class="st0" d="M378.9,569.6c0.5,0,0.9,0.2,1.2,0.5s0.5,0.7,0.5,1.2c0,0.5-0.2,0.9-0.5,1.2c-0.3,0.3-0.8,0.5-1.2,0.5
			c-0.5,0-0.9-0.2-1.2-0.5s-0.5-0.7-0.5-1.2c0-0.5,0.2-0.9,0.5-1.2C378,569.8,378.4,569.6,378.9,569.6z"/>
		<path class="st0" d="M402.4,572.8v-1.7c-0.5,0.6-1.2,1.1-1.9,1.4c-0.7,0.3-1.4,0.5-2.1,0.5c-0.8,0-1.6-0.2-2.3-0.6s-1.2-1-1.6-1.7
			s-0.5-1.9-0.5-3.5v-7.5h2.6v7.5c0,1.4,0.2,2.3,0.6,2.9c0.4,0.5,1.1,0.8,2.1,0.8c1.2,0,2.3-0.6,3.1-1.8v-9.3h2.6v13.1L402.4,572.8
			L402.4,572.8z"/>
		<path class="st0" d="M418.2,571.8V569c0.7,0.5,1.5,0.9,2.2,1.2c0.8,0.3,1.4,0.5,1.9,0.5c0.5,0,1-0.1,1.4-0.4s0.6-0.6,0.6-1
			c0-0.4-0.1-0.7-0.4-0.9s-0.8-0.6-1.6-1.1c-1.7-0.9-2.8-1.7-3.3-2.4c-0.5-0.7-0.8-1.4-0.8-2.2c0-1,0.4-1.8,1.2-2.5
			c0.8-0.6,1.8-1,3-1c1.3,0,2.6,0.4,3.9,1.1v2.6c-1.5-0.9-2.8-1.4-3.8-1.4c-0.5,0-0.9,0.1-1.2,0.3c-0.3,0.2-0.5,0.5-0.5,0.8
			c0,0.3,0.1,0.6,0.4,0.9c0.3,0.3,0.8,0.6,1.5,1l0.9,0.5c2.2,1.2,3.3,2.6,3.3,4.1c0,1.1-0.4,2-1.3,2.6s-1.9,1-3.2,1
			c-0.8,0-1.5-0.1-2.1-0.2C419.9,572.6,419.1,572.3,418.2,571.8z"/>
	</g>
	<g>
		<path class="st0" d="M33.3,457.1h5.3V494h-5.3V457.1z"/>
		<path class="st0" d="M66.7,475.8H79v15.6c-4.5,2-9,3-13.5,3c-6.1,0-11-1.8-14.6-5.3c-3.7-3.6-5.5-8-5.5-13.2
			c0-5.5,1.9-10.1,5.7-13.7c3.8-3.7,8.5-5.5,14.2-5.5c2.1,0,4,0.2,5.9,0.7c1.9,0.5,4.2,1.3,7.1,2.5v5.4c-4.4-2.5-8.8-3.8-13.1-3.8
			c-4,0-7.4,1.4-10.2,4.1c-2.8,2.7-4.1,6.1-4.1,10.1c0,4.2,1.4,7.6,4.1,10.3c2.8,2.6,6.3,4,10.7,4c2.1,0,4.6-0.5,7.6-1.5l0.5-0.2
			v-7.7h-7.1C66.7,480.5,66.7,475.8,66.7,475.8z"/>
		<path class="st0" d="M86.7,457.1H92v32h16.6v4.8H86.7V457.1z"/>
		<path class="st0" d="M113.2,457.1h20.9v4.7h-15.6v11.2h15.1v4.7h-15.1v11.4h16.1v4.7h-21.4V457.1z"/>
		<path class="st0" d="M149.3,478.5l-4-2.4c-2.5-1.5-4.3-3-5.4-4.5c-1.1-1.5-1.6-3.2-1.6-5.1c0-2.9,1-5.2,3-7.1
			c2-1.8,4.6-2.7,7.8-2.7c3.1,0,5.9,0.9,8.5,2.6v6c-2.6-2.5-5.5-3.8-8.6-3.8c-1.7,0-3.1,0.4-4.2,1.2c-1.1,0.8-1.7,1.8-1.7,3.1
			c0,1.1,0.4,2.1,1.2,3.1c0.8,1,2.1,2,3.9,3l4,2.4c4.5,2.7,6.7,6.1,6.7,10.2c0,3-1,5.4-3,7.2s-4.6,2.8-7.7,2.8
			c-3.6,0-6.9-1.1-9.9-3.4v-6.7c2.9,3.6,6.1,5.4,9.9,5.4c1.6,0,3-0.5,4.1-1.4s1.6-2.1,1.6-3.5C154.2,482.7,152.6,480.5,149.3,478.5z
			"/>
		<path class="st0" d="M165,457.1h5.3V494H165V457.1z"/>
		<path class="st0" d="M190.2,456.9h3.7l16.5,37H205l-4.9-10.9h-15.7l-4.6,10.9h-5.4L190.2,456.9z M197.9,478.4L192,465l-5.5,13.3
			H197.9z"/>
		<path class="st0" d="M229.2,494v-36.9h11.7c3.5,0,6.3,1,8.4,2.9s3.1,4.5,3.1,7.6c0,2.1-0.5,4-1.6,5.7s-2.5,2.9-4.4,3.6
			s-4.5,1.1-8,1.1h-3.9v16L229.2,494L229.2,494z M239.9,461.8h-5.5v11.5h5.8c2.1,0,3.8-0.5,5-1.5c1.2-1,1.7-2.5,1.7-4.3
			C246.9,463.7,244.6,461.8,239.9,461.8z"/>
		<path class="st0" d="M257,457.1h20.9v4.7h-15.6v11.2h15.1v4.7h-15.1v11.4h16.1v4.7H257L257,457.1L257,457.1z"/>
		<path class="st0" d="M313.2,457.1h5V494h-4.5l-24.6-28.4V494h-5v-36.8h4.3l24.8,28.6V457.1z"/>
		<path class="st0" d="M323,457.1h30.8v4.7h-12.8V494h-5.3v-32.2H323V457.1z"/>
		<path class="st0" d="M358.7,457.1h20.9v4.7H364v11.2h15.1v4.7H364v11.4h16.1v4.7h-21.4V457.1z"/>
		<path class="st0" d="M417.5,485.4v5.8c-3.9,2.1-8.3,3.2-13.4,3.2c-4.1,0-7.6-0.8-10.5-2.5c-2.9-1.6-5.1-3.9-6.8-6.8
			c-1.7-2.9-2.5-6-2.5-9.4c0-5.4,1.9-9.9,5.7-13.5c3.8-3.7,8.5-5.5,14.1-5.5c3.9,0,8.2,1,12.9,3v5.7c-4.3-2.5-8.5-3.7-12.6-3.7
			c-4.2,0-7.7,1.3-10.5,4s-4.2,6-4.2,10c0,4,1.4,7.4,4.1,10c2.7,2.6,6.2,3.9,10.5,3.9C408.9,489.5,413.2,488.2,417.5,485.4z"/>
		<path class="st0" d="M442,456.6c5.7,0,10.4,1.8,14.2,5.4s5.7,8.1,5.7,13.5s-1.9,9.9-5.7,13.5s-8.6,5.3-14.5,5.3
			c-5.5,0-10.2-1.8-13.9-5.3c-3.7-3.6-5.5-8-5.5-13.4c0-5.5,1.9-10,5.6-13.7C431.6,458.4,436.3,456.6,442,456.6z M442.2,461.6
			c-4.2,0-7.7,1.3-10.4,4c-2.7,2.6-4.1,6-4.1,10.1c0,4,1.4,7.3,4.1,9.9c2.7,2.6,6.1,4,10.2,4c4.1,0,7.5-1.3,10.3-4s4.1-6,4.1-10
			c0-3.9-1.4-7.2-4.1-9.9C449.6,463,446.2,461.6,442.2,461.6z"/>
		<path class="st0" d="M477.5,478.5l-4-2.4c-2.5-1.5-4.3-3-5.4-4.5c-1.1-1.5-1.6-3.2-1.6-5.1c0-2.9,1-5.2,3-7.1
			c2-1.8,4.6-2.7,7.8-2.7c3.1,0,5.9,0.9,8.5,2.6v6c-2.6-2.5-5.5-3.8-8.6-3.8c-1.7,0-3.1,0.4-4.2,1.2c-1.1,0.8-1.7,1.8-1.7,3.1
			c0,1.1,0.4,2.1,1.2,3.1c0.8,1,2.1,2,3.9,3l4,2.4c4.5,2.7,6.7,6.1,6.7,10.2c0,3-1,5.4-3,7.2s-4.5,2.8-7.7,2.8c-3.6,0-7-1.1-9.9-3.4
			v-6.7c2.9,3.6,6.1,5.4,9.9,5.4c1.6,0,3-0.5,4.1-1.4s1.6-2.1,1.6-3.5C482.4,482.7,480.8,480.5,477.5,478.5z"/>
		<path class="st0" d="M490,457.1h30.8v4.7h-12.8V494h-5.3v-32.2H490V457.1z"/>
		<path class="st0" d="M532.1,456.9h3.7l16.5,37h-5.4l-4.9-10.9h-15.7l-4.6,10.9h-5.4L532.1,456.9z M539.8,478.4l-5.9-13.3
			l-5.5,13.3H539.8z"/>
		<path class="st0" d="M556.4,457.1h5.3v32h16.6v4.8h-21.9L556.4,457.1L556.4,457.1z"/>
		<path class="st0" d="M53.4,501.7h4.3v17.1c0,2.3-0.2,4-0.5,5.2s-0.8,2.2-1.2,2.9c-0.5,0.8-1.1,1.5-1.8,2.1c-2.4,2-5.5,3.1-9.3,3.1
			c-3.9,0-7.1-1-9.4-3c-0.7-0.6-1.3-1.3-1.8-2.1c-0.5-0.8-0.9-1.7-1.2-2.9c-0.3-1.1-0.5-2.9-0.5-5.3v-17h4.3v17.1
			c0,2.8,0.3,4.8,1,5.9c0.7,1.1,1.6,2,3,2.7s2.9,1,4.7,1c2.5,0,4.6-0.7,6.2-2c0.8-0.7,1.5-1.6,1.8-2.5c0.4-1,0.6-2.7,0.6-5
			L53.4,501.7L53.4,501.7z"/>
		<path class="st0" d="M87.6,501.7h4.1v30.1H88l-20.1-23.2v23.2h-4v-30h3.5l20.3,23.3L87.6,501.7L87.6,501.7z"/>
		<path class="st0" d="M98.2,501.7h4.3v30.1h-4.3V501.7z"/>
		<path class="st0" d="M109.2,531.7v-30h10.1c4.1,0,7.3,0.6,9.7,1.8c2.4,1.2,4.3,3,5.7,5.4c1.4,2.4,2.1,5,2.1,7.8
			c0,2-0.4,3.9-1.2,5.8s-1.9,3.5-3.3,4.8c-1.5,1.4-3.2,2.5-5.1,3.2c-1.1,0.4-2.2,0.7-3.1,0.9c-0.9,0.2-2.8,0.2-5.4,0.2L109.2,531.7
			L109.2,531.7z M118.9,505.5h-5.4v22.3h5.5c2.2,0,3.8-0.2,5-0.4s2.2-0.7,3-1.1s1.5-1,2.2-1.7c2.1-2.2,3.2-4.9,3.2-8.2
			c0-3.2-1.1-5.9-3.3-7.9c-0.8-0.8-1.7-1.4-2.8-1.9s-2-0.8-3-1C122.4,505.6,120.9,505.5,118.9,505.5z"/>
		<path class="st0" d="M149.4,501.5h3l13.5,30.2h-4.4l-4-8.9h-12.8l-3.8,8.9h-4.4L149.4,501.5z M155.7,519l-4.9-10.9l-4.5,10.9
			H155.7z"/>
		<path class="st0" d="M181.4,501.7h4.3v26.1h13.5v3.9h-17.8V501.7z"/>
		<path class="st0" d="M212.6,501.5h3l13.5,30.2h-4.4l-4-8.9h-12.8l-3.8,8.9h-4.4L212.6,501.5z M218.9,519l-4.9-10.9l-4.5,10.9
			H218.9z"/>
		<path class="st0" d="M225.4,501.7h25.1v3.8H240v26.3h-4.3v-26.3h-10.3L225.4,501.7L225.4,501.7z"/>
		<path class="st0" d="M254.6,501.7h4.3v30.1h-4.3V501.7z"/>
		<path class="st0" d="M289.5,501.7h4.1v30.1h-3.7l-20.1-23.1v23.1h-4v-30h3.5l20.3,23.3L289.5,501.7L289.5,501.7z"/>
		<path class="st0" d="M314.7,501.3c4.6,0,8.5,1.5,11.6,4.4s4.6,6.6,4.6,11.1s-1.6,8.1-4.7,11s-7,4.4-11.8,4.4
			c-4.5,0-8.3-1.5-11.3-4.4c-3-2.9-4.5-6.5-4.5-10.9c0-4.5,1.5-8.2,4.6-11.1C306.2,502.8,310.1,501.3,314.7,501.3z M314.9,505.4
			c-3.4,0-6.3,1.1-8.5,3.2c-2.2,2.1-3.3,4.9-3.3,8.2c0,3.2,1.1,5.9,3.3,8.1s5,3.2,8.3,3.2c3.4,0,6.1-1.1,8.4-3.3
			c2.2-2.2,3.4-4.9,3.4-8.2c0-3.2-1.1-5.9-3.4-8C320.9,506.5,318.2,505.4,314.9,505.4z"/>
		<path class="st0" d="M344.1,501.5h3l13.5,30.2h-4.4l-4-8.9h-12.8l-3.8,8.9h-4.4L344.1,501.5z M350.4,519l-4.9-10.9L341,519H350.4z
			"/>
		<path class="st0" d="M387.8,501.7h4v30.1h-4.3v-23.4l-9.2,11.6h-0.8l-9.4-11.6v23.4h-4.3v-30h4.1l10,12.3L387.8,501.7z"/>
		<path class="st0" d="M398.3,501.7h17v3.8h-12.7v9.2h12.3v3.8h-12.3v9.3h13.1v3.8h-17.5L398.3,501.7L398.3,501.7z"/>
		<path class="st0" d="M420.4,531.8v-30h7.5c3,0,5.5,0.8,7.2,2.3c1.8,1.5,2.7,3.5,2.7,6.1c0,1.8-0.4,3.3-1.3,4.5
			c-0.9,1.3-2.1,2.2-3.8,2.9c1,0.6,1.9,1.5,2.8,2.6s2.2,3,3.9,5.7c1,1.7,1.9,3,2.5,3.8l1.6,2.2h-5.1l-1.3-2c0-0.1-0.1-0.2-0.3-0.4
			l-0.8-1.2l-1.3-2.2l-1.4-2.3c-0.9-1.2-1.7-2.2-2.4-3c-0.7-0.7-1.4-1.3-2-1.6c-0.6-0.3-1.6-0.5-3-0.5h-1.1v13.1L420.4,531.8
			L420.4,531.8z M426,505.4h-1.3v9.5h1.6c2.2,0,3.7-0.2,4.5-0.6c0.8-0.4,1.4-0.9,1.9-1.7s0.7-1.6,0.7-2.6c0-1-0.2-1.8-0.8-2.6
			c-0.5-0.8-1.2-1.3-2.1-1.6C429.6,505.5,428.1,505.4,426,505.4z"/>
		<path class="st0" d="M447,501.7h4.3v30.1H447V501.7z"/>
		<path class="st0" d="M483.8,524.8v4.7c-3.2,1.7-6.8,2.6-10.9,2.6c-3.4,0-6.2-0.7-8.5-2c-2.3-1.3-4.2-3.2-5.5-5.6
			c-1.4-2.4-2-4.9-2-7.7c0-4.4,1.6-8,4.7-11c3.1-3,7-4.5,11.5-4.5c3.1,0,6.7,0.8,10.5,2.5v4.6c-3.5-2-7-3-10.3-3
			c-3.4,0-6.3,1.1-8.6,3.3c-2.3,2.2-3.4,4.9-3.4,8.2c0,3.3,1.1,6,3.4,8.1s5.1,3.2,8.6,3.2C476.8,528.2,480.4,527,483.8,524.8z"/>
		<path class="st0" d="M499.8,501.5h3l13.5,30.2h-4.4l-4-8.9h-12.8l-3.8,8.9h-4.4L499.8,501.5z M506.1,519l-4.9-10.9l-4.5,10.9
			H506.1z"/>
		<path class="st0" d="M543.5,501.7h4.1v30.1h-3.7l-20.1-23.1v23.1h-4v-30h3.5l20.3,23.3L543.5,501.7L543.5,501.7z"/>
		<path class="st0" d="M563.6,501.5h3l13.5,30.2h-4.4l-4-8.9h-12.8l-3.8,8.9h-4.4L563.6,501.5z M569.9,519l-4.8-10.9l-4.5,10.9
			H569.9z"/>
	</g>
</g>
</svg>
