<?xml version="1.0" encoding="utf-8"?>
<!-- Generator: Adobe Illustrator 24.3.0, SVG Export Plug-In . SVG Version: 6.00 Build 0)  -->
<svg version="1.1" id="Capa_1" xmlns="http://www.w3.org/2000/svg" xmlns:xlink="http://www.w3.org/1999/xlink" x="0px" y="0px"
	 viewBox="0 0 612 600.67" style="enable-background:new 0 0 612 600.67;" xml:space="preserve">
<style type="text/css">
	.st0{fill:#F6F6F6;}
</style>
<g>
	<g>
		<path class="st0" d="M231.04,287.4l2.88-15.03c48.43-29.9,139.72-24.78,139.72-24.78c38.55,6.98,30.61,0.79,30.61,0.79
			c-97.16-42.92-188.96,11.05-188.96,11.05c-14.97,9.83-12.88,12.25-12.88,12.25l7.05,6.29l-0.76,8.09h7.9
			C221.69,286.08,226.5,286.52,231.04,287.4z"/>
	</g>
	<g>
		<path class="st0" d="M403.49,217.85c0.92,0.54,2-0.39,1.6-1.37c-15.73-38.39-94.96-41.02-94.96-41.02
			c-49.51,0-81.63,20.55-90.75,28.55c-1.8,1.58-2.91,3.79-3.14,6.16l-1.16,12.31c-0.13,1.36,1.42,2.23,2.51,1.41
			C232.98,212.44,308.85,162.83,403.49,217.85z"/>
		<path class="st0" d="M364.61,66.89c0,0-7.65-4.43-58.71-35.23l10.89,13.51c0,0,6.87,8.76,0.22,8.13c0,0-35.97-6.28-78.44,13.56
			c0,0,17.04-11.85,38.24-24.82c0,0,20.32-14.59,24.91-27.92L364.61,66.89z"/>
		<g>
			<path class="st0" d="M245.37,177.28c0,0,11.82-6.85,34.62-10.15v-64.18c-10.1,1.83-20.17,4.96-29.71,9.89L245.37,177.28z"/>
			<path class="st0" d="M289.85,101.56v64.45c11.07-0.92,24.15-0.92,39.17,0.82v-64.31C317.11,100.89,303.61,100.16,289.85,101.56z"
				/>
			<path class="st0" d="M376.4,177l-5.28-64.16c0,0-13.1-5.17-32.22-8.73v64.07C350.39,170.01,362.9,172.84,376.4,177z"/>
		</g>
	</g>
	<path class="st0" d="M225.72,190.11l5.29-72.29c0,0-29.5-7.4-3.95-25.37c0,0,72.08-45.8,147.59-3.87c0,0,26.27,14.88,7.25,20.76
		l-2.12,0.12c-1.24,0.07-2.47-0.3-3.45-1.07c-5.55-4.32-29.84-15.69-69.51-15.54c0,0-49.72,1.18-62.98,15.97l-6.52,71.81
		c0,0-0.13,1.51-0.24,2.44C231.29,186.2,225.72,190.11,225.72,190.11z"/>
</g>
<g>
	<path class="st0" d="M154.56,151.08c-19.65,19.65-35.08,42.54-45.86,68.02c-9.36,22.12-14.84,45.39-16.37,69.36h8.93
		c4.98-73.93,49.32-137.25,112.19-169.12l-4.15-7.95C189.1,121.6,170.73,134.91,154.56,151.08z"/>
</g>
<g>
	<path class="st0" d="M195.45,562.69h2.98l-6.21,14.3h-0.89l-4.15-9.79l-4.1,9.79h-0.9l-6.26-14.3h2.99l3.68,8.52l3.59-8.52h2.06
		l3.54,8.52L195.45,562.69z"/>
	<path class="st0" d="M228.89,562.69h2.98l-6.21,14.3h-0.89l-4.15-9.79l-4.1,9.79h-0.9l-6.26-14.3h2.99l3.68,8.52l3.59-8.52h2.06
		l3.54,8.52L228.89,562.69z"/>
	<path class="st0" d="M262.34,562.69h2.98l-6.21,14.3h-0.89l-4.15-9.79l-4.1,9.79h-0.9l-6.26-14.3h2.99l3.68,8.52l3.59-8.52h2.06
		l3.54,8.52L262.34,562.69z"/>
	<path class="st0" d="M277.78,573.33c0.52,0,0.96,0.18,1.33,0.53c0.37,0.36,0.55,0.79,0.55,1.31c0,0.51-0.18,0.94-0.54,1.28
		c-0.36,0.35-0.81,0.52-1.34,0.52c-0.52,0-0.96-0.17-1.31-0.52c-0.36-0.35-0.53-0.77-0.53-1.28c0-0.52,0.18-0.96,0.53-1.31
		C276.82,573.51,277.26,573.33,277.78,573.33z"/>
	<path class="st0" d="M295.58,556.78c0.46,0,0.85,0.16,1.18,0.47c0.33,0.32,0.49,0.7,0.49,1.16c0,0.45-0.16,0.84-0.49,1.16
		c-0.33,0.33-0.72,0.49-1.18,0.49c-0.43,0-0.8-0.17-1.13-0.5c-0.33-0.33-0.49-0.72-0.49-1.15c0-0.43,0.16-0.81,0.49-1.14
		C294.78,556.94,295.15,556.78,295.58,556.78z M294.21,562.69h2.78v14.05h-2.78V562.69z"/>
	<path class="st0" d="M311.77,583.9v-21.21h4.87c2.49,0,4.43,0.62,5.82,1.86c1.39,1.24,2.08,2.98,2.08,5.21
		c0,2.11-0.65,3.84-1.96,5.19c-1.31,1.35-2.97,2.03-4.99,2.03c-0.9,0-1.89-0.2-2.97-0.6v7.51H311.77z M316.57,565.29h-1.97v8.64
		c0.85,0.44,1.75,0.66,2.68,0.66c1.3,0,2.36-0.45,3.19-1.36c0.83-0.91,1.24-2.07,1.24-3.5c0-0.92-0.2-1.73-0.59-2.43
		c-0.39-0.7-0.92-1.21-1.6-1.53C318.86,565.45,317.87,565.29,316.57,565.29z"/>
	<path class="st0" d="M347.49,576.74v-1.8c-0.59,0.65-1.27,1.15-2.02,1.51c-0.76,0.36-1.51,0.54-2.27,0.54
		c-0.89,0-1.7-0.22-2.45-0.66c-0.75-0.44-1.31-1.04-1.7-1.8c-0.38-0.76-0.57-2.02-0.57-3.78v-8.05h2.78v8.01
		c0,1.47,0.21,2.5,0.63,3.09c0.42,0.58,1.16,0.88,2.22,0.88c1.32,0,2.45-0.65,3.38-1.94v-10.03h2.78v14.05H347.49z"/>
	<path class="st0" d="M365.19,555.4h2.78v21.34h-2.78V555.4z"/>
	<path class="st0" d="M384.37,573.33c0.52,0,0.96,0.18,1.33,0.53c0.37,0.36,0.55,0.79,0.55,1.31c0,0.51-0.18,0.94-0.54,1.28
		c-0.36,0.35-0.81,0.52-1.34,0.52c-0.52,0-0.96-0.17-1.31-0.52c-0.36-0.35-0.53-0.77-0.53-1.28c0-0.52,0.18-0.96,0.53-1.31
		C383.41,573.51,383.85,573.33,384.37,573.33z"/>
	<path class="st0" d="M409.69,576.74v-1.8c-0.59,0.65-1.27,1.15-2.02,1.51c-0.76,0.36-1.51,0.54-2.27,0.54
		c-0.89,0-1.7-0.22-2.45-0.66c-0.75-0.44-1.31-1.04-1.7-1.8c-0.38-0.76-0.57-2.02-0.57-3.78v-8.05h2.78v8.01
		c0,1.47,0.21,2.5,0.63,3.09c0.42,0.58,1.16,0.88,2.22,0.88c1.32,0,2.45-0.65,3.38-1.94v-10.03h2.78v14.05H409.69z"/>
	<path class="st0" d="M426.64,575.73v-2.99c0.78,0.55,1.59,1,2.41,1.34c0.82,0.34,1.51,0.51,2.07,0.51c0.58,0,1.08-0.14,1.5-0.43
		c0.42-0.28,0.63-0.63,0.63-1.02c0-0.41-0.14-0.75-0.4-1.02c-0.27-0.27-0.85-0.66-1.75-1.17c-1.79-1-2.97-1.85-3.52-2.56
		c-0.56-0.71-0.83-1.48-0.83-2.31c0-1.08,0.42-1.96,1.26-2.64c0.84-0.68,1.92-1.02,3.25-1.02c1.37,0,2.78,0.39,4.23,1.16v2.75
		c-1.65-1-3-1.5-4.05-1.5c-0.54,0-0.98,0.11-1.31,0.34c-0.33,0.23-0.5,0.53-0.5,0.91c0,0.33,0.15,0.64,0.45,0.93
		c0.3,0.3,0.83,0.65,1.58,1.07l0.99,0.56c2.34,1.32,3.51,2.79,3.51,4.4c0,1.15-0.45,2.09-1.35,2.83s-2.06,1.11-3.47,1.11
		c-0.83,0-1.58-0.09-2.23-0.27C428.44,576.54,427.62,576.21,426.64,575.73z"/>
</g>
<g>
	<path class="st0" d="M160.48,302.01h33.16v75.53c0,19.43-5.74,34.16-17.23,44.2c-11.49,10.03-27.9,15.05-49.22,15.05
		c-21.07,0-37.43-5.08-49.08-15.24c-11.65-10.16-17.47-24.76-17.47-43.81v-75.72h33.16v76.45c0,9.27,3.03,16.69,9.1,22.28
		c6.06,5.59,14.02,8.38,23.86,8.38c10.22,0,18.4-2.85,24.53-8.57c6.13-5.71,9.19-13.84,9.19-24.38V302.01z"/>
	<path class="st0" d="M311.23,410.72v24.3H209.79v-133h33.16v108.71H311.23z"/>
	<path class="st0" d="M318.06,302.01h59.36c13.47,0,24.17,3.9,32.11,11.69c7.94,7.79,11.91,17.01,11.91,27.65
		c0,11.02-3.92,20.46-11.77,28.32c-7.85,7.86-18.53,11.78-32.06,11.78h-26.39v53.56h-33.16V302.01z M351.22,326.31v30.86h15.46
		c13.81,0,20.71-5.14,20.71-15.43c0-5.78-1.85-9.79-5.54-12.05c-3.69-2.25-9.99-3.38-18.9-3.38H351.22z"/>
</g>
<path class="st0" d="M555.88,394.41v29.11c-16.63,8.85-34.04,13.27-52.25,13.27c-23.61,0-42.4-6.52-56.39-19.56
	c-13.99-13.04-20.99-29.1-20.99-48.2s7.37-35.31,22.11-48.63c14.74-13.32,34.01-19.99,57.79-19.99c18.96,0,35,3.9,48.13,11.71v29.61
	c-16.1-9.1-31.34-13.65-45.72-13.65c-14.13,0-25.68,3.79-34.65,11.37c-8.97,7.58-13.45,17.23-13.45,28.96
	c0,11.8,4.42,21.53,13.27,29.2c8.84,7.68,20.18,11.51,34.01,11.51c6.85,0,13.44-0.91,19.78-2.72
	C533.87,404.59,543.32,400.59,555.88,394.41z"/>
<path class="st0" d="M519.39,287.61c-1.59-23.73-7.06-46.6-16.33-68.51c-10.78-25.48-26.21-48.37-45.86-68.02
	c-18.2-18.2-39.17-32.77-62.4-43.39l-4.43,7.82c67.15,30.48,115.01,94.93,120.09,172.09"/>
<g>
	<path class="st0" d="M54.16,458.56h5.05v19.91c0,2.7-0.2,4.73-0.59,6.1c-0.39,1.37-0.88,2.52-1.46,3.43
		c-0.58,0.91-1.28,1.73-2.12,2.45c-2.78,2.39-6.41,3.59-10.9,3.59c-4.57,0-8.24-1.19-11-3.57c-0.84-0.74-1.54-1.56-2.12-2.47
		c-0.58-0.91-1.05-2.03-1.43-3.35c-0.38-1.32-0.57-3.4-0.57-6.23v-19.86h5.05v19.91c0,3.3,0.38,5.59,1.13,6.88
		c0.75,1.29,1.9,2.32,3.44,3.1c1.54,0.78,3.36,1.17,5.45,1.17c2.98,0,5.41-0.78,7.28-2.34c0.99-0.84,1.7-1.82,2.13-2.96
		c0.44-1.14,0.65-3.09,0.65-5.85V458.56z"/>
	<path class="st0" d="M92.29,458.56h4.77v35.08h-4.32l-23.45-27.02v27.02h-4.72v-35.08h4.07l23.65,27.25V458.56z"/>
	<path class="st0" d="M102.87,458.56h5.02v35.08h-5.02V458.56z"/>
	<path class="st0" d="M110.94,458.51h29.3v4.47h-12.23v30.66h-5.05v-30.66h-12.03V458.51z"/>
	<path class="st0" d="M143.24,458.56h19.89v4.47h-14.87v10.7h14.36v4.49h-14.36v10.9h15.34v4.47h-20.37V458.56z"/>
	<path class="st0" d="M167.26,493.59v-35.03h11.83c4.77,0,8.55,0.72,11.33,2.15c2.78,1.43,4.99,3.54,6.63,6.32
		c1.64,2.78,2.46,5.81,2.46,9.09c0,2.34-0.45,4.59-1.36,6.73c-0.9,2.14-2.19,4.03-3.87,5.65c-1.71,1.67-3.69,2.94-5.95,3.79
		c-1.32,0.52-2.54,0.87-3.64,1.04c-1.1,0.18-3.21,0.26-6.33,0.26H167.26z M178.56,463.03h-6.28v26.09h6.43
		c2.51,0,4.46-0.17,5.85-0.51c1.39-0.34,2.55-0.78,3.48-1.31c0.93-0.53,1.78-1.18,2.55-1.95c2.48-2.51,3.72-5.68,3.72-9.52
		c0-3.77-1.27-6.84-3.82-9.22c-0.94-0.89-2.01-1.62-3.23-2.18c-1.21-0.57-2.36-0.95-3.45-1.13
		C182.72,463.13,180.97,463.03,178.56,463.03z"/>
	<path class="st0" d="M216.57,458.56h5.02v30.51h15.79v4.57h-20.82V458.56z"/>
	<path class="st0" d="M251.23,458.36h3.53l15.73,35.28h-5.14l-4.68-10.4h-14.97l-4.38,10.4h-5.16L251.23,458.36z M258.61,478.78
		l-5.66-12.71l-5.25,12.71H258.61z"/>
	<path class="st0" d="M264.45,458.51h29.3v4.47h-12.23v30.66h-5.05v-30.66h-12.03V458.51z"/>
	<path class="st0" d="M296.8,458.56h5.02v35.08h-5.02V458.56z"/>
	<path class="st0" d="M335.73,458.56h4.77v35.08h-4.32l-23.45-27.02v27.02h-4.72v-35.08h4.07l23.65,27.25V458.56z"/>
	<path class="st0" d="M357.46,458.36h3.53l15.73,35.28h-5.14l-4.68-10.4h-14.97l-4.38,10.4h-5.16L357.46,458.36z M364.84,478.78
		l-5.66-12.71l-5.25,12.71H364.84z"/>
	<path class="st0" d="M406.72,458.56h4.7v35.08h-5.05v-27.3l-10.79,13.56h-0.93l-10.91-13.56v27.3h-5.02v-35.08h4.75l11.66,14.41
		L406.72,458.56z"/>
	<path class="st0" d="M417.22,458.56h19.89v4.47h-14.87v10.7h14.36v4.49h-14.36v10.9h15.34v4.47h-20.37V458.56z"/>
	<path class="st0" d="M441.34,493.64v-35.08h8.79c3.55,0,6.37,0.88,8.45,2.64c2.08,1.76,3.13,4.14,3.13,7.13
		c0,2.04-0.51,3.81-1.53,5.3c-1.02,1.49-2.49,2.6-4.39,3.34c1.12,0.74,2.22,1.74,3.29,3.01c1.07,1.27,2.58,3.49,4.52,6.65
		c1.22,1.99,2.2,3.49,2.94,4.49l1.86,2.51h-5.98l-1.53-2.31c-0.05-0.08-0.15-0.23-0.3-0.43l-0.98-1.38l-1.55-2.56l-1.68-2.74
		c-1.04-1.44-1.99-2.59-2.85-3.44c-0.86-0.85-1.64-1.47-2.34-1.84c-0.7-0.38-1.86-0.56-3.51-0.56h-1.31v15.27H441.34z
		 M447.87,462.83h-1.51v11.07h1.91c2.54,0,4.29-0.22,5.24-0.65c0.95-0.44,1.68-1.09,2.21-1.97c0.53-0.88,0.79-1.88,0.79-3
		c0-1.1-0.29-2.11-0.88-3c-0.59-0.9-1.41-1.53-2.47-1.9C452.09,463.02,450.33,462.83,447.87,462.83z"/>
	<path class="st0" d="M470.55,458.56h5.02v35.08h-5.02V458.56z"/>
	<path class="st0" d="M511.84,485.51v5.52c-3.68,2.01-7.94,3.01-12.76,3.01c-3.92,0-7.24-0.79-9.97-2.36
		c-2.73-1.57-4.89-3.74-6.48-6.5c-1.59-2.76-2.39-5.75-2.39-8.96c0-5.11,1.82-9.4,5.46-12.88c3.64-3.48,8.13-5.22,13.47-5.22
		c3.68,0,7.78,0.96,12.28,2.89v5.4c-4.1-2.34-8.11-3.52-12.03-3.52c-4.02,0-7.35,1.27-10.01,3.8c-2.65,2.54-3.98,5.71-3.98,9.53
		c0,3.85,1.31,7.01,3.92,9.49c2.61,2.48,5.95,3.72,10.02,3.72C503.64,489.42,507.79,488.12,511.84,485.51z"/>
	<path class="st0" d="M528.75,458.36h3.53l15.73,35.28h-5.14l-4.68-10.4h-14.97l-4.38,10.4h-5.16L528.75,458.36z M536.13,478.78
		l-5.66-12.71l-5.25,12.71H536.13z"/>
	<path class="st0" d="M577.98,458.56h4.77v35.08h-4.32l-23.45-27.02v27.02h-4.72v-35.08h4.07l23.65,27.25V458.56z"/>
	<path class="st0" d="M26.65,536.38v-35.13h11.12c3.35,0,6.02,0.9,8.01,2.71c1.99,1.81,2.99,4.24,2.99,7.28
		c0,2.04-0.51,3.85-1.53,5.42c-1.02,1.57-2.42,2.72-4.19,3.43c-1.77,0.71-4.32,1.07-7.63,1.07H31.7v15.22H26.65z M36.9,505.72h-5.2
		v10.97h5.5c2.04,0,3.62-0.48,4.72-1.44c1.1-0.96,1.66-2.34,1.66-4.13C43.58,507.52,41.35,505.72,36.9,505.72z"/>
	<path class="st0" d="M53.14,501.3h19.89v4.47H58.17v10.7h14.36v4.49H58.17v10.9h15.34v4.47H53.14V501.3z"/>
	<path class="st0" d="M106.73,501.3h4.77v35.08h-4.32l-23.45-27.02v27.02h-4.72V501.3h4.07l23.65,27.25V501.3z"/>
	<path class="st0" d="M116.02,501.25h29.3v4.47H133.1v30.66h-5.05v-30.66h-12.03V501.25z"/>
	<path class="st0" d="M150.07,501.3h19.89v4.47h-14.87v10.7h14.36v4.49h-14.36v10.9h15.34v4.47h-20.37V501.3z"/>
	<path class="st0" d="M206.02,528.25v5.52c-3.68,2.01-7.94,3.01-12.76,3.01c-3.92,0-7.24-0.79-9.97-2.36
		c-2.73-1.57-4.89-3.74-6.48-6.5c-1.59-2.76-2.39-5.75-2.39-8.96c0-5.11,1.82-9.4,5.46-12.88c3.64-3.48,8.13-5.22,13.47-5.22
		c3.68,0,7.78,0.96,12.28,2.89v5.4c-4.1-2.34-8.11-3.52-12.03-3.52c-4.02,0-7.35,1.27-10.01,3.8c-2.65,2.54-3.98,5.71-3.98,9.53
		c0,3.85,1.31,7.01,3.92,9.49c2.61,2.48,5.95,3.72,10.02,3.72C197.82,532.16,201.97,530.86,206.02,528.25z"/>
	<path class="st0" d="M229.41,500.8c5.42,0,9.93,1.72,13.54,5.15c3.61,3.43,5.41,7.73,5.41,12.91c0,5.17-1.82,9.45-5.46,12.84
		c-3.64,3.39-8.23,5.08-13.76,5.08c-5.29,0-9.69-1.7-13.21-5.08c-3.52-3.39-5.28-7.64-5.28-12.74c0-5.24,1.77-9.58,5.32-13.01
		C219.51,502.52,223.99,500.8,229.41,500.8z M229.61,505.57c-4.01,0-7.31,1.26-9.9,3.77c-2.58,2.51-3.88,5.72-3.88,9.62
		c0,3.78,1.3,6.93,3.89,9.44c2.59,2.51,5.84,3.77,9.73,3.77c3.91,0,7.18-1.28,9.8-3.84c2.62-2.56,3.93-5.75,3.93-9.57
		c0-3.72-1.31-6.84-3.93-9.38C236.64,506.84,233.42,505.57,229.61,505.57z"/>
	<path class="st0" d="M263.22,521.68l-3.82-2.32c-2.39-1.46-4.1-2.9-5.11-4.31c-1.01-1.41-1.52-3.04-1.52-4.88
		c0-2.76,0.96-5.01,2.88-6.73c1.92-1.72,4.41-2.59,7.47-2.59c2.93,0,5.62,0.82,8.06,2.47v5.7c-2.53-2.43-5.25-3.65-8.16-3.65
		c-1.64,0-2.99,0.38-4.04,1.14c-1.05,0.76-1.58,1.73-1.58,2.91c0,1.05,0.39,2.03,1.17,2.95c0.78,0.92,2.03,1.88,3.75,2.89l3.84,2.27
		c4.28,2.56,6.42,5.81,6.42,9.76c0,2.81-0.94,5.1-2.83,6.86c-1.88,1.76-4.33,2.64-7.35,2.64c-3.47,0-6.62-1.06-9.47-3.2v-6.38
		c2.71,3.44,5.85,5.15,9.42,5.15c1.57,0,2.88-0.44,3.93-1.31c1.05-0.88,1.57-1.97,1.57-3.29
		C267.84,525.62,266.3,523.6,263.22,521.68z"/>
	<path class="st0" d="M275.1,501.25h29.3v4.47h-12.23v30.66h-5.05v-30.66H275.1V501.25z"/>
	<path class="st0" d="M315.2,501.1h3.53l15.73,35.28h-5.14l-4.68-10.4h-14.97l-4.38,10.4h-5.16L315.2,501.1z M322.58,521.52
		l-5.66-12.71l-5.25,12.71H322.58z"/>
	<path class="st0" d="M338.31,501.3h5.02v30.51h15.79v4.57h-20.82V501.3z"/>
	<path class="st0" d="M408.04,528.25v5.52c-3.68,2.01-7.94,3.01-12.76,3.01c-3.92,0-7.24-0.79-9.97-2.36
		c-2.73-1.57-4.89-3.74-6.48-6.5c-1.59-2.76-2.39-5.75-2.39-8.96c0-5.11,1.82-9.4,5.46-12.88c3.64-3.48,8.13-5.22,13.47-5.22
		c3.68,0,7.78,0.96,12.28,2.89v5.4c-4.1-2.34-8.11-3.52-12.03-3.52c-4.02,0-7.35,1.27-10.01,3.8c-2.65,2.54-3.98,5.71-3.98,9.53
		c0,3.85,1.31,7.01,3.92,9.49c2.61,2.48,5.95,3.72,10.02,3.72C399.84,532.16,403.99,530.86,408.04,528.25z"/>
	<path class="st0" d="M438.95,501.3h5.02v35.08h-5.02v-15.27h-19.71v15.27h-5.02V501.3h5.02v15.17h19.71V501.3z"/>
	<path class="st0" d="M476.12,501.3h5.05v19.91c0,2.7-0.2,4.73-0.59,6.1c-0.39,1.37-0.88,2.52-1.46,3.43
		c-0.58,0.91-1.29,1.73-2.12,2.45c-2.78,2.39-6.41,3.59-10.9,3.59c-4.57,0-8.24-1.19-11-3.57c-0.84-0.74-1.54-1.56-2.12-2.47
		c-0.58-0.91-1.05-2.03-1.43-3.35c-0.38-1.32-0.57-3.4-0.57-6.23V501.3h5.05v19.91c0,3.3,0.38,5.59,1.13,6.88
		c0.75,1.29,1.9,2.32,3.44,3.1c1.54,0.78,3.36,1.17,5.45,1.17c2.98,0,5.41-0.78,7.28-2.34c0.99-0.84,1.7-1.82,2.13-2.96
		c0.44-1.14,0.65-3.09,0.65-5.85V501.3z"/>
	<path class="st0" d="M488.27,536.38V501.3h8.79c3.55,0,6.37,0.88,8.45,2.64c2.08,1.76,3.13,4.14,3.13,7.13
		c0,2.04-0.51,3.81-1.53,5.3c-1.02,1.49-2.49,2.6-4.39,3.34c1.12,0.74,2.22,1.74,3.29,3.01c1.07,1.27,2.58,3.49,4.52,6.65
		c1.22,1.99,2.2,3.49,2.94,4.49l1.86,2.51h-5.98l-1.53-2.31c-0.05-0.08-0.15-0.23-0.3-0.43l-0.98-1.38l-1.55-2.56l-1.68-2.74
		c-1.04-1.44-1.99-2.59-2.85-3.44c-0.86-0.85-1.64-1.47-2.34-1.84c-0.7-0.38-1.86-0.56-3.51-0.56h-1.31v15.27H488.27z M494.8,505.57
		h-1.51v11.07h1.91c2.54,0,4.29-0.22,5.24-0.65c0.95-0.44,1.68-1.09,2.21-1.97c0.53-0.88,0.79-1.88,0.79-3c0-1.1-0.29-2.11-0.88-3
		c-0.59-0.9-1.41-1.53-2.47-1.9C499.02,505.75,497.26,505.57,494.8,505.57z"/>
	<path class="st0" d="M549.41,528.25v5.52c-3.68,2.01-7.94,3.01-12.76,3.01c-3.92,0-7.24-0.79-9.97-2.36
		c-2.73-1.57-4.89-3.74-6.48-6.5c-1.59-2.76-2.39-5.75-2.39-8.96c0-5.11,1.82-9.4,5.46-12.88c3.64-3.48,8.13-5.22,13.47-5.22
		c3.68,0,7.78,0.96,12.28,2.89v5.4c-4.1-2.34-8.11-3.52-12.03-3.52c-4.02,0-7.35,1.27-10.01,3.8c-2.65,2.54-3.98,5.71-3.98,9.53
		c0,3.85,1.31,7.01,3.92,9.49c2.61,2.48,5.95,3.72,10.02,3.72C541.21,532.16,545.36,530.86,549.41,528.25z"/>
	<path class="st0" d="M580.33,501.3h5.02v35.08h-5.02v-15.27h-19.71v15.27h-5.02V501.3h5.02v15.17h19.71V501.3z"/>
</g>
</svg>
