<?xml version="1.0" encoding="utf-8"?>
<!-- Generator: Adobe Illustrator 24.0.1, SVG Export Plug-In . SVG Version: 6.00 Build 0)  -->
<svg version="1.1" id="Capa_1" xmlns="http://www.w3.org/2000/svg" xmlns:xlink="http://www.w3.org/1999/xlink" x="0px" y="0px"
	 viewBox="0 0 612 600.7" style="enable-background:new 0 0 612 600.7;" xml:space="preserve">
<style type="text/css">
	.st0{fill:#003160;}
</style>
<g>
	<g>
		<path class="st0" d="M231,287.4l2.9-15c48.4-29.9,139.7-24.8,139.7-24.8c38.5,7,30.6,0.8,30.6,0.8c-97.2-42.9-189,11.1-189,11.1
			c-15,9.8-12.9,12.2-12.9,12.2l7.1,6.3l-0.8,8.1h7.9C221.7,286.1,226.5,286.5,231,287.4z"/>
	</g>
	<g>
		<path class="st0" d="M403.5,217.9c0.9,0.5,2-0.4,1.6-1.4c-15.7-38.4-95-41-95-41c-49.5,0-81.6,20.6-90.8,28.6
			c-1.8,1.6-2.9,3.8-3.1,6.2l-1.2,12.3c-0.1,1.4,1.4,2.2,2.5,1.4C233,212.4,308.9,162.8,403.5,217.9z"/>
		<path class="st0" d="M364.6,66.9c0,0-7.6-4.4-58.7-35.2l10.9,13.5c0,0,6.9,8.8,0.2,8.1c0,0-36-6.3-78.4,13.6
			c0,0,17-11.8,38.2-24.8c0,0,20.3-14.6,24.9-27.9L364.6,66.9z"/>
		<g>
			<path class="st0" d="M245.4,177.3c0,0,11.8-6.9,34.6-10.1v-64.2c-10.1,1.8-20.2,5-29.7,9.9L245.4,177.3z"/>
			<path class="st0" d="M289.9,101.6V166c11.1-0.9,24.1-0.9,39.2,0.8v-64.3C317.1,100.9,303.6,100.2,289.9,101.6z"/>
			<path class="st0" d="M376.4,177l-5.3-64.2c0,0-13.1-5.2-32.2-8.7v64.1C350.4,170,362.9,172.8,376.4,177z"/>
		</g>
	</g>
	<path class="st0" d="M225.7,190.1l5.3-72.3c0,0-29.5-7.4-3.9-25.4c0,0,72.1-45.8,147.6-3.9c0,0,26.3,14.9,7.2,20.8l-2.1,0.1
		c-1.2,0.1-2.5-0.3-3.5-1.1c-5.5-4.3-29.8-15.7-69.5-15.5c0,0-49.7,1.2-63,16l-6.5,71.8c0,0-0.1,1.5-0.2,2.4
		C231.3,186.2,225.7,190.1,225.7,190.1z"/>
</g>
<g>
	<path class="st0" d="M154.6,151.1c-19.6,19.6-35.1,42.5-45.9,68c-9.4,22.1-14.8,45.4-16.4,69.4h8.9c5-73.9,49.3-137.2,112.2-169.1
		l-4.1-7.9C189.1,121.6,170.7,134.9,154.6,151.1z"/>
</g>
<g>
	<path class="st0" d="M195.4,562.7h3l-6.2,14.3h-0.9l-4.1-9.8l-4.1,9.8h-0.9l-6.3-14.3h3l3.7,8.5l3.6-8.5h2.1l3.5,8.5L195.4,562.7z"
		/>
	<path class="st0" d="M228.9,562.7h3l-6.2,14.3h-0.9l-4.1-9.8l-4.1,9.8h-0.9l-6.3-14.3h3l3.7,8.5l3.6-8.5h2.1l3.5,8.5L228.9,562.7z"
		/>
	<path class="st0" d="M262.3,562.7h3l-6.2,14.3h-0.9l-4.1-9.8L250,577h-0.9l-6.3-14.3h3l3.7,8.5l3.6-8.5h2.1l3.5,8.5L262.3,562.7z"
		/>
	<path class="st0" d="M277.8,573.3c0.5,0,1,0.2,1.3,0.5c0.4,0.4,0.5,0.8,0.5,1.3c0,0.5-0.2,0.9-0.5,1.3c-0.4,0.3-0.8,0.5-1.3,0.5
		c-0.5,0-1-0.2-1.3-0.5c-0.4-0.3-0.5-0.8-0.5-1.3c0-0.5,0.2-1,0.5-1.3C276.8,573.5,277.3,573.3,277.8,573.3z"/>
	<path class="st0" d="M295.6,556.8c0.5,0,0.9,0.2,1.2,0.5c0.3,0.3,0.5,0.7,0.5,1.2c0,0.5-0.2,0.8-0.5,1.2c-0.3,0.3-0.7,0.5-1.2,0.5
		c-0.4,0-0.8-0.2-1.1-0.5c-0.3-0.3-0.5-0.7-0.5-1.2c0-0.4,0.2-0.8,0.5-1.1C294.8,556.9,295.1,556.8,295.6,556.8z M294.2,562.7h2.8
		v14h-2.8V562.7z"/>
	<path class="st0" d="M311.8,583.9v-21.2h4.9c2.5,0,4.4,0.6,5.8,1.9s2.1,3,2.1,5.2c0,2.1-0.6,3.8-2,5.2s-3,2-5,2
		c-0.9,0-1.9-0.2-3-0.6v7.5L311.8,583.9L311.8,583.9z M316.6,565.3h-2v8.6c0.9,0.4,1.8,0.7,2.7,0.7c1.3,0,2.4-0.5,3.2-1.4
		c0.8-0.9,1.2-2.1,1.2-3.5c0-0.9-0.2-1.7-0.6-2.4c-0.4-0.7-0.9-1.2-1.6-1.5C318.9,565.5,317.9,565.3,316.6,565.3z"/>
	<path class="st0" d="M347.5,576.7v-1.8c-0.6,0.7-1.3,1.2-2,1.5c-0.8,0.4-1.5,0.5-2.3,0.5c-0.9,0-1.7-0.2-2.5-0.7s-1.3-1-1.7-1.8
		c-0.4-0.8-0.6-2-0.6-3.8v-8h2.8v8c0,1.5,0.2,2.5,0.6,3.1c0.4,0.6,1.2,0.9,2.2,0.9c1.3,0,2.5-0.7,3.4-1.9v-10h2.8v14L347.5,576.7
		L347.5,576.7z"/>
	<path class="st0" d="M365.2,555.4h2.8v21.3h-2.8V555.4z"/>
	<path class="st0" d="M384.4,573.3c0.5,0,1,0.2,1.3,0.5c0.4,0.4,0.5,0.8,0.5,1.3c0,0.5-0.2,0.9-0.5,1.3c-0.4,0.3-0.8,0.5-1.3,0.5
		c-0.5,0-1-0.2-1.3-0.5c-0.4-0.3-0.5-0.8-0.5-1.3c0-0.5,0.2-1,0.5-1.3C383.4,573.5,383.9,573.3,384.4,573.3z"/>
	<path class="st0" d="M409.7,576.7v-1.8c-0.6,0.7-1.3,1.2-2,1.5c-0.8,0.4-1.5,0.5-2.3,0.5c-0.9,0-1.7-0.2-2.5-0.7s-1.3-1-1.7-1.8
		c-0.4-0.8-0.6-2-0.6-3.8v-8h2.8v8c0,1.5,0.2,2.5,0.6,3.1c0.4,0.6,1.2,0.9,2.2,0.9c1.3,0,2.5-0.7,3.4-1.9v-10h2.8v14L409.7,576.7
		L409.7,576.7z"/>
	<path class="st0" d="M426.6,575.7v-3c0.8,0.5,1.6,1,2.4,1.3s1.5,0.5,2.1,0.5c0.6,0,1.1-0.1,1.5-0.4c0.4-0.3,0.6-0.6,0.6-1
		c0-0.4-0.1-0.8-0.4-1c-0.3-0.3-0.9-0.7-1.8-1.2c-1.8-1-3-1.8-3.5-2.6c-0.6-0.7-0.8-1.5-0.8-2.3c0-1.1,0.4-2,1.3-2.6s1.9-1,3.2-1
		c1.4,0,2.8,0.4,4.2,1.2v2.8c-1.6-1-3-1.5-4-1.5c-0.5,0-1,0.1-1.3,0.3c-0.3,0.2-0.5,0.5-0.5,0.9c0,0.3,0.1,0.6,0.5,0.9
		c0.3,0.3,0.8,0.7,1.6,1.1l1,0.6c2.3,1.3,3.5,2.8,3.5,4.4c0,1.2-0.5,2.1-1.4,2.8s-2.1,1.1-3.5,1.1c-0.8,0-1.6-0.1-2.2-0.3
		C428.4,576.5,427.6,576.2,426.6,575.7z"/>
</g>
<g>
	<path class="st0" d="M160.5,302h33.2v75.5c0,19.4-5.7,34.2-17.2,44.2c-11.5,10-27.9,15-49.2,15c-21.1,0-37.4-5.1-49.1-15.2
		s-17.5-24.8-17.5-43.8V302h33.2v76.5c0,9.3,3,16.7,9.1,22.3c6.1,5.6,14,8.4,23.9,8.4c10.2,0,18.4-2.9,24.5-8.6
		c6.1-5.7,9.2-13.8,9.2-24.4L160.5,302L160.5,302z"/>
	<path class="st0" d="M311.2,410.7V435H209.8V302h33.2v108.7L311.2,410.7L311.2,410.7z"/>
	<path class="st0" d="M318.1,302h59.4c13.5,0,24.2,3.9,32.1,11.7c7.9,7.8,11.9,17,11.9,27.6c0,11-3.9,20.5-11.8,28.3
		c-7.9,7.9-18.5,11.8-32.1,11.8h-26.4V435h-33.2L318.1,302L318.1,302z M351.2,326.3v30.9h15.5c13.8,0,20.7-5.1,20.7-15.4
		c0-5.8-1.9-9.8-5.5-12c-3.7-2.2-10-3.4-18.9-3.4H351.2z"/>
</g>
<path class="st0" d="M555.9,394.4v29.1c-16.6,8.9-34,13.3-52.2,13.3c-23.6,0-42.4-6.5-56.4-19.6c-14-13-21-29.1-21-48.2
	s7.4-35.3,22.1-48.6s34-20,57.8-20c19,0,35,3.9,48.1,11.7v29.6c-16.1-9.1-31.3-13.6-45.7-13.6c-14.1,0-25.7,3.8-34.6,11.4
	s-13.5,17.2-13.5,29c0,11.8,4.4,21.5,13.3,29.2c8.8,7.7,20.2,11.5,34,11.5c6.9,0,13.4-0.9,19.8-2.7
	C533.9,404.6,543.3,400.6,555.9,394.4z"/>
<path class="st0" d="M519.4,287.6c-1.6-23.7-7.1-46.6-16.3-68.5c-10.8-25.5-26.2-48.4-45.9-68c-18.2-18.2-39.2-32.8-62.4-43.4
	l-4.4,7.8c67.1,30.5,115,94.9,120.1,172.1"/>
<g>
	<path class="st0" d="M54.2,458.6h5v19.9c0,2.7-0.2,4.7-0.6,6.1s-0.9,2.5-1.5,3.4c-0.6,0.9-1.3,1.7-2.1,2.5
		c-2.8,2.4-6.4,3.6-10.9,3.6c-4.6,0-8.2-1.2-11-3.6c-0.8-0.7-1.5-1.6-2.1-2.5c-0.6-0.9-1-2-1.4-3.4c-0.4-1.3-0.6-3.4-0.6-6.2v-19.9
		h5v19.9c0,3.3,0.4,5.6,1.1,6.9s1.9,2.3,3.4,3.1c1.5,0.8,3.4,1.2,5.5,1.2c3,0,5.4-0.8,7.3-2.3c1-0.8,1.7-1.8,2.1-3
		c0.4-1.1,0.7-3.1,0.7-5.9L54.2,458.6L54.2,458.6z"/>
	<path class="st0" d="M92.3,458.6h4.8v35.1h-4.3l-23.5-27v27h-4.7v-35.1h4.1l23.7,27.2C92.3,485.8,92.3,458.6,92.3,458.6z"/>
	<path class="st0" d="M102.9,458.6h5v35.1h-5V458.6z"/>
	<path class="st0" d="M110.9,458.5h29.3v4.5H128v30.7H123V463h-12L110.9,458.5L110.9,458.5z"/>
	<path class="st0" d="M143.2,458.6h19.9v4.5h-14.9v10.7h14.4v4.5h-14.4v10.9h15.3v4.5h-20.4L143.2,458.6L143.2,458.6z"/>
	<path class="st0" d="M167.3,493.6v-35h11.8c4.8,0,8.6,0.7,11.3,2.1s5,3.5,6.6,6.3s2.5,5.8,2.5,9.1c0,2.3-0.4,4.6-1.4,6.7
		c-0.9,2.1-2.2,4-3.9,5.6c-1.7,1.7-3.7,2.9-5.9,3.8c-1.3,0.5-2.5,0.9-3.6,1c-1.1,0.2-3.2,0.3-6.3,0.3L167.3,493.6L167.3,493.6z
		 M178.6,463h-6.3v26.1h6.4c2.5,0,4.5-0.2,5.9-0.5s2.6-0.8,3.5-1.3s1.8-1.2,2.6-2c2.5-2.5,3.7-5.7,3.7-9.5c0-3.8-1.3-6.8-3.8-9.2
		c-0.9-0.9-2-1.6-3.2-2.2c-1.2-0.6-2.4-1-3.4-1.1C182.7,463.1,181,463,178.6,463z"/>
	<path class="st0" d="M216.6,458.6h5v30.5h15.8v4.6h-20.8L216.6,458.6L216.6,458.6z"/>
	<path class="st0" d="M251.2,458.4h3.5l15.7,35.3h-5.1l-4.7-10.4h-15l-4.4,10.4h-5.2L251.2,458.4z M258.6,478.8l-5.7-12.7l-5.2,12.7
		H258.6z"/>
	<path class="st0" d="M264.5,458.5h29.3v4.5h-12.2v30.7h-5V463h-12L264.5,458.5L264.5,458.5z"/>
	<path class="st0" d="M296.8,458.6h5v35.1h-5V458.6z"/>
	<path class="st0" d="M335.7,458.6h4.8v35.1h-4.3l-23.5-27v27H308v-35.1h4.1l23.6,27.2L335.7,458.6L335.7,458.6z"/>
	<path class="st0" d="M357.5,458.4h3.5l15.7,35.3h-5.1l-4.7-10.4h-15l-4.4,10.4h-5.2L357.5,458.4z M364.8,478.8l-5.7-12.7l-5.2,12.7
		H364.8z"/>
	<path class="st0" d="M406.7,458.6h4.7v35.1h-5v-27.3l-10.8,13.6h-0.9l-10.9-13.6v27.3h-5v-35.1h4.8l11.7,14.4L406.7,458.6z"/>
	<path class="st0" d="M417.2,458.6h19.9v4.5h-14.9v10.7h14.4v4.5h-14.4v10.9h15.3v4.5h-20.4L417.2,458.6L417.2,458.6z"/>
	<path class="st0" d="M441.3,493.6v-35.1h8.8c3.5,0,6.4,0.9,8.5,2.6c2.1,1.8,3.1,4.1,3.1,7.1c0,2-0.5,3.8-1.5,5.3s-2.5,2.6-4.4,3.3
		c1.1,0.7,2.2,1.7,3.3,3c1.1,1.3,2.6,3.5,4.5,6.6c1.2,2,2.2,3.5,2.9,4.5l1.9,2.5h-6l-1.5-2.3c0-0.1-0.1-0.2-0.3-0.4l-1-1.4l-1.5-2.6
		l-1.7-2.7c-1-1.4-2-2.6-2.9-3.4c-0.9-0.9-1.6-1.5-2.3-1.8c-0.7-0.4-1.9-0.6-3.5-0.6h-1.3v15.3H441.3z M447.9,462.8h-1.5v11.1h1.9
		c2.5,0,4.3-0.2,5.2-0.6c1-0.4,1.7-1.1,2.2-2s0.8-1.9,0.8-3c0-1.1-0.3-2.1-0.9-3c-0.6-0.9-1.4-1.5-2.5-1.9
		C452.1,463,450.3,462.8,447.9,462.8z"/>
	<path class="st0" d="M470.5,458.6h5v35.1h-5V458.6z"/>
	<path class="st0" d="M511.8,485.5v5.5c-3.7,2-7.9,3-12.8,3c-3.9,0-7.2-0.8-10-2.4c-2.7-1.6-4.9-3.7-6.5-6.5s-2.4-5.8-2.4-9
		c0-5.1,1.8-9.4,5.5-12.9c3.6-3.5,8.1-5.2,13.5-5.2c3.7,0,7.8,1,12.3,2.9v5.4c-4.1-2.3-8.1-3.5-12-3.5c-4,0-7.4,1.3-10,3.8
		c-2.6,2.5-4,5.7-4,9.5c0,3.9,1.3,7,3.9,9.5c2.6,2.5,6,3.7,10,3.7C503.6,489.4,507.8,488.1,511.8,485.5z"/>
	<path class="st0" d="M528.8,458.4h3.5l15.7,35.3h-5.1l-4.7-10.4h-15l-4.4,10.4h-5.2L528.8,458.4z M536.1,478.8l-5.7-12.7l-5.2,12.7
		H536.1z"/>
	<path class="st0" d="M578,458.6h4.8v35.1h-4.3l-23.5-27v27h-4.7v-35.1h4.1l23.7,27.2L578,458.6L578,458.6z"/>
	<path class="st0" d="M26.6,536.4v-35.1h11.1c3.3,0,6,0.9,8,2.7c2,1.8,3,4.2,3,7.3c0,2-0.5,3.8-1.5,5.4s-2.4,2.7-4.2,3.4
		c-1.8,0.7-4.3,1.1-7.6,1.1h-3.7v15.2L26.6,536.4L26.6,536.4z M36.9,505.7h-5.2v11h5.5c2,0,3.6-0.5,4.7-1.4c1.1-1,1.7-2.3,1.7-4.1
		C43.6,507.5,41.3,505.7,36.9,505.7z"/>
	<path class="st0" d="M53.1,501.3H73v4.5H58.2v10.7h14.4v4.5H58.2v10.9h15.3v4.5H53.1V501.3z"/>
	<path class="st0" d="M106.7,501.3h4.8v35.1h-4.3l-23.5-27v27H79v-35.1h4.1l23.7,27.2C106.7,528.5,106.7,501.3,106.7,501.3z"/>
	<path class="st0" d="M116,501.2h29.3v4.5h-12.2v30.7h-5.1v-30.7h-12C116,505.7,116,501.2,116,501.2z"/>
	<path class="st0" d="M150.1,501.3H170v4.5h-14.9v10.7h14.4v4.5h-14.4v10.9h15.3v4.5h-20.4L150.1,501.3L150.1,501.3z"/>
	<path class="st0" d="M206,528.2v5.5c-3.7,2-7.9,3-12.8,3c-3.9,0-7.2-0.8-10-2.4s-4.9-3.7-6.5-6.5s-2.4-5.8-2.4-9
		c0-5.1,1.8-9.4,5.5-12.9s8.1-5.2,13.5-5.2c3.7,0,7.8,1,12.3,2.9v5.4c-4.1-2.3-8.1-3.5-12-3.5c-4,0-7.4,1.3-10,3.8
		c-2.6,2.5-4,5.7-4,9.5c0,3.8,1.3,7,3.9,9.5s5.9,3.7,10,3.7C197.8,532.2,202,530.9,206,528.2z"/>
	<path class="st0" d="M229.4,500.8c5.4,0,9.9,1.7,13.5,5.1s5.4,7.7,5.4,12.9c0,5.2-1.8,9.5-5.5,12.8s-8.2,5.1-13.8,5.1
		c-5.3,0-9.7-1.7-13.2-5.1c-3.5-3.4-5.3-7.6-5.3-12.7c0-5.2,1.8-9.6,5.3-13C219.5,502.5,224,500.8,229.4,500.8z M229.6,505.6
		c-4,0-7.3,1.3-9.9,3.8c-2.6,2.5-3.9,5.7-3.9,9.6c0,3.8,1.3,6.9,3.9,9.4s5.8,3.8,9.7,3.8c3.9,0,7.2-1.3,9.8-3.8
		c2.6-2.6,3.9-5.8,3.9-9.6c0-3.7-1.3-6.8-3.9-9.4C236.6,506.8,233.4,505.6,229.6,505.6z"/>
	<path class="st0" d="M263.2,521.7l-3.8-2.3c-2.4-1.5-4.1-2.9-5.1-4.3s-1.5-3-1.5-4.9c0-2.8,1-5,2.9-6.7c1.9-1.7,4.4-2.6,7.5-2.6
		c2.9,0,5.6,0.8,8.1,2.5v5.7c-2.5-2.4-5.2-3.6-8.2-3.6c-1.6,0-3,0.4-4,1.1c-1,0.8-1.6,1.7-1.6,2.9c0,1,0.4,2,1.2,2.9s2,1.9,3.8,2.9
		l3.8,2.3c4.3,2.6,6.4,5.8,6.4,9.8c0,2.8-0.9,5.1-2.8,6.9c-1.9,1.8-4.3,2.6-7.4,2.6c-3.5,0-6.6-1.1-9.5-3.2v-6.4
		c2.7,3.4,5.9,5.2,9.4,5.2c1.6,0,2.9-0.4,3.9-1.3c1-0.9,1.6-2,1.6-3.3C267.8,525.6,266.3,523.6,263.2,521.7z"/>
	<path class="st0" d="M275.1,501.2h29.3v4.5h-12.2v30.7h-5v-30.7h-12V501.2z"/>
	<path class="st0" d="M315.2,501.1h3.5l15.7,35.3h-5.1l-4.7-10.4h-15l-4.4,10.4h-5.2L315.2,501.1z M322.6,521.5l-5.7-12.7l-5.2,12.7
		H322.6z"/>
	<path class="st0" d="M338.3,501.3h5v30.5h15.8v4.6h-20.8L338.3,501.3L338.3,501.3z"/>
	<path class="st0" d="M408,528.2v5.5c-3.7,2-7.9,3-12.8,3c-3.9,0-7.2-0.8-10-2.4s-4.9-3.7-6.5-6.5s-2.4-5.8-2.4-9
		c0-5.1,1.8-9.4,5.5-12.9c3.6-3.5,8.1-5.2,13.5-5.2c3.7,0,7.8,1,12.3,2.9v5.4c-4.1-2.3-8.1-3.5-12-3.5c-4,0-7.4,1.3-10,3.8
		c-2.6,2.5-4,5.7-4,9.5c0,3.8,1.3,7,3.9,9.5c2.6,2.5,6,3.7,10,3.7C399.8,532.2,404,530.9,408,528.2z"/>
	<path class="st0" d="M439,501.3h5v35.1h-5v-15.3h-19.7v15.3h-5v-35.1h5v15.2H439V501.3z"/>
	<path class="st0" d="M476.1,501.3h5v19.9c0,2.7-0.2,4.7-0.6,6.1c-0.4,1.4-0.9,2.5-1.5,3.4s-1.3,1.7-2.1,2.5
		c-2.8,2.4-6.4,3.6-10.9,3.6c-4.6,0-8.2-1.2-11-3.6c-0.8-0.7-1.5-1.6-2.1-2.5s-1-2-1.4-3.3c-0.4-1.3-0.6-3.4-0.6-6.2v-19.9h5v19.9
		c0,3.3,0.4,5.6,1.1,6.9s1.9,2.3,3.4,3.1c1.5,0.8,3.4,1.2,5.5,1.2c3,0,5.4-0.8,7.3-2.3c1-0.8,1.7-1.8,2.1-3c0.4-1.1,0.6-3.1,0.6-5.8
		L476.1,501.3L476.1,501.3z"/>
	<path class="st0" d="M488.3,536.4v-35.1h8.8c3.5,0,6.4,0.9,8.5,2.6c2.1,1.8,3.1,4.1,3.1,7.1c0,2-0.5,3.8-1.5,5.3s-2.5,2.6-4.4,3.3
		c1.1,0.7,2.2,1.7,3.3,3s2.6,3.5,4.5,6.7c1.2,2,2.2,3.5,2.9,4.5l1.9,2.5h-6l-1.5-2.3c0-0.1-0.1-0.2-0.3-0.4l-1-1.4l-1.5-2.6
		l-1.7-2.7c-1-1.4-2-2.6-2.9-3.4c-0.9-0.8-1.6-1.5-2.3-1.8c-0.7-0.4-1.9-0.6-3.5-0.6h-1.3v15.3L488.3,536.4L488.3,536.4z
		 M494.8,505.6h-1.5v11.1h1.9c2.5,0,4.3-0.2,5.2-0.7c1-0.4,1.7-1.1,2.2-2c0.5-0.9,0.8-1.9,0.8-3c0-1.1-0.3-2.1-0.9-3
		c-0.6-0.9-1.4-1.5-2.5-1.9C499,505.8,497.3,505.6,494.8,505.6z"/>
	<path class="st0" d="M549.4,528.2v5.5c-3.7,2-7.9,3-12.8,3c-3.9,0-7.2-0.8-10-2.4s-4.9-3.7-6.5-6.5c-1.6-2.8-2.4-5.8-2.4-9
		c0-5.1,1.8-9.4,5.5-12.9s8.1-5.2,13.5-5.2c3.7,0,7.8,1,12.3,2.9v5.4c-4.1-2.3-8.1-3.5-12-3.5c-4,0-7.3,1.3-10,3.8
		c-2.7,2.5-4,5.7-4,9.5c0,3.8,1.3,7,3.9,9.5s6,3.7,10,3.7C541.2,532.2,545.4,530.9,549.4,528.2z"/>
	<path class="st0" d="M580.3,501.3h5v35.1h-5v-15.3h-19.7v15.3h-5v-35.1h5v15.2h19.7V501.3z"/>
</g>
</svg>
