<?xml version="1.0" encoding="utf-8"?>
<!-- Generator: Adobe Illustrator 24.3.0, SVG Export Plug-In . SVG Version: 6.00 Build 0)  -->
<svg version="1.1" id="Capa_1" xmlns="http://www.w3.org/2000/svg" xmlns:xlink="http://www.w3.org/1999/xlink" x="0px" y="0px"
	 viewBox="0 0 792 184.45" style="enable-background:new 0 0 792 184.45;" xml:space="preserve">
<style type="text/css">
	.st0{fill:#F6F6F6;}
</style>
<g>
	<g>
		<path class="st0" d="M200.82,56.16h5.51v38.48h-5.51V56.16z"/>
		<path class="st0" d="M235.66,75.68h12.92v16.31c-4.74,2.06-9.44,3.08-14.1,3.08c-6.37,0-11.46-1.86-15.27-5.58
			c-3.81-3.72-5.72-8.3-5.72-13.76c0-5.75,1.97-10.53,5.92-14.35c3.95-3.82,8.9-5.73,14.85-5.73c2.17,0,4.22,0.23,6.17,0.7
			c1.95,0.47,4.41,1.33,7.38,2.58v5.62c-4.59-2.66-9.14-3.99-13.66-3.99c-4.21,0-7.75,1.43-10.63,4.3
			c-2.88,2.86-4.32,6.38-4.32,10.55c0,4.37,1.44,7.94,4.32,10.71c2.88,2.77,6.59,4.16,11.13,4.16c2.2,0,4.84-0.5,7.9-1.51l0.52-0.17
			v-8.01h-7.41V75.68z"/>
		<path class="st0" d="M256.62,56.16h5.51v33.46h17.32v5.01h-22.83V56.16z"/>
		<path class="st0" d="M284.27,56.16h21.81v4.9h-16.31v11.73h15.75v4.93h-15.75v11.95h16.83v4.9h-22.34V56.16z"/>
		<path class="st0" d="M322,78.51l-4.19-2.54c-2.63-1.6-4.49-3.18-5.6-4.73c-1.11-1.55-1.67-3.34-1.67-5.36
			c0-3.03,1.05-5.49,3.15-7.38c2.1-1.89,4.83-2.84,8.19-2.84c3.21,0,6.16,0.9,8.84,2.71v6.25c-2.77-2.67-5.76-4-8.95-4
			c-1.8,0-3.28,0.42-4.43,1.25s-1.74,1.9-1.74,3.2c0,1.15,0.43,2.23,1.28,3.24c0.85,1.01,2.22,2.06,4.11,3.17l4.21,2.49
			c4.69,2.8,7.04,6.37,7.04,10.7c0,3.08-1.03,5.59-3.1,7.52c-2.07,1.93-4.75,2.89-8.06,2.89c-3.8,0-7.26-1.17-10.38-3.5v-7
			c2.97,3.77,6.42,5.65,10.33,5.65c1.73,0,3.16-0.48,4.31-1.44c1.15-0.96,1.72-2.16,1.72-3.61C327.07,82.83,325.38,80.61,322,78.51z
			"/>
		<path class="st0" d="M338.36,56.16h5.51v38.48h-5.51V56.16z"/>
		<path class="st0" d="M364.7,55.93h3.87l17.25,38.7h-5.64l-5.13-11.4h-16.42l-4.81,11.4h-5.66L364.7,55.93z M372.79,78.33
			l-6.21-13.94l-5.76,13.94H372.79z"/>
		<path class="st0" d="M405.4,94.63V56.1h12.2c3.67,0,6.6,0.99,8.79,2.97c2.18,1.98,3.28,4.65,3.28,7.99c0,2.24-0.56,4.22-1.68,5.95
			c-1.12,1.73-2.65,2.98-4.6,3.76c-1.95,0.78-4.74,1.17-8.37,1.17h-4.08v16.69H405.4z M416.64,61h-5.7v12.04h6.03
			c2.24,0,3.97-0.53,5.18-1.58c1.21-1.06,1.82-2.57,1.82-4.53C423.97,62.98,421.52,61,416.64,61z"/>
		<path class="st0" d="M434.46,56.16h21.81v4.9h-16.31v11.73h15.75v4.93h-15.75v11.95h16.83v4.9h-22.34V56.16z"/>
		<path class="st0" d="M493.24,56.16h5.23v38.48h-4.74L468.01,65v29.63h-5.18V56.16h4.46l25.95,29.89V56.16z"/>
		<path class="st0" d="M503.43,56.1h32.14V61h-13.41v33.63h-5.54V61h-13.19V56.1z"/>
		<path class="st0" d="M540.78,56.16h21.81v4.9h-16.31v11.73h15.75v4.93h-15.75v11.95h16.83v4.9h-22.34V56.16z"/>
		<path class="st0" d="M602.14,85.71v6.06c-4.04,2.2-8.7,3.31-13.99,3.31c-4.3,0-7.94-0.86-10.93-2.59
			c-2.99-1.73-5.36-4.1-7.11-7.13c-1.74-3.03-2.62-6.31-2.62-9.83c0-5.6,2-10.31,5.99-14.13c3.99-3.82,8.92-5.73,14.78-5.73
			c4.04,0,8.53,1.06,13.47,3.17v5.92c-4.5-2.57-8.9-3.86-13.19-3.86c-4.41,0-8.07,1.39-10.98,4.17c-2.91,2.78-4.37,6.27-4.37,10.45
			c0,4.22,1.43,7.69,4.3,10.41c2.86,2.72,6.53,4.08,10.99,4.08C593.14,90.01,597.7,88.57,602.14,85.71z"/>
		<path class="st0" d="M627.8,55.6c5.95,0,10.89,1.88,14.85,5.65c3.95,3.76,5.93,8.48,5.93,14.16c0,5.67-2,10.37-5.99,14.09
			c-3.99,3.72-9.02,5.58-15.1,5.58c-5.8,0-10.63-1.86-14.49-5.58c-3.86-3.72-5.79-8.38-5.79-13.98c0-5.75,1.94-10.5,5.84-14.27
			C616.93,57.49,621.85,55.6,627.8,55.6z M628.02,60.84c-4.4,0-8.02,1.38-10.86,4.13c-2.83,2.75-4.25,6.27-4.25,10.55
			c0,4.15,1.42,7.6,4.27,10.36c2.84,2.75,6.4,4.13,10.68,4.13c4.29,0,7.87-1.4,10.75-4.21c2.87-2.81,4.31-6.31,4.31-10.49
			c0-4.08-1.44-7.51-4.31-10.29C635.73,62.23,632.2,60.84,628.02,60.84z"/>
		<path class="st0" d="M664.88,78.51l-4.19-2.54c-2.63-1.6-4.49-3.18-5.6-4.73c-1.11-1.55-1.67-3.34-1.67-5.36
			c0-3.03,1.05-5.49,3.15-7.38c2.1-1.89,4.83-2.84,8.19-2.84c3.21,0,6.16,0.9,8.84,2.71v6.25c-2.77-2.67-5.76-4-8.95-4
			c-1.8,0-3.28,0.42-4.43,1.25s-1.74,1.9-1.74,3.2c0,1.15,0.43,2.23,1.28,3.24c0.85,1.01,2.22,2.06,4.11,3.17l4.21,2.49
			c4.69,2.8,7.04,6.37,7.04,10.7c0,3.08-1.03,5.59-3.1,7.52c-2.07,1.93-4.75,2.89-8.06,2.89c-3.8,0-7.26-1.17-10.38-3.5v-7
			c2.97,3.77,6.42,5.65,10.33,5.65c1.73,0,3.16-0.48,4.31-1.44c1.15-0.96,1.72-2.16,1.72-3.61
			C669.95,82.83,668.26,80.61,664.88,78.51z"/>
		<path class="st0" d="M677.91,56.1h32.14V61h-13.41v33.63h-5.54V61h-13.19V56.1z"/>
		<path class="st0" d="M721.9,55.93h3.87l17.25,38.7h-5.64l-5.13-11.4h-16.42l-4.81,11.4h-5.66L721.9,55.93z M729.99,78.33
			l-6.21-13.94l-5.76,13.94H729.99z"/>
		<path class="st0" d="M747.24,56.16h5.51v33.46h17.32v5.01h-22.83V56.16z"/>
		<path class="st0" d="M221.83,102.72h4.52v17.82c0,2.41-0.18,4.23-0.53,5.46c-0.35,1.23-0.79,2.25-1.3,3.07
			c-0.52,0.82-1.15,1.55-1.9,2.19c-2.49,2.14-5.74,3.21-9.75,3.21c-4.09,0-7.37-1.06-9.84-3.19c-0.75-0.66-1.38-1.4-1.9-2.21
			c-0.52-0.82-0.94-1.82-1.28-3c-0.34-1.18-0.51-3.04-0.51-5.57v-17.78h4.52v17.82c0,2.95,0.34,5,1.01,6.16
			c0.67,1.15,1.7,2.08,3.08,2.78c1.38,0.7,3,1.05,4.88,1.05c2.67,0,4.84-0.7,6.52-2.09c0.88-0.75,1.52-1.63,1.91-2.65
			c0.39-1.02,0.58-2.76,0.58-5.24V102.72z"/>
		<path class="st0" d="M257.52,102.72h4.27v31.4h-3.87l-20.99-24.18v24.18h-4.23v-31.4h3.64l21.17,24.39V102.72z"/>
		<path class="st0" d="M268.55,102.72h4.5v31.4h-4.5V102.72z"/>
		<path class="st0" d="M280.06,134.07v-31.35h10.59c4.27,0,7.65,0.64,10.14,1.92c2.49,1.28,4.46,3.17,5.93,5.65
			c1.47,2.49,2.2,5.2,2.2,8.14c0,2.1-0.4,4.11-1.21,6.02c-0.81,1.92-1.96,3.6-3.46,5.06c-1.53,1.5-3.3,2.63-5.33,3.39
			c-1.18,0.46-2.27,0.78-3.26,0.93c-0.99,0.16-2.88,0.24-5.66,0.24H280.06z M290.17,106.72h-5.62v23.35h5.75
			c2.25,0,3.99-0.15,5.24-0.46c1.24-0.31,2.28-0.7,3.11-1.17c0.83-0.47,1.59-1.05,2.28-1.74c2.22-2.25,3.33-5.09,3.33-8.52
			c0-3.37-1.14-6.12-3.42-8.25c-0.84-0.79-1.8-1.45-2.89-1.96c-1.09-0.51-2.12-0.85-3.09-1.01
			C293.89,106.8,292.33,106.72,290.17,106.72z"/>
		<path class="st0" d="M322.02,102.54h3.16l14.08,31.58h-4.6l-4.18-9.3h-13.4l-3.92,9.3h-4.62L322.02,102.54z M328.62,120.81
			l-5.07-11.37l-4.7,11.37H328.62z"/>
		<path class="st0" d="M355.48,102.72h4.49v27.31h14.14v4.09h-18.63V102.72z"/>
		<path class="st0" d="M388.07,102.54h3.16l14.08,31.58h-4.6l-4.18-9.3h-13.4l-3.92,9.3h-4.62L388.07,102.54z M394.68,120.81
			l-5.07-11.37l-4.7,11.37H394.68z"/>
		<path class="st0" d="M401.47,102.68h26.23v4h-10.95v27.44h-4.52v-27.44h-10.77V102.68z"/>
		<path class="st0" d="M431.99,102.72h4.5v31.4h-4.5V102.72z"/>
		<path class="st0" d="M468.4,102.72h4.27v31.4h-3.87l-20.99-24.18v24.18h-4.23v-31.4h3.64l21.17,24.39V102.72z"/>
		<path class="st0" d="M494.79,102.27c4.85,0,8.89,1.54,12.12,4.61c3.23,3.07,4.84,6.92,4.84,11.55c0,4.63-1.63,8.46-4.89,11.5
			c-3.26,3.03-7.36,4.55-12.32,4.55c-4.73,0-8.67-1.52-11.83-4.55c-3.15-3.03-4.73-6.84-4.73-11.41c0-4.69,1.59-8.57,4.76-11.64
			C485.93,103.81,489.94,102.27,494.79,102.27z M494.97,106.54c-3.59,0-6.55,1.12-8.86,3.37c-2.31,2.25-3.47,5.12-3.47,8.61
			c0,3.39,1.16,6.2,3.48,8.45c2.32,2.25,5.22,3.37,8.71,3.37c3.5,0,6.43-1.15,8.77-3.44c2.34-2.29,3.51-5.15,3.51-8.56
			c0-3.33-1.17-6.12-3.51-8.39C501.27,107.68,498.39,106.54,494.97,106.54z"/>
		<path class="st0" d="M525.46,102.54h3.16l14.08,31.58h-4.6l-4.18-9.3h-13.4l-3.92,9.3h-4.62L525.46,102.54z M532.07,120.81
			L527,109.44l-4.7,11.37H532.07z"/>
		<path class="st0" d="M571.11,102.72h4.2v31.4h-4.52v-24.43l-9.65,12.14h-0.83l-9.77-12.14v24.43h-4.5v-31.4h4.26l10.43,12.89
			L571.11,102.72z"/>
		<path class="st0" d="M582.08,102.72h17.8v4h-13.31v9.57h12.86v4.02h-12.86v9.75h13.73v4h-18.23V102.72z"/>
		<path class="st0" d="M605.23,134.12v-31.4h7.87c3.18,0,5.7,0.79,7.56,2.36c1.87,1.57,2.8,3.7,2.8,6.38c0,1.83-0.46,3.41-1.37,4.74
			c-0.91,1.33-2.23,2.33-3.93,2.99c1,0.66,1.99,1.56,2.94,2.7c0.96,1.14,2.31,3.12,4.05,5.96c1.09,1.78,1.97,3.12,2.63,4.02
			l1.66,2.25h-5.35l-1.37-2.07c-0.04-0.07-0.13-0.2-0.27-0.38l-0.88-1.24l-1.39-2.29l-1.5-2.45c-0.93-1.29-1.78-2.32-2.55-3.08
			c-0.77-0.76-1.47-1.31-2.09-1.65c-0.62-0.34-1.67-0.5-3.14-0.5h-1.17v13.66H605.23z M611.07,106.54h-1.35v9.91h1.71
			c2.28,0,3.84-0.19,4.69-0.58c0.85-0.39,1.51-0.98,1.98-1.76c0.47-0.79,0.71-1.68,0.71-2.69c0-0.99-0.26-1.88-0.79-2.69
			c-0.52-0.8-1.26-1.37-2.21-1.7C614.85,106.71,613.27,106.54,611.07,106.54z"/>
		<path class="st0" d="M632.94,102.72h4.5v31.4h-4.5V102.72z"/>
		<path class="st0" d="M671.46,126.84v4.94c-3.3,1.8-7.1,2.7-11.42,2.7c-3.51,0-6.48-0.7-8.92-2.11c-2.44-1.41-4.38-3.35-5.8-5.82
			c-1.42-2.47-2.14-5.15-2.14-8.02c0-4.57,1.63-8.41,4.89-11.53c3.26-3.12,7.28-4.67,12.06-4.67c3.3,0,6.96,0.86,10.99,2.58v4.83
			c-3.67-2.1-7.26-3.15-10.77-3.15c-3.6,0-6.58,1.13-8.96,3.4c-2.37,2.27-3.56,5.11-3.56,8.53c0,3.45,1.17,6.28,3.51,8.5
			c2.34,2.22,5.33,3.33,8.97,3.33C664.12,130.34,667.83,129.17,671.46,126.84z"/>
		<path class="st0" d="M688.16,102.54h3.16l14.08,31.58h-4.6l-4.18-9.3h-13.4l-3.92,9.3h-4.62L688.16,102.54z M694.76,120.81
			l-5.07-11.37l-4.7,11.37H694.76z"/>
		<path class="st0" d="M733.78,102.72h4.27v31.4h-3.87l-20.99-24.18v24.18h-4.23v-31.4h3.64l21.17,24.39V102.72z"/>
		<path class="st0" d="M754.8,102.54h3.16l14.08,31.58h-4.6l-4.18-9.3h-13.4l-3.92,9.3h-4.62L754.8,102.54z M761.4,120.81
			l-5.07-11.37l-4.7,11.37H761.4z"/>
	</g>
	<g>
		<g>
			<path class="st0" d="M43.1,53.42c-7.29,7.29-13.02,15.78-17.02,25.24c-3.25,7.69-5.24,15.76-5.95,24.06h3.53
				c2.43-27.04,19.1-50.04,42.44-61.42l-1.67-3.12C56.54,42.03,49.38,47.14,43.1,53.42z"/>
			<path class="st0" d="M174.99,78.65c-4-9.46-9.72-17.95-17.02-25.24c-6.08-6.08-12.99-11.07-20.6-14.88l-1.74,3.08
				c24.93,12.45,42.09,38.23,42.09,67.94c0,11.63-2.63,22.66-7.33,32.53h3.89c0.24-0.54,0.48-1.08,0.71-1.62
				c4.14-9.79,6.24-20.19,6.24-30.91C181.23,98.84,179.13,88.45,174.99,78.65z"/>
		</g>
		<path class="st0" d="M67.43,102.7l0.82-6.73l-2.43-2.17c0,0-0.72-0.84,4.44-4.22c0,0,31.62-18.6,65.1-3.81
			c0,0,2.73,2.13-10.55-0.27c0,0-31.45-1.76-48.13,8.54L74.4,105.5C74.4,105.5,72.78,102.78,67.43,102.7z"/>
		<path class="st0" d="M122.39,23.24c0,0-2.64-1.53-20.23-12.14l3.75,4.65c0,0,2.37,3.02,0.08,2.8c0,0-12.39-2.16-27.02,4.67
			c0,0,5.87-4.08,13.17-8.55c0,0,7-5.03,8.58-9.62L122.39,23.24z"/>
		<path class="st0" d="M132.85,75.25c0.32,0.18,0.69-0.13,0.55-0.47c-5.42-13.23-32.72-14.13-32.72-14.13
			c-17.06,0-28.12,7.08-31.26,9.84c-0.62,0.54-1,1.3-1.08,2.12l-0.4,4.24c-0.04,0.47,0.49,0.77,0.87,0.49
			C74.11,73.39,100.25,56.3,132.85,75.25z"/>
		<path class="st0" d="M79.37,61.43c0,0,4.07-2.36,11.93-3.5V35.83c-3.48,0.63-6.95,1.71-10.23,3.41L79.37,61.43z"/>
		<path class="st0" d="M94.7,35.35v22.2c3.81-0.32,8.32-0.32,13.5,0.28V35.68C104.09,35.12,99.44,34.86,94.7,35.35z"/>
		<path class="st0" d="M124.51,61.34l-1.82-22.1c0,0-4.51-1.78-11.1-3.01V58.3C115.55,58.93,119.86,59.9,124.51,61.34z"/>
		<path class="st0" d="M128.09,38.82c-1.95-1.44-14.01-6.67-27.68-6.62c0,0-17.13,0.4-21.7,5.5l-2.25,24.74c0,0-0.04,0.52-0.08,0.84
			c-1.99,1.07-3.91,2.42-3.91,2.42l1.82-24.9c0,0-10.16-2.55-1.36-8.74c0,0,25.31-14.55,51.09-1.84c0,0,13.71,5.66,5.99,8.93
			C130.01,39.14,128.88,39.41,128.09,38.82z"/>
		<path class="st0" d="M32.32,108v48H19.97v-48H32.32z"/>
		<path class="st0" d="M41.34,108h22.12c5.02,0,9.01,1.41,11.97,4.23c2.96,2.82,4.44,6.15,4.44,10c0,3.99-1.46,7.4-4.38,10.24
			c-2.92,2.84-6.91,4.26-11.95,4.26H53.7V156H41.34V108z M53.7,116.8v11.13h5.75c5.14,0,7.7-1.86,7.7-5.57
			c0-2.08-0.69-3.53-2.06-4.35c-1.37-0.81-3.72-1.22-7.03-1.22H53.7z"/>
		<path class="st0" d="M125.14,108h12.36v27.25c0,7.01-2.14,12.32-6.43,15.94c-4.28,3.62-10.4,5.43-18.36,5.43
			c-7.86,0-13.96-1.83-18.3-5.5c-4.34-3.66-6.52-8.93-6.52-15.81V108h12.39v27.59c0,3.34,1.13,6.02,3.39,8.04
			c2.26,2.02,5.22,3.02,8.89,3.02c3.81,0,6.86-1.03,9.14-3.09c2.28-2.06,3.43-4.99,3.43-8.8V108z"/>
		<path class="st0" d="M181.4,146.47V156h-34.15v-48h12.36v38.46H181.4z"/>
		<path class="st0" d="M51.61,165.1h1.32l-2.75,6.34h-0.39l-1.84-4.34l-1.82,4.34h-0.4l-2.78-6.34h1.32l1.63,3.78l1.59-3.78h0.91
			l1.57,3.78L51.61,165.1z"/>
		<path class="st0" d="M66.45,165.1h1.32l-2.75,6.34h-0.39l-1.84-4.34l-1.82,4.34h-0.4l-2.78-6.34h1.32l1.63,3.78l1.59-3.78h0.91
			l1.57,3.78L66.45,165.1z"/>
		<path class="st0" d="M81.29,165.1h1.32l-2.75,6.34h-0.39l-1.84-4.34l-1.82,4.34h-0.4l-2.78-6.34h1.32l1.63,3.78l1.59-3.78h0.91
			l1.57,3.78L81.29,165.1z"/>
		<path class="st0" d="M88.14,169.82c0.23,0,0.43,0.08,0.59,0.24c0.16,0.16,0.24,0.35,0.24,0.58c0,0.23-0.08,0.42-0.24,0.57
			c-0.16,0.15-0.36,0.23-0.59,0.23c-0.23,0-0.42-0.08-0.58-0.23c-0.16-0.15-0.24-0.34-0.24-0.57c0-0.23,0.08-0.42,0.24-0.58
			C87.72,169.9,87.91,169.82,88.14,169.82z"/>
		<path class="st0" d="M96.05,162.47c0.2,0,0.38,0.07,0.52,0.21c0.14,0.14,0.22,0.31,0.22,0.52c0,0.2-0.07,0.37-0.22,0.52
			c-0.14,0.14-0.32,0.22-0.52,0.22c-0.19,0-0.36-0.07-0.5-0.22c-0.14-0.15-0.22-0.32-0.22-0.51c0-0.19,0.07-0.36,0.22-0.5
			C95.69,162.55,95.86,162.47,96.05,162.47z M95.44,165.1h1.23v6.24h-1.23V165.1z"/>
		<path class="st0" d="M103.23,174.51v-9.41h2.16c1.11,0,1.97,0.28,2.58,0.83c0.62,0.55,0.92,1.32,0.92,2.31
			c0,0.94-0.29,1.7-0.87,2.3c-0.58,0.6-1.32,0.9-2.22,0.9c-0.4,0-0.84-0.09-1.32-0.26v3.33H103.23z M105.36,166.25h-0.87v3.84
			c0.38,0.19,0.78,0.29,1.19,0.29c0.58,0,1.05-0.2,1.42-0.6c0.37-0.4,0.55-0.92,0.55-1.55c0-0.41-0.09-0.77-0.26-1.08
			c-0.17-0.31-0.41-0.54-0.71-0.68C106.38,166.32,105.94,166.25,105.36,166.25z"/>
		<path class="st0" d="M119.08,171.33v-0.8c-0.26,0.29-0.56,0.51-0.9,0.67c-0.34,0.16-0.67,0.24-1.01,0.24
			c-0.39,0-0.76-0.1-1.09-0.29c-0.33-0.2-0.58-0.46-0.75-0.8c-0.17-0.34-0.25-0.9-0.25-1.68v-3.57h1.23v3.55
			c0,0.65,0.09,1.11,0.28,1.37c0.19,0.26,0.52,0.39,0.99,0.39c0.59,0,1.09-0.29,1.5-0.86v-4.45h1.23v6.24H119.08z"/>
		<path class="st0" d="M126.94,161.86h1.23v9.47h-1.23V161.86z"/>
		<path class="st0" d="M135.45,169.82c0.23,0,0.43,0.08,0.59,0.24c0.16,0.16,0.24,0.35,0.24,0.58c0,0.23-0.08,0.42-0.24,0.57
			c-0.16,0.15-0.36,0.23-0.59,0.23c-0.23,0-0.42-0.08-0.58-0.23c-0.16-0.15-0.24-0.34-0.24-0.57c0-0.23,0.08-0.42,0.24-0.58
			C135.02,169.9,135.22,169.82,135.45,169.82z"/>
		<path class="st0" d="M146.69,171.33v-0.8c-0.26,0.29-0.56,0.51-0.9,0.67c-0.34,0.16-0.67,0.24-1.01,0.24
			c-0.39,0-0.76-0.1-1.09-0.29s-0.58-0.46-0.75-0.8c-0.17-0.34-0.25-0.9-0.25-1.68v-3.57h1.23v3.55c0,0.65,0.09,1.11,0.28,1.37
			c0.19,0.26,0.52,0.39,0.99,0.39c0.59,0,1.09-0.29,1.5-0.86v-4.45h1.23v6.24H146.69z"/>
		<path class="st0" d="M154.21,170.89v-1.33c0.35,0.24,0.7,0.44,1.07,0.59c0.36,0.15,0.67,0.23,0.92,0.23
			c0.26,0,0.48-0.06,0.66-0.19c0.19-0.13,0.28-0.28,0.28-0.45c0-0.18-0.06-0.33-0.18-0.45c-0.12-0.12-0.38-0.29-0.78-0.52
			c-0.8-0.44-1.32-0.82-1.56-1.14c-0.25-0.31-0.37-0.66-0.37-1.03c0-0.48,0.19-0.87,0.56-1.17c0.37-0.3,0.85-0.45,1.44-0.45
			c0.61,0,1.24,0.17,1.88,0.52v1.22c-0.73-0.44-1.33-0.66-1.8-0.66c-0.24,0-0.43,0.05-0.58,0.15c-0.15,0.1-0.22,0.24-0.22,0.4
			c0,0.14,0.07,0.28,0.2,0.41c0.13,0.13,0.37,0.29,0.7,0.47l0.44,0.25c1.04,0.59,1.56,1.24,1.56,1.95c0,0.51-0.2,0.93-0.6,1.26
			c-0.4,0.33-0.91,0.49-1.54,0.49c-0.37,0-0.7-0.04-0.99-0.12C155.01,171.24,154.65,171.1,154.21,170.89z"/>
	</g>
</g>
</svg>
