<?xml version="1.0" encoding="utf-8"?>
<!-- Generator: Adobe Illustrator 24.0.1, SVG Export Plug-In . SVG Version: 6.00 Build 0)  -->
<svg version="1.1" id="Capa_1" xmlns="http://www.w3.org/2000/svg" xmlns:xlink="http://www.w3.org/1999/xlink" x="0px" y="0px"
	 viewBox="0 0 792 182.1" style="enable-background:new 0 0 792 182.1;" xml:space="preserve">
<style type="text/css">
	.st0{fill:#003160;}
</style>
<g>
	<path class="st0" d="M60.2,53.3c-7,7-12.4,15.1-16.2,24.1c-3.3,7.8-5.3,16.1-5.8,24.6h3.2C43.1,75.8,58.8,53.4,81,42.1l-1.5-2.8
		C72.4,42.9,65.9,47.6,60.2,53.3z"/>
</g>
<g>
	<g>
		<g>
			<path class="st0" d="M87.6,101.8l1-5.3c17.2-10.6,49.5-8.8,49.5-8.8C151.8,90.2,149,88,149,88c-34.4-15.2-66.9,3.9-66.9,3.9
				c-5.3,3.5-4.6,4.3-4.6,4.3l2.5,2.2l-0.3,2.9h2.8C84.3,101.3,86,101.5,87.6,101.8z"/>
		</g>
		<g>
			<path class="st0" d="M148.7,77.2c0.3,0.2,0.7-0.1,0.6-0.5c-5.6-13.6-33.6-14.5-33.6-14.5c-17.5,0-28.9,7.3-32.1,10.1
				c-0.6,0.6-1,1.3-1.1,2.2L82,78.8c-0.1,0.5,0.5,0.8,0.9,0.5C88.3,75.3,115.2,57.7,148.7,77.2z"/>
			<path class="st0" d="M134.9,23.7c0,0-2.7-1.6-20.8-12.5L118,16c0,0,2.4,3.1,0.1,2.9c0,0-12.7-2.2-27.8,4.8c0,0,6-4.2,13.5-8.8
				c0,0,7.2-5.2,8.8-9.9L134.9,23.7z"/>
			<g>
				<path class="st0" d="M92.7,62.8c0,0,4.2-2.4,12.3-3.6V36.5c-3.6,0.7-7.1,1.8-10.5,3.5L92.7,62.8z"/>
				<path class="st0" d="M108.4,36v22.8c3.9-0.3,8.6-0.3,13.9,0.3V36.3C118.1,35.8,113.3,35.5,108.4,36z"/>
				<path class="st0" d="M139.1,62.7L137.2,40c0,0-4.6-1.8-11.4-3.1v22.7C129.9,60.2,134.3,61.2,139.1,62.7z"/>
			</g>
		</g>
		<path class="st0" d="M85.7,67.3l1.9-25.6c0,0-10.4-2.6-1.4-9c0,0,25.5-16.2,52.2-1.4c0,0,9.3,5.3,2.6,7.4l-0.8,0
			c-0.4,0-0.9-0.1-1.2-0.4c-2-1.5-10.6-5.5-24.6-5.5c0,0-17.6,0.4-22.3,5.7L89.8,64c0,0,0,0.5-0.1,0.9C87.7,66,85.7,67.3,85.7,67.3z
			"/>
	</g>
	<g>
		<path class="st0" d="M75,162.4h1.1l-2.2,5.1h-0.3l-1.5-3.5l-1.4,3.5h-0.3l-2.2-5.1h1.1l1.3,3l1.3-3h0.7l1.2,3L75,162.4z"/>
		<path class="st0" d="M86.9,162.4h1.1l-2.2,5.1h-0.3l-1.5-3.5l-1.4,3.5h-0.3l-2.2-5.1H81l1.3,3l1.3-3h0.7l1.2,3L86.9,162.4z"/>
		<path class="st0" d="M98.7,162.4h1.1l-2.2,5.1h-0.3l-1.5-3.5l-1.4,3.5H94l-2.2-5.1h1.1l1.3,3l1.3-3h0.7l1.2,3L98.7,162.4z"/>
		<path class="st0" d="M104.2,166.1c0.2,0,0.3,0.1,0.5,0.2c0.1,0.1,0.2,0.3,0.2,0.5c0,0.2-0.1,0.3-0.2,0.4c-0.1,0.1-0.3,0.2-0.5,0.2
			s-0.3-0.1-0.5-0.2c-0.1-0.1-0.2-0.3-0.2-0.4s0.1-0.3,0.2-0.5S104,166.1,104.2,166.1z"/>
		<path class="st0" d="M110.5,160.3c0.2,0,0.3,0.1,0.4,0.2c0.1,0.1,0.2,0.2,0.2,0.4s-0.1,0.3-0.2,0.4c-0.1,0.1-0.2,0.2-0.4,0.2
			c-0.2,0-0.3-0.1-0.4-0.2s-0.2-0.2-0.2-0.4c0-0.1,0.1-0.3,0.2-0.4S110.3,160.3,110.5,160.3z M110,162.4h1v5h-1V162.4z"/>
		<path class="st0" d="M116.2,169.9v-7.5h1.7c0.9,0,1.6,0.2,2.1,0.7s0.7,1.1,0.7,1.8c0,0.8-0.2,1.4-0.7,1.8s-1.1,0.7-1.8,0.7
			c-0.3,0-0.7-0.1-1.1-0.2v2.7H116.2z M117.9,163.3h-0.7v3.1c0.3,0.2,0.6,0.2,0.9,0.2c0.5,0,0.8-0.2,1.1-0.5
			c0.3-0.3,0.4-0.7,0.4-1.2c0-0.3-0.1-0.6-0.2-0.9s-0.3-0.4-0.6-0.5C118.7,163.3,118.4,163.3,117.9,163.3z"/>
		<path class="st0" d="M128.9,167.3v-0.6c-0.2,0.2-0.4,0.4-0.7,0.5c-0.3,0.1-0.5,0.2-0.8,0.2c-0.3,0-0.6-0.1-0.9-0.2
			c-0.3-0.2-0.5-0.4-0.6-0.6c-0.1-0.3-0.2-0.7-0.2-1.3v-2.9h1v2.8c0,0.5,0.1,0.9,0.2,1.1c0.2,0.2,0.4,0.3,0.8,0.3
			c0.5,0,0.9-0.2,1.2-0.7v-3.6h1v5L128.9,167.3L128.9,167.3z"/>
		<path class="st0" d="M135.1,159.8h1v7.6h-1V159.8z"/>
		<path class="st0" d="M141.9,166.1c0.2,0,0.3,0.1,0.5,0.2s0.2,0.3,0.2,0.5c0,0.2-0.1,0.3-0.2,0.4s-0.3,0.2-0.5,0.2
			c-0.2,0-0.3-0.1-0.5-0.2s-0.2-0.3-0.2-0.4s0.1-0.3,0.2-0.5S141.7,166.1,141.9,166.1z"/>
		<path class="st0" d="M150.9,167.3v-0.6c-0.2,0.2-0.4,0.4-0.7,0.5c-0.3,0.1-0.5,0.2-0.8,0.2c-0.3,0-0.6-0.1-0.9-0.2
			c-0.3-0.2-0.5-0.4-0.6-0.6c-0.1-0.3-0.2-0.7-0.2-1.3v-2.9h1v2.8c0,0.5,0.1,0.9,0.2,1.1c0.1,0.2,0.4,0.3,0.8,0.3
			c0.5,0,0.9-0.2,1.2-0.7v-3.6h1v5L150.9,167.3L150.9,167.3z"/>
		<path class="st0" d="M156.9,167v-1.1c0.3,0.2,0.6,0.4,0.9,0.5c0.3,0.1,0.5,0.2,0.7,0.2c0.2,0,0.4-0.1,0.5-0.1
			c0.1-0.1,0.2-0.2,0.2-0.4s-0.1-0.3-0.1-0.4c-0.1-0.1-0.3-0.2-0.6-0.4c-0.6-0.4-1.1-0.7-1.2-0.9s-0.3-0.5-0.3-0.8
			c0-0.4,0.1-0.7,0.4-0.9c0.3-0.2,0.7-0.4,1.1-0.4c0.5,0,1,0.1,1.5,0.4v1c-0.6-0.4-1.1-0.5-1.4-0.5c-0.2,0-0.4,0-0.5,0.1
			c-0.1,0.1-0.2,0.2-0.2,0.3c0,0.1,0.1,0.2,0.2,0.3s0.3,0.2,0.6,0.4l0.4,0.2c0.8,0.5,1.2,1,1.2,1.6c0,0.4-0.2,0.7-0.5,1
			c-0.3,0.3-0.7,0.4-1.2,0.4c-0.3,0-0.6,0-0.8-0.1C157.5,167.2,157.2,167.1,156.9,167z"/>
	</g>
	<g>
		<path class="st0" d="M62.6,107h11.7v26.7c0,6.9-2,12.1-6.1,15.6c-4.1,3.6-9.9,5.3-17.4,5.3c-7.5,0-13.2-1.8-17.4-5.4
			c-4.1-3.6-6.2-8.8-6.2-15.5V107H39V134c0,3.3,1.1,5.9,3.2,7.9s5,3,8.5,3c3.6,0,6.5-1,8.7-3s3.3-4.9,3.3-8.6L62.6,107L62.6,107z"/>
		<path class="st0" d="M116,145.5v8.6H80.1V107h11.7v38.5L116,145.5L116,145.5z"/>
		<path class="st0" d="M118.4,107h21c4.8,0,8.6,1.4,11.4,4.1s4.2,6,4.2,9.8c0,3.9-1.4,7.2-4.2,10c-2.8,2.8-6.6,4.2-11.4,4.2h-9.3v19
			h-11.7L118.4,107L118.4,107z M130.2,115.6v10.9h5.5c4.9,0,7.3-1.8,7.3-5.5c0-2.1-0.6-3.5-2-4.3c-1.3-0.8-3.5-1.2-6.7-1.2
			C134.3,115.6,130.2,115.6,130.2,115.6z"/>
	</g>
	<path class="st0" d="M202.6,139.7V150c-5.9,3.1-12.1,4.7-18.5,4.7c-8.4,0-15-2.3-20-6.9c-4.9-4.6-7.4-10.3-7.4-17.1
		c0-6.8,2.6-12.5,7.8-17.2s12-7.1,20.5-7.1c6.7,0,12.4,1.4,17,4.2V121c-5.7-3.2-11.1-4.8-16.2-4.8c-5,0-9.1,1.3-12.3,4
		c-3.2,2.7-4.8,6.1-4.8,10.3c0,4.2,1.6,7.6,4.7,10.3c3.1,2.7,7.1,4.1,12,4.1c2.4,0,4.8-0.3,7-1C194.9,143.3,198.2,141.9,202.6,139.7
		z"/>
	<path class="st0" d="M189.7,101.9c-0.6-8.4-2.5-16.5-5.8-24.3c-3.8-9-9.3-17.1-16.2-24.1c-6.4-6.4-13.9-11.6-22.1-15.4l-1.6,2.8
		c23.8,10.8,40.7,33.6,42.5,60.9"/>
	<g>
		<path class="st0" d="M243.1,55.4h4.9v19.2c0,2.6-0.2,4.6-0.6,5.9s-0.9,2.4-1.4,3.3c-0.6,0.9-1.2,1.7-2,2.4
			c-2.7,2.3-6.2,3.4-10.5,3.4c-4.4,0-7.9-1.1-10.6-3.4c-0.8-0.7-1.5-1.5-2-2.4c-0.6-0.9-1-1.9-1.4-3.2c-0.4-1.3-0.5-3.3-0.5-6V55.4
			h4.9v19.2c0,3.2,0.4,5.4,1.1,6.6c0.7,1.2,1.8,2.2,3.3,3s3.2,1.1,5.2,1.1c2.9,0,5.2-0.8,7-2.2c0.9-0.8,1.6-1.8,2.1-2.8
			c0.4-1.1,0.6-3,0.6-5.6L243.1,55.4L243.1,55.4z"/>
		<path class="st0" d="M280.5,55.4h4.6v33.7h-4.1l-22.6-26v26h-4.5V55.4h3.9l22.8,26.2V55.4z"/>
		<path class="st0" d="M291.3,55.4h4.8v33.7h-4.8V55.4z"/>
		<path class="st0" d="M299.8,55.3H328v4.3h-11.8v29.5h-4.9V59.6h-11.6V55.3z"/>
		<path class="st0" d="M331.6,55.4h19.1v4.3h-14.3V70h13.8v4.3h-13.8v10.5h14.8v4.3h-19.6L331.6,55.4L331.6,55.4z"/>
		<path class="st0" d="M355.4,89.1V55.4h11.4c4.6,0,8.2,0.7,10.9,2.1s4.8,3.4,6.4,6.1c1.6,2.7,2.4,5.6,2.4,8.7
			c0,2.2-0.4,4.4-1.3,6.5s-2.1,3.9-3.7,5.4c-1.6,1.6-3.5,2.8-5.7,3.7c-1.3,0.5-2.4,0.8-3.5,1s-3.1,0.2-6.1,0.2L355.4,89.1
			L355.4,89.1z M366.2,59.7h-6v25.1h6.2c2.4,0,4.3-0.2,5.6-0.5c1.3-0.3,2.5-0.8,3.4-1.3c0.9-0.5,1.7-1.1,2.5-1.9
			c2.4-2.4,3.6-5.5,3.6-9.2c0-3.6-1.2-6.6-3.7-8.9c-0.9-0.8-1.9-1.5-3.1-2.1c-1.2-0.5-2.3-0.9-3.3-1.1
			C370.2,59.8,368.5,59.7,366.2,59.7z"/>
		<path class="st0" d="M404.2,55.4h4.8v29.3h15.2v4.4h-20V55.4z"/>
		<path class="st0" d="M438.2,55.2h3.4l15.1,33.9h-4.9l-4.5-10h-14.4l-4.2,10h-5L438.2,55.2z M445.3,74.8l-5.4-12.2l-5,12.2H445.3z"
			/>
		<path class="st0" d="M451.6,55.3h28.2v4.3H468v29.5h-4.9V59.6h-11.6L451.6,55.3L451.6,55.3z"/>
		<path class="st0" d="M483.4,55.4h4.8v33.7h-4.8V55.4z"/>
		<path class="st0" d="M521.6,55.4h4.6v33.7H522l-22.6-26v26h-4.5V55.4h3.9l22.8,26.2V55.4z"/>
		<path class="st0" d="M543.2,55.2h3.4l15.1,33.9h-4.9l-4.5-10h-14.4l-4.2,10h-5L543.2,55.2z M550.3,74.8l-5.4-12.2l-5,12.2H550.3z"
			/>
		<path class="st0" d="M591.2,55.4h4.5v33.7h-4.8V62.9l-10.4,13h-0.9l-10.5-13v26.3h-4.8V55.4h4.6l11.2,13.9L591.2,55.4z"/>
		<path class="st0" d="M602,55.4h19.1v4.3h-14.3V70h13.8v4.3h-13.8v10.5h14.8v4.3H602V55.4z"/>
		<path class="st0" d="M625.9,89.1V55.4h8.5c3.4,0,6.1,0.8,8.1,2.5c2,1.7,3,4,3,6.9c0,2-0.5,3.7-1.5,5.1c-1,1.4-2.4,2.5-4.2,3.2
			c1.1,0.7,2.1,1.7,3.2,2.9c1,1.2,2.5,3.4,4.3,6.4c1.2,1.9,2.1,3.4,2.8,4.3l1.8,2.4h-5.8l-1.5-2.2c0-0.1-0.1-0.2-0.3-0.4l-0.9-1.3
			l-1.5-2.5l-1.6-2.6c-1-1.4-1.9-2.5-2.7-3.3s-1.6-1.4-2.2-1.8c-0.7-0.4-1.8-0.5-3.4-0.5h-1.3v14.7L625.9,89.1L625.9,89.1z
			 M632.2,59.5h-1.5v10.7h1.8c2.5,0,4.1-0.2,5-0.6s1.6-1.1,2.1-1.9s0.8-1.8,0.8-2.9c0-1.1-0.3-2-0.8-2.9c-0.6-0.9-1.4-1.5-2.4-1.8
			C636.2,59.7,634.6,59.5,632.2,59.5z"/>
		<path class="st0" d="M654.7,55.4h4.8v33.7h-4.8V55.4z"/>
		<path class="st0" d="M695.1,81.3v5.3c-3.5,1.9-7.6,2.9-12.3,2.9c-3.8,0-7-0.8-9.6-2.3c-2.6-1.5-4.7-3.6-6.2-6.3
			c-1.5-2.7-2.3-5.5-2.3-8.6c0-4.9,1.8-9,5.2-12.4s7.8-5,13-5c3.5,0,7.5,0.9,11.8,2.8v5.2c-4-2.2-7.8-3.4-11.6-3.4
			c-3.9,0-7.1,1.2-9.6,3.7c-2.5,2.4-3.8,5.5-3.8,9.2c0,3.7,1.3,6.8,3.8,9.1s5.7,3.6,9.6,3.6C687.2,85.1,691.2,83.8,695.1,81.3z"/>
		<path class="st0" d="M712.1,55.2h3.4l15.1,33.9h-4.9l-4.5-10h-14.4l-4.2,10h-5L712.1,55.2z M719.2,74.8l-5.4-12.2l-5,12.2H719.2z"
			/>
		<path class="st0" d="M760.1,55.4h4.6v33.7h-4.2l-22.6-26v26h-4.5V55.4h3.9l22.8,26.2V55.4z"/>
		<path class="st0" d="M220.7,132.7V98.9h10.7c3.2,0,5.8,0.9,7.7,2.6c1.9,1.7,2.9,4.1,2.9,7c0,2-0.5,3.7-1.5,5.2
			c-1,1.5-2.3,2.6-4,3.3c-1.7,0.7-4.1,1-7.3,1h-3.6v14.6L220.7,132.7L220.7,132.7z M230.6,103.2h-5v10.6h5.3c2,0,3.5-0.5,4.5-1.4
			s1.6-2.2,1.6-4C237,104.9,234.8,103.2,230.6,103.2z"/>
		<path class="st0" d="M246.5,99h19.1v4.3h-14.3v10.3h13.8v4.3h-13.8v10.5h14.8v4.3h-19.6L246.5,99L246.5,99z"/>
		<path class="st0" d="M298.3,99h4.6v33.7h-4.1l-22.6-26v26h-4.5V99h3.9l22.8,26.2V99z"/>
		<path class="st0" d="M307.6,98.9h28.2v4.3H324v29.5h-4.9v-29.5h-11.6L307.6,98.9L307.6,98.9z"/>
		<path class="st0" d="M340.6,99h19.1v4.3h-14.3v10.3h13.8v4.3h-13.8v10.5h14.8v4.3h-19.6L340.6,99L340.6,99z"/>
		<path class="st0" d="M394.7,124.9v5.3c-3.5,1.9-7.6,2.9-12.3,2.9c-3.8,0-7-0.8-9.6-2.3c-2.6-1.5-4.7-3.6-6.2-6.3s-2.3-5.5-2.3-8.6
			c0-4.9,1.8-9,5.2-12.4s7.8-5,13-5c3.5,0,7.5,0.9,11.8,2.8v5.2c-4-2.2-7.8-3.4-11.6-3.4c-3.9,0-7.1,1.2-9.6,3.7
			c-2.5,2.4-3.8,5.5-3.8,9.2c0,3.7,1.3,6.8,3.8,9.1c2.5,2.4,5.7,3.6,9.6,3.6C386.8,128.6,390.8,127.4,394.7,124.9z"/>
		<path class="st0" d="M417.5,98.5c5.2,0,9.5,1.7,13,4.9c3.5,3.3,5.2,7.4,5.2,12.4c0,5-1.8,9.1-5.2,12.4c-3.5,3.3-7.9,4.9-13.2,4.9
			c-5.1,0-9.3-1.6-12.7-4.9c-3.4-3.3-5.1-7.4-5.1-12.3c0-5,1.7-9.2,5.1-12.5C408,100.1,412.3,98.5,417.5,98.5z M417.7,103.1
			c-3.9,0-7,1.2-9.5,3.6c-2.5,2.4-3.7,5.5-3.7,9.2c0,3.6,1.2,6.7,3.7,9.1c2.5,2.4,5.6,3.6,9.4,3.6c3.8,0,6.9-1.2,9.4-3.7
			c2.5-2.5,3.8-5.5,3.8-9.2c0-3.6-1.3-6.6-3.8-9C424.5,104.3,421.4,103.1,417.7,103.1z"/>
		<path class="st0" d="M450.3,118.6l-3.7-2.2c-2.3-1.4-3.9-2.8-4.9-4.2c-1-1.4-1.5-2.9-1.5-4.7c0-2.7,0.9-4.8,2.8-6.5
			c1.8-1.7,4.2-2.5,7.2-2.5c2.8,0,5.4,0.8,7.8,2.4v5.5c-2.4-2.3-5-3.5-7.9-3.5c-1.6,0-2.9,0.4-3.9,1.1c-1,0.7-1.5,1.7-1.5,2.8
			c0,1,0.4,2,1.1,2.8s2,1.8,3.6,2.8l3.7,2.2c4.1,2.5,6.2,5.6,6.2,9.4c0,2.7-0.9,4.9-2.7,6.6s-4.2,2.5-7.1,2.5c-3.3,0-6.4-1-9.1-3.1
			v-6.1c2.6,3.3,5.6,5,9.1,5c1.5,0,2.8-0.4,3.8-1.3c1-0.8,1.5-1.9,1.5-3.2C454.8,122.3,453.3,120.4,450.3,118.6z"/>
		<path class="st0" d="M462.1,98.9h28.2v4.3h-11.8v29.5h-4.9v-29.5h-11.6L462.1,98.9L462.1,98.9z"/>
		<path class="st0" d="M500.9,98.8h3.4l15.1,33.9h-4.9l-4.5-10h-14.4l-4.2,10h-5L500.9,98.8z M508,118.4l-5.4-12.2l-5,12.2H508z"/>
		<path class="st0" d="M523.4,99h4.8v29.4h15.2v4.4h-20V99z"/>
		<path class="st0" d="M591.1,124.9v5.3c-3.5,1.9-7.6,2.9-12.3,2.9c-3.8,0-7-0.8-9.6-2.3c-2.6-1.5-4.7-3.6-6.2-6.3
			c-1.5-2.7-2.3-5.5-2.3-8.6c0-4.9,1.8-9,5.2-12.4s7.8-5,13-5c3.5,0,7.5,0.9,11.8,2.8v5.2c-4-2.2-7.8-3.4-11.6-3.4
			c-3.9,0-7.1,1.2-9.6,3.7c-2.5,2.4-3.8,5.5-3.8,9.2c0,3.7,1.3,6.8,3.8,9.1s5.7,3.6,9.6,3.6C583.2,128.6,587.2,127.4,591.1,124.9z"
			/>
		<path class="st0" d="M621.1,99h4.8v33.7h-4.8V118h-19v14.7h-4.8V99h4.8v14.6h19V99z"/>
		<path class="st0" d="M657.2,99h4.8v19.2c0,2.6-0.2,4.6-0.6,5.9s-0.8,2.4-1.4,3.3c-0.6,0.9-1.2,1.7-2,2.4
			c-2.7,2.3-6.2,3.4-10.5,3.4c-4.4,0-7.9-1.1-10.6-3.4c-0.8-0.7-1.5-1.5-2-2.4c-0.6-0.9-1-1.9-1.4-3.2c-0.4-1.3-0.5-3.3-0.5-6V99
			h4.8v19.2c0,3.2,0.4,5.4,1.1,6.6c0.7,1.2,1.8,2.2,3.3,3c1.5,0.8,3.2,1.1,5.2,1.1c2.9,0,5.2-0.8,7-2.3c1-0.8,1.6-1.8,2-2.8
			c0.4-1.1,0.6-3,0.6-5.6L657.2,99L657.2,99z"/>
		<path class="st0" d="M669.2,132.7V99h8.5c3.4,0,6.1,0.8,8.1,2.5c2,1.7,3,4,3,6.9c0,2-0.5,3.7-1.5,5.1c-1,1.4-2.4,2.5-4.2,3.2
			c1.1,0.7,2.1,1.7,3.2,2.9c1,1.2,2.5,3.4,4.3,6.4c1.2,1.9,2.1,3.4,2.8,4.3l1.8,2.4h-5.8l-1.5-2.2c0-0.1-0.1-0.2-0.3-0.4l-0.9-1.3
			l-1.5-2.5l-1.6-2.6c-1-1.4-1.9-2.5-2.7-3.3s-1.6-1.4-2.2-1.8c-0.7-0.4-1.8-0.5-3.4-0.5H674v14.7L669.2,132.7L669.2,132.7z
			 M675.5,103.1H674v10.7h1.8c2.5,0,4.1-0.2,5-0.6s1.6-1.1,2.1-1.9s0.8-1.8,0.8-2.9c0-1.1-0.3-2-0.8-2.9c-0.6-0.9-1.4-1.5-2.4-1.8
			C679.5,103.2,677.8,103.1,675.5,103.1z"/>
		<path class="st0" d="M728.3,124.9v5.3c-3.5,1.9-7.6,2.9-12.3,2.9c-3.8,0-7-0.8-9.6-2.3c-2.6-1.5-4.7-3.6-6.2-6.3
			c-1.5-2.7-2.3-5.5-2.3-8.6c0-4.9,1.8-9,5.2-12.4s7.8-5,13-5c3.5,0,7.5,0.9,11.8,2.8v5.2c-4-2.2-7.8-3.4-11.6-3.4
			c-3.9,0-7.1,1.2-9.6,3.7c-2.5,2.4-3.8,5.5-3.8,9.2c0,3.7,1.3,6.8,3.8,9.1s5.7,3.6,9.6,3.6C720.4,128.6,724.4,127.4,728.3,124.9z"
			/>
		<path class="st0" d="M758.3,99h4.8v33.7h-4.8V118h-19v14.7h-4.8V99h4.8v14.6h19V99z"/>
	</g>
</g>
</svg>
