<?xml version="1.0" encoding="utf-8"?>
<!-- Generator: Adobe Illustrator 24.3.0, SVG Export Plug-In . SVG Version: 6.00 Build 0)  -->
<svg version="1.1" id="Capa_1" xmlns="http://www.w3.org/2000/svg" xmlns:xlink="http://www.w3.org/1999/xlink" x="0px" y="0px"
	 viewBox="0 0 612 600.67" style="enable-background:new 0 0 612 600.67;" xml:space="preserve">
<style type="text/css">
	.st0{fill:#F6F6F6;}
</style>
<g>
	<g>
		<path class="st0" d="M150.54,151.81c-19.69,19.69-35.14,42.61-45.94,68.14c-8.78,20.77-14.16,42.55-16.06,64.96h9.53
			c6.56-73.01,51.58-135.11,114.6-165.83l-4.5-8.43C186.82,121.06,167.48,134.87,150.54,151.81z"/>
		<path class="st0" d="M506.62,219.96c-10.8-25.53-26.26-48.46-45.94-68.14c-16.41-16.41-35.07-29.88-55.62-40.16l-4.7,8.33
			c67.3,33.63,113.63,103.22,113.63,183.43c0,31.41-7.11,61.19-19.8,87.83h10.51c0.65-1.45,1.29-2.91,1.91-4.38
			c11.18-26.43,16.85-54.51,16.85-83.45C523.47,274.47,517.8,246.39,506.62,219.96z"/>
	</g>
	<g>
		<path class="st0" d="M216.2,284.89l2.22-18.18l-6.56-5.85c0,0-1.94-2.26,11.98-11.4c0,0,85.38-50.21,175.76-10.28
			c0,0,7.38,5.76-28.48-0.74c0,0-84.91-4.76-129.96,23.05l-6.13,30.94C235.03,292.43,230.67,285.09,216.2,284.89z"/>
	</g>
	<path class="st0" d="M364.62,70.35c0,0-7.11-4.12-54.62-32.77l10.13,12.57c0,0,6.39,8.15,0.21,7.56c0,0-33.46-5.84-72.96,12.61
		c0,0,15.85-11.02,35.57-23.09c0,0,18.9-13.58,23.17-25.97L364.62,70.35z"/>
	<path class="st0" d="M392.85,210.78c0.86,0.5,1.86-0.36,1.49-1.28C379.7,173.79,306,171.34,306,171.34
		c-46.06,0-75.93,19.12-84.41,26.56c-1.67,1.47-2.71,3.52-2.92,5.73l-1.08,11.45c-0.12,1.26,1.32,2.07,2.34,1.31
		C234.25,205.74,304.82,159.59,392.85,210.78z"/>
	<path class="st0" d="M248.45,173.46c0,0,10.99-6.37,32.2-9.44v-59.7c-9.39,1.7-18.76,4.61-27.63,9.2L248.45,173.46z"/>
	<path class="st0" d="M289.83,103.02v59.95c10.3-0.86,22.47-0.86,36.44,0.76v-59.82C315.18,102.4,302.63,101.72,289.83,103.02z"/>
	<path class="st0" d="M370.33,173.2l-4.92-59.68c0,0-12.19-4.81-29.97-8.12v59.6C346.14,166.69,357.78,169.33,370.33,173.2z"/>
	<path class="st0" d="M379.99,112.39c-5.25-3.9-37.83-18.02-74.73-17.88c0,0-46.25,1.09-58.59,14.85l-6.06,66.8
		c0,0-0.12,1.41-0.22,2.27c-5.37,2.9-10.55,6.54-10.55,6.54l4.92-67.24c0,0-27.44-6.88-3.68-23.6c0,0,68.33-39.28,137.93-4.96
		c0,0,37.01,15.29,16.16,24.1C385.17,113.27,382.13,113.99,379.99,112.39z"/>
	<path class="st0" d="M121.42,299.19v129.6H88.06v-129.6H121.42z"/>
	<path class="st0" d="M145.78,299.19h59.72c13.55,0,24.32,3.8,32.31,11.41c7.99,7.61,11.98,16.61,11.98,27
		c0,10.76-3.95,19.98-11.84,27.65c-7.89,7.67-18.65,11.5-32.26,11.5h-26.55v52.04h-33.36V299.19z M179.14,322.94V353h15.53
		c13.87,0,20.8-5.01,20.8-15.03c0-5.63-1.85-9.54-5.56-11.74c-3.71-2.19-10.03-3.29-18.98-3.29H179.14z"/>
	<path class="st0" d="M372.02,299.19h33.36v73.57c0,18.93-5.78,33.27-17.35,43.05c-11.57,9.77-28.09,14.66-49.56,14.66
		c-21.22,0-37.69-4.95-49.42-14.84c-11.73-9.89-17.59-24.12-17.59-42.67v-73.75h33.46v74.49c0,9.03,3.05,16.27,9.16,21.71
		c6.1,5.44,14.11,8.16,24.01,8.16c10.29,0,18.52-2.78,24.69-8.35c6.17-5.57,9.25-13.48,9.25-23.75V299.19z"/>
	<path class="st0" d="M523.94,403.04v25.75h-92.2v-129.6h33.36v103.85H523.94z"/>
	<g>
		<path class="st0" d="M203.13,559.69h2.77l-5.77,13.3h-0.83l-3.86-9.11l-3.82,9.11h-0.84l-5.82-13.3h2.78l3.42,7.93l3.34-7.93h1.92
			l3.3,7.93L203.13,559.69z"/>
		<path class="st0" d="M234.24,559.69h2.77l-5.77,13.3h-0.83l-3.86-9.11l-3.82,9.11h-0.84l-5.82-13.3h2.78l3.42,7.93l3.34-7.93h1.92
			l3.3,7.93L234.24,559.69z"/>
		<path class="st0" d="M265.35,559.69h2.77l-5.77,13.3h-0.83l-3.86-9.11l-3.82,9.11h-0.84l-5.82-13.3h2.78l3.42,7.93l3.34-7.93h1.92
			l3.3,7.93L265.35,559.69z"/>
		<path class="st0" d="M279.72,569.59c0.48,0,0.9,0.17,1.24,0.5c0.34,0.33,0.51,0.74,0.51,1.22c0,0.47-0.17,0.87-0.5,1.19
			c-0.34,0.32-0.75,0.48-1.24,0.48c-0.48,0-0.89-0.16-1.22-0.48c-0.33-0.32-0.5-0.72-0.5-1.19c0-0.48,0.17-0.89,0.5-1.22
			C278.83,569.76,279.23,569.59,279.72,569.59z"/>
		<path class="st0" d="M296.28,554.19c0.43,0,0.79,0.15,1.09,0.44c0.3,0.29,0.45,0.65,0.45,1.08c0,0.42-0.15,0.78-0.45,1.08
			c-0.3,0.3-0.67,0.45-1.09,0.45c-0.4,0-0.75-0.15-1.05-0.46c-0.3-0.31-0.45-0.67-0.45-1.07c0-0.4,0.15-0.75,0.45-1.06
			C295.53,554.34,295.88,554.19,296.28,554.19z M295,559.69h2.59v13.07H295V559.69z"/>
		<path class="st0" d="M311.33,579.42v-19.73h4.53c2.32,0,4.12,0.58,5.41,1.73c1.29,1.16,1.94,2.77,1.94,4.84
			c0,1.96-0.61,3.57-1.82,4.83c-1.22,1.26-2.76,1.89-4.65,1.89c-0.83,0-1.75-0.18-2.77-0.55v6.99H311.33z M315.81,562.1h-1.83v8.04
			c0.79,0.41,1.63,0.61,2.49,0.61c1.21,0,2.2-0.42,2.97-1.26c0.77-0.84,1.16-1.93,1.16-3.25c0-0.85-0.18-1.61-0.55-2.26
			c-0.36-0.65-0.86-1.13-1.49-1.43S317.02,562.1,315.81,562.1z"/>
		<path class="st0" d="M344.56,572.76v-1.68c-0.55,0.6-1.18,1.07-1.88,1.4c-0.71,0.33-1.41,0.5-2.11,0.5
			c-0.82,0-1.58-0.21-2.28-0.62c-0.7-0.41-1.22-0.97-1.58-1.68c-0.36-0.71-0.53-1.88-0.53-3.52v-7.49h2.59v7.45
			c0,1.37,0.2,2.33,0.59,2.87c0.39,0.54,1.08,0.82,2.07,0.82c1.23,0,2.28-0.6,3.14-1.8v-9.33h2.59v13.07H344.56z"/>
		<path class="st0" d="M361.02,552.91h2.59v19.85h-2.59V552.91z"/>
		<path class="st0" d="M378.87,569.59c0.48,0,0.9,0.17,1.24,0.5c0.34,0.33,0.51,0.74,0.51,1.22c0,0.47-0.17,0.87-0.5,1.19
			c-0.34,0.32-0.75,0.48-1.24,0.48c-0.48,0-0.89-0.16-1.22-0.48c-0.33-0.32-0.5-0.72-0.5-1.19c0-0.48,0.17-0.89,0.5-1.22
			C377.97,569.76,378.38,569.59,378.87,569.59z"/>
		<path class="st0" d="M402.42,572.76v-1.68c-0.55,0.6-1.18,1.07-1.88,1.4c-0.71,0.33-1.41,0.5-2.11,0.5
			c-0.82,0-1.58-0.21-2.28-0.62c-0.7-0.41-1.22-0.97-1.58-1.68c-0.36-0.71-0.53-1.88-0.53-3.52v-7.49h2.59v7.45
			c0,1.37,0.2,2.33,0.59,2.87c0.39,0.54,1.08,0.82,2.07,0.82c1.23,0,2.28-0.6,3.14-1.8v-9.33H405v13.07H402.42z"/>
		<path class="st0" d="M418.18,571.82v-2.78c0.73,0.51,1.48,0.93,2.24,1.24c0.76,0.32,1.4,0.48,1.93,0.48c0.54,0,1-0.13,1.39-0.4
			c0.39-0.27,0.58-0.58,0.58-0.95c0-0.38-0.13-0.69-0.38-0.94c-0.25-0.25-0.79-0.61-1.63-1.09c-1.67-0.93-2.76-1.72-3.27-2.38
			c-0.52-0.66-0.77-1.38-0.77-2.15c0-1,0.39-1.82,1.17-2.46c0.78-0.63,1.79-0.95,3.02-0.95c1.28,0,2.59,0.36,3.94,1.08v2.56
			c-1.53-0.93-2.79-1.39-3.76-1.39c-0.5,0-0.91,0.11-1.21,0.32c-0.31,0.21-0.46,0.5-0.46,0.85c0,0.3,0.14,0.59,0.42,0.87
			c0.28,0.28,0.77,0.61,1.47,0.99l0.92,0.53c2.18,1.23,3.27,2.59,3.27,4.09c0,1.07-0.42,1.95-1.26,2.63s-1.92,1.03-3.23,1.03
			c-0.78,0-1.47-0.08-2.07-0.25C419.86,572.57,419.1,572.27,418.18,571.82z"/>
	</g>
	<g>
		<path class="st0" d="M33.33,457.14h5.27v36.83h-5.27V457.14z"/>
		<path class="st0" d="M66.68,475.84h12.36v15.61c-4.53,1.97-9.03,2.95-13.5,2.95c-6.1,0-10.97-1.78-14.62-5.34
			c-3.65-3.56-5.47-7.95-5.47-13.17c0-5.5,1.89-10.08,5.67-13.74c3.78-3.66,8.52-5.48,14.21-5.48c2.07,0,4.04,0.22,5.91,0.67
			c1.86,0.45,4.22,1.27,7.07,2.47v5.38c-4.39-2.55-8.75-3.82-13.08-3.82c-4.03,0-7.42,1.37-10.18,4.11
			c-2.76,2.74-4.14,6.11-4.14,10.1c0,4.18,1.38,7.6,4.14,10.26c2.76,2.65,6.31,3.98,10.65,3.98c2.11,0,4.63-0.48,7.57-1.45l0.5-0.16
			v-7.67h-7.09V475.84z"/>
		<path class="st0" d="M86.74,457.14h5.27v32.03h16.58v4.8H86.74V457.14z"/>
		<path class="st0" d="M113.21,457.14h20.88v4.69h-15.61v11.23h15.08v4.72h-15.08v11.44h16.11v4.69h-21.38V457.14z"/>
		<path class="st0" d="M149.33,478.54l-4.01-2.43c-2.51-1.53-4.3-3.04-5.36-4.53c-1.06-1.48-1.6-3.19-1.6-5.13
			c0-2.9,1.01-5.25,3.02-7.07c2.01-1.81,4.63-2.72,7.84-2.72c3.08,0,5.9,0.86,8.46,2.59v5.98c-2.65-2.55-5.51-3.83-8.57-3.83
			c-1.72,0-3.14,0.4-4.24,1.2c-1.11,0.8-1.66,1.82-1.66,3.06c0,1.1,0.41,2.14,1.22,3.1c0.82,0.96,2.13,1.97,3.93,3.03l4.03,2.38
			c4.49,2.68,6.74,6.1,6.74,10.25c0,2.95-0.99,5.35-2.97,7.2c-1.98,1.85-4.55,2.77-7.71,2.77c-3.64,0-6.95-1.12-9.94-3.35v-6.7
			c2.85,3.61,6.14,5.41,9.89,5.41c1.65,0,3.03-0.46,4.13-1.38c1.1-0.92,1.65-2.07,1.65-3.45
			C154.18,482.68,152.56,480.55,149.33,478.54z"/>
		<path class="st0" d="M164.99,457.14h5.27v36.83h-5.27V457.14z"/>
		<path class="st0" d="M190.2,456.93h3.71l16.51,37.04h-5.4l-4.91-10.91H184.4l-4.6,10.91h-5.42L190.2,456.93z M197.94,478.37
			L192,465.03l-5.51,13.34H197.94z"/>
		<path class="st0" d="M229.16,493.97v-36.88h11.68c3.52,0,6.32,0.95,8.41,2.85c2.09,1.9,3.14,4.45,3.14,7.65
			c0,2.14-0.54,4.04-1.61,5.69c-1.07,1.65-2.54,2.85-4.4,3.6c-1.86,0.75-4.53,1.12-8.01,1.12h-3.9v15.98H229.16z M239.92,461.78
			h-5.46v11.52h5.77c2.14,0,3.8-0.51,4.96-1.52c1.16-1.01,1.74-2.46,1.74-4.34C246.93,463.67,244.59,461.78,239.92,461.78z"/>
		<path class="st0" d="M256.97,457.14h20.88v4.69h-15.61v11.23h15.08v4.72h-15.08v11.44h16.11v4.69h-21.38V457.14z"/>
		<path class="st0" d="M313.23,457.14h5.01v36.83h-4.53l-24.62-28.36v28.36h-4.96v-36.83h4.27l24.83,28.61V457.14z"/>
		<path class="st0" d="M322.99,457.09h30.77v4.69h-12.84v32.19h-5.3v-32.19h-12.63V457.09z"/>
		<path class="st0" d="M358.74,457.14h20.88v4.69h-15.61v11.23h15.08v4.72h-15.08v11.44h16.11v4.69h-21.38V457.14z"/>
		<path class="st0" d="M417.47,485.43v5.8c-3.87,2.11-8.33,3.16-13.39,3.16c-4.11,0-7.6-0.83-10.47-2.48
			c-2.86-1.65-5.13-3.93-6.8-6.83c-1.67-2.9-2.5-6.04-2.5-9.41c0-5.36,1.91-9.87,5.73-13.52c3.82-3.66,8.54-5.48,14.14-5.48
			c3.87,0,8.16,1.01,12.89,3.03v5.67c-4.31-2.46-8.52-3.69-12.63-3.69c-4.22,0-7.72,1.33-10.51,3.99c-2.79,2.66-4.18,6-4.18,10
			c0,4.04,1.37,7.36,4.11,9.97c2.74,2.6,6.25,3.9,10.52,3.9C408.86,489.55,413.22,488.17,417.47,485.43z"/>
		<path class="st0" d="M442.03,456.62c5.69,0,10.43,1.8,14.21,5.4c3.78,3.6,5.68,8.12,5.68,13.55c0,5.43-1.91,9.93-5.73,13.49
			c-3.82,3.56-8.64,5.34-14.45,5.34c-5.55,0-10.17-1.78-13.87-5.34c-3.7-3.56-5.55-8.02-5.55-13.38c0-5.5,1.86-10.05,5.59-13.66
			C431.63,458.42,436.34,456.62,442.03,456.62z M442.24,461.63c-4.21,0-7.68,1.32-10.39,3.95c-2.71,2.64-4.07,6-4.07,10.1
			c0,3.97,1.36,7.28,4.08,9.91c2.72,2.64,6.13,3.95,10.22,3.95c4.11,0,7.54-1.34,10.29-4.03c2.75-2.69,4.12-6.04,4.12-10.04
			c0-3.9-1.37-7.18-4.12-9.85C449.62,462.96,446.25,461.63,442.24,461.63z"/>
		<path class="st0" d="M477.53,478.54l-4.01-2.43c-2.51-1.53-4.3-3.04-5.36-4.53c-1.06-1.48-1.6-3.19-1.6-5.13
			c0-2.9,1.01-5.25,3.02-7.07c2.01-1.81,4.63-2.72,7.84-2.72c3.08,0,5.9,0.86,8.46,2.59v5.98c-2.65-2.55-5.51-3.83-8.57-3.83
			c-1.72,0-3.14,0.4-4.24,1.2c-1.11,0.8-1.66,1.82-1.66,3.06c0,1.1,0.41,2.14,1.22,3.1c0.82,0.96,2.13,1.97,3.93,3.03l4.03,2.38
			c4.49,2.68,6.74,6.1,6.74,10.25c0,2.95-0.99,5.35-2.97,7.2c-1.98,1.85-4.55,2.77-7.71,2.77c-3.64,0-6.95-1.12-9.94-3.35v-6.7
			c2.85,3.61,6.14,5.41,9.89,5.41c1.65,0,3.03-0.46,4.13-1.38c1.1-0.92,1.65-2.07,1.65-3.45
			C482.38,482.68,480.76,480.55,477.53,478.54z"/>
		<path class="st0" d="M490,457.09h30.77v4.69h-12.84v32.19h-5.3v-32.19H490V457.09z"/>
		<path class="st0" d="M532.1,456.93h3.71l16.51,37.04h-5.4l-4.91-10.91h-15.71l-4.6,10.91h-5.42L532.1,456.93z M539.85,478.37
			l-5.94-13.34l-5.51,13.34H539.85z"/>
		<path class="st0" d="M556.36,457.14h5.27v32.03h16.58v4.8h-21.86V457.14z"/>
		<path class="st0" d="M53.44,501.72h4.32v17.06c0,2.31-0.17,4.05-0.51,5.23c-0.34,1.18-0.75,2.15-1.25,2.94
			c-0.49,0.78-1.1,1.48-1.82,2.1c-2.38,2.05-5.49,3.08-9.34,3.08c-3.92,0-7.06-1.02-9.42-3.05c-0.72-0.63-1.32-1.34-1.82-2.12
			c-0.49-0.78-0.9-1.74-1.23-2.87c-0.32-1.13-0.48-2.91-0.48-5.34v-17.02h4.32v17.06c0,2.83,0.32,4.79,0.97,5.89
			c0.65,1.1,1.63,1.99,2.95,2.66c1.32,0.67,2.88,1,4.67,1c2.55,0,4.63-0.67,6.24-2c0.85-0.72,1.46-1.56,1.83-2.54
			c0.37-0.98,0.56-2.65,0.56-5.01V501.72z"/>
		<path class="st0" d="M87.6,501.72h4.09v30.05h-3.7L67.9,508.62v23.15h-4.04v-30.05h3.49l20.27,23.34V501.72z"/>
		<path class="st0" d="M98.17,501.72h4.3v30.05h-4.3V501.72z"/>
		<path class="st0" d="M109.18,531.73v-30.01h10.13c4.09,0,7.32,0.61,9.7,1.84c2.38,1.23,4.27,3.03,5.68,5.41
			c1.41,2.38,2.11,4.98,2.11,7.79c0,2.01-0.39,3.93-1.16,5.77c-0.77,1.84-1.88,3.45-3.31,4.84c-1.46,1.43-3.16,2.52-5.1,3.25
			c-1.13,0.44-2.17,0.74-3.12,0.89c-0.95,0.15-2.75,0.23-5.42,0.23H109.18z M118.86,505.55h-5.38v22.35h5.51
			c2.15,0,3.82-0.15,5.01-0.44c1.19-0.29,2.18-0.67,2.98-1.12c0.8-0.45,1.52-1.01,2.18-1.67c2.12-2.15,3.18-4.87,3.18-8.15
			c0-3.23-1.09-5.86-3.27-7.9c-0.8-0.76-1.72-1.38-2.76-1.87c-1.04-0.49-2.03-0.81-2.96-0.97
			C122.42,505.62,120.93,505.55,118.86,505.55z"/>
		<path class="st0" d="M149.35,501.54h3.02l13.48,30.23h-4.4l-4.01-8.91h-12.82l-3.76,8.91h-4.42L149.35,501.54z M155.67,519.03
			l-4.85-10.89l-4.5,10.89H155.67z"/>
		<path class="st0" d="M181.38,501.72h4.3v26.14h13.53v3.92h-17.83V501.72z"/>
		<path class="st0" d="M212.57,501.54h3.02l13.48,30.23h-4.4l-4.01-8.91h-12.82l-3.76,8.91h-4.42L212.57,501.54z M218.89,519.03
			l-4.85-10.89l-4.5,10.89H218.89z"/>
		<path class="st0" d="M225.39,501.67h25.11v3.83h-10.48v26.27h-4.32V505.5h-10.3V501.67z"/>
		<path class="st0" d="M254.61,501.72h4.3v30.05h-4.3V501.72z"/>
		<path class="st0" d="M289.46,501.72h4.09v30.05h-3.7l-20.09-23.15v23.15h-4.04v-30.05h3.49l20.27,23.34V501.72z"/>
		<path class="st0" d="M314.72,501.29c4.64,0,8.51,1.47,11.6,4.41c3.09,2.94,4.63,6.63,4.63,11.06c0,4.43-1.56,8.1-4.68,11
			c-3.12,2.9-7.05,4.36-11.79,4.36c-4.53,0-8.3-1.45-11.32-4.36c-3.02-2.9-4.53-6.54-4.53-10.92c0-4.49,1.52-8.2,4.56-11.14
			C306.24,502.76,310.08,501.29,314.72,501.29z M314.9,505.37c-3.44,0-6.27,1.08-8.48,3.23c-2.21,2.15-3.32,4.9-3.32,8.24
			c0,3.24,1.11,5.94,3.33,8.09c2.22,2.15,5,3.23,8.34,3.23c3.35,0,6.15-1.1,8.39-3.29c2.24-2.19,3.36-4.93,3.36-8.2
			c0-3.18-1.12-5.86-3.36-8.03C320.92,506.46,318.16,505.37,314.9,505.37z"/>
		<path class="st0" d="M344.08,501.54h3.02l13.48,30.23h-4.4l-4.01-8.91h-12.82l-3.76,8.91h-4.42L344.08,501.54z M350.4,519.03
			l-4.85-10.89l-4.5,10.89H350.4z"/>
		<path class="st0" d="M387.77,501.72h4.02v30.05h-4.32v-23.38L378.23,520h-0.8l-9.35-11.62v23.38h-4.3v-30.05h4.07l9.99,12.34
			L387.77,501.72z"/>
		<path class="st0" d="M398.27,501.72h17.04v3.83h-12.74v9.16h12.31v3.85h-12.31v9.34h13.14v3.83h-17.45V501.72z"/>
		<path class="st0" d="M420.43,531.77v-30.05h7.53c3.04,0,5.45,0.75,7.24,2.26c1.79,1.51,2.68,3.54,2.68,6.11
			c0,1.75-0.44,3.26-1.31,4.54c-0.87,1.28-2.13,2.23-3.76,2.86c0.96,0.63,1.9,1.49,2.82,2.58c0.92,1.09,2.21,2.99,3.87,5.7
			c1.05,1.71,1.89,2.99,2.52,3.85l1.59,2.15h-5.12l-1.31-1.98c-0.04-0.07-0.13-0.19-0.26-0.37l-0.84-1.18l-1.33-2.2l-1.44-2.35
			c-0.89-1.23-1.7-2.22-2.44-2.95c-0.74-0.73-1.41-1.26-2-1.58c-0.6-0.32-1.6-0.48-3-0.48h-1.12v13.08H420.43z M426.02,505.37h-1.29
			v9.49h1.63c2.18,0,3.67-0.19,4.49-0.56c0.81-0.37,1.44-0.94,1.89-1.69c0.45-0.75,0.68-1.61,0.68-2.57c0-0.95-0.25-1.8-0.75-2.57
			c-0.5-0.77-1.21-1.31-2.12-1.62C429.64,505.53,428.13,505.37,426.02,505.37z"/>
		<path class="st0" d="M446.95,501.72h4.3v30.05h-4.3V501.72z"/>
		<path class="st0" d="M483.82,524.8v4.73c-3.16,1.72-6.8,2.58-10.93,2.58c-3.36,0-6.2-0.67-8.54-2.02
			c-2.34-1.35-4.19-3.21-5.55-5.57c-1.36-2.37-2.04-4.93-2.04-7.68c0-4.37,1.56-8.05,4.68-11.04c3.12-2.98,6.97-4.47,11.54-4.47
			c3.15,0,6.66,0.82,10.52,2.47v4.63c-3.51-2.01-6.95-3.01-10.3-3.01c-3.44,0-6.3,1.09-8.57,3.26c-2.27,2.17-3.41,4.89-3.41,8.16
			c0,3.3,1.12,6.01,3.36,8.13c2.24,2.12,5.1,3.18,8.58,3.18C476.8,528.16,480.35,527.04,483.82,524.8z"/>
		<path class="st0" d="M499.81,501.54h3.02l13.48,30.23h-4.4l-4.01-8.91h-12.82l-3.76,8.91h-4.42L499.81,501.54z M506.13,519.03
			l-4.85-10.89l-4.5,10.89H506.13z"/>
		<path class="st0" d="M543.48,501.72h4.09v30.05h-3.7l-20.09-23.15v23.15h-4.04v-30.05h3.49l20.27,23.34V501.72z"/>
		<path class="st0" d="M563.59,501.54h3.02l13.48,30.23h-4.4l-4.01-8.91h-12.82l-3.76,8.91h-4.42L563.59,501.54z M569.92,519.03
			l-4.85-10.89l-4.5,10.89H569.92z"/>
	</g>
</g>
</svg>
