<?xml version="1.0" encoding="utf-8"?>
<!-- Generator: Adobe Illustrator 24.3.0, SVG Export Plug-In . SVG Version: 6.00 Build 0)  -->
<svg version="1.1" id="Capa_1" xmlns="http://www.w3.org/2000/svg" xmlns:xlink="http://www.w3.org/1999/xlink" x="0px" y="0px"
	 viewBox="0 0 792 182.07" style="enable-background:new 0 0 792 182.07;" xml:space="preserve">
<style type="text/css">
	.st0{fill:#F6F6F6;}
</style>
<g>
	<path class="st0" d="M60.2,53.33c-6.96,6.96-12.42,15.06-16.24,24.08c-3.31,7.83-5.26,16.07-5.8,24.56h3.16
		c1.76-26.18,17.46-48.59,39.72-59.88l-1.47-2.82C72.43,42.89,65.93,47.6,60.2,53.33z"/>
</g>
<g>
	<g>
		<g>
			<path class="st0" d="M87.63,101.8l1.02-5.32c17.15-10.59,49.47-8.77,49.47-8.77c13.65,2.47,10.84,0.28,10.84,0.28
				c-34.4-15.2-66.9,3.91-66.9,3.91c-5.3,3.48-4.56,4.34-4.56,4.34l2.5,2.23l-0.27,2.87h2.8C84.31,101.33,86.02,101.49,87.63,101.8z
				"/>
		</g>
		<g>
			<path class="st0" d="M148.68,77.17c0.33,0.19,0.71-0.14,0.57-0.49c-5.57-13.59-33.62-14.52-33.62-14.52
				c-17.53,0-28.9,7.28-32.13,10.11c-0.64,0.56-1.03,1.34-1.11,2.18l-0.41,4.36c-0.05,0.48,0.5,0.79,0.89,0.5
				C88.31,75.26,115.17,57.69,148.68,77.17z"/>
			<path class="st0" d="M134.92,23.72c0,0-2.71-1.57-20.79-12.48l3.86,4.78c0,0,2.43,3.1,0.08,2.88c0,0-12.74-2.22-27.77,4.8
				c0,0,6.03-4.2,13.54-8.79c0,0,7.19-5.17,8.82-9.89L134.92,23.72z"/>
			<g>
				<path class="st0" d="M92.7,62.81c0,0,4.19-2.43,12.26-3.59V36.49c-3.58,0.65-7.14,1.76-10.52,3.5L92.7,62.81z"/>
				<path class="st0" d="M108.45,36v22.82c3.92-0.33,8.55-0.33,13.87,0.29V36.34C118.1,35.76,113.32,35.5,108.45,36z"/>
				<path class="st0" d="M139.09,62.71l-1.87-22.72c0,0-4.64-1.83-11.41-3.09v22.68C129.88,60.23,134.31,61.24,139.09,62.71z"/>
			</g>
		</g>
		<path class="st0" d="M85.74,67.35l1.87-25.59c0,0-10.44-2.62-1.4-8.98c0,0,25.52-16.22,52.25-1.37c0,0,9.3,5.27,2.57,7.35
			l-0.75,0.04c-0.44,0.03-0.87-0.11-1.22-0.38c-1.96-1.53-10.57-5.55-24.61-5.5c0,0-17.6,0.42-22.3,5.65L89.84,64
			c0,0-0.04,0.54-0.09,0.86C87.71,65.96,85.74,67.35,85.74,67.35z"/>
	</g>
	<g>
		<path class="st0" d="M75.02,162.35h1.06l-2.2,5.06h-0.31l-1.47-3.47l-1.45,3.47h-0.32l-2.22-5.06h1.06l1.3,3.02l1.27-3.02h0.73
			l1.25,3.02L75.02,162.35z"/>
		<path class="st0" d="M86.86,162.35h1.06l-2.2,5.06h-0.31l-1.47-3.47l-1.45,3.47h-0.32l-2.22-5.06h1.06l1.3,3.02l1.27-3.02h0.73
			l1.25,3.02L86.86,162.35z"/>
		<path class="st0" d="M98.71,162.35h1.06l-2.2,5.06h-0.31l-1.47-3.47l-1.45,3.47h-0.32l-2.22-5.06h1.06l1.3,3.02l1.27-3.02h0.73
			l1.25,3.02L98.71,162.35z"/>
		<path class="st0" d="M104.17,166.12c0.18,0,0.34,0.06,0.47,0.19c0.13,0.13,0.19,0.28,0.19,0.47c0,0.18-0.06,0.33-0.19,0.45
			c-0.13,0.12-0.29,0.18-0.47,0.18c-0.18,0-0.34-0.06-0.47-0.18c-0.13-0.12-0.19-0.27-0.19-0.45c0-0.18,0.06-0.34,0.19-0.47
			C103.83,166.18,103.99,166.12,104.17,166.12z"/>
		<path class="st0" d="M110.48,160.26c0.16,0,0.3,0.06,0.42,0.17c0.12,0.11,0.17,0.25,0.17,0.41c0,0.16-0.06,0.3-0.17,0.41
			c-0.12,0.12-0.25,0.17-0.42,0.17c-0.15,0-0.28-0.06-0.4-0.18c-0.12-0.12-0.17-0.25-0.17-0.41c0-0.15,0.06-0.29,0.17-0.4
			C110.19,160.32,110.33,160.26,110.48,160.26z M109.99,162.35h0.98v4.98h-0.98V162.35z"/>
		<path class="st0" d="M116.21,169.86v-7.51h1.72c0.88,0,1.57,0.22,2.06,0.66c0.49,0.44,0.74,1.05,0.74,1.84
			c0,0.75-0.23,1.36-0.69,1.84c-0.46,0.48-1.05,0.72-1.77,0.72c-0.32,0-0.67-0.07-1.05-0.21v2.66H116.21z M117.91,163.27h-0.7v3.06
			c0.3,0.16,0.62,0.23,0.95,0.23c0.46,0,0.84-0.16,1.13-0.48c0.29-0.32,0.44-0.73,0.44-1.24c0-0.32-0.07-0.61-0.21-0.86
			c-0.14-0.25-0.33-0.43-0.57-0.54C118.72,163.33,118.37,163.27,117.91,163.27z"/>
		<path class="st0" d="M128.86,167.33v-0.64c-0.21,0.23-0.45,0.41-0.72,0.53c-0.27,0.13-0.54,0.19-0.8,0.19
			c-0.31,0-0.6-0.08-0.87-0.24c-0.26-0.16-0.47-0.37-0.6-0.64c-0.14-0.27-0.2-0.71-0.2-1.34v-2.85h0.98v2.84
			c0,0.52,0.07,0.89,0.22,1.09c0.15,0.21,0.41,0.31,0.79,0.31c0.47,0,0.87-0.23,1.2-0.69v-3.55h0.98v4.98H128.86z"/>
		<path class="st0" d="M135.12,159.77h0.98v7.55h-0.98V159.77z"/>
		<path class="st0" d="M141.91,166.12c0.18,0,0.34,0.06,0.47,0.19c0.13,0.13,0.19,0.28,0.19,0.47c0,0.18-0.06,0.33-0.19,0.45
			c-0.13,0.12-0.29,0.18-0.47,0.18c-0.18,0-0.34-0.06-0.47-0.18c-0.13-0.12-0.19-0.27-0.19-0.45c0-0.18,0.06-0.34,0.19-0.47
			C141.57,166.18,141.73,166.12,141.91,166.12z"/>
		<path class="st0" d="M150.88,167.33v-0.64c-0.21,0.23-0.45,0.41-0.72,0.53c-0.27,0.13-0.54,0.19-0.8,0.19
			c-0.31,0-0.6-0.08-0.87-0.24c-0.26-0.16-0.47-0.37-0.6-0.64c-0.14-0.27-0.2-0.71-0.2-1.34v-2.85h0.98v2.84
			c0,0.52,0.07,0.89,0.22,1.09c0.15,0.21,0.41,0.31,0.79,0.31c0.47,0,0.87-0.23,1.2-0.69v-3.55h0.98v4.98H150.88z"/>
		<path class="st0" d="M156.88,166.97v-1.06c0.28,0.19,0.56,0.35,0.85,0.47c0.29,0.12,0.53,0.18,0.73,0.18
			c0.21,0,0.38-0.05,0.53-0.15c0.15-0.1,0.22-0.22,0.22-0.36c0-0.14-0.05-0.26-0.14-0.36c-0.1-0.1-0.3-0.23-0.62-0.41
			c-0.63-0.35-1.05-0.66-1.25-0.91c-0.2-0.25-0.29-0.52-0.29-0.82c0-0.38,0.15-0.69,0.45-0.94c0.3-0.24,0.68-0.36,1.15-0.36
			c0.49,0,0.99,0.14,1.5,0.41v0.97c-0.58-0.35-1.06-0.53-1.43-0.53c-0.19,0-0.35,0.04-0.46,0.12c-0.12,0.08-0.18,0.19-0.18,0.32
			c0,0.12,0.05,0.23,0.16,0.33c0.11,0.1,0.29,0.23,0.56,0.38l0.35,0.2c0.83,0.47,1.24,0.99,1.24,1.56c0,0.41-0.16,0.74-0.48,1
			c-0.32,0.26-0.73,0.39-1.23,0.39c-0.3,0-0.56-0.03-0.79-0.09C157.52,167.25,157.23,167.14,156.88,166.97z"/>
	</g>
	<g>
		<path class="st0" d="M62.64,106.97h11.74v26.74c0,6.88-2.03,12.1-6.1,15.65c-4.07,3.55-9.88,5.33-17.43,5.33
			c-7.46,0-13.25-1.8-17.38-5.4c-4.12-3.6-6.19-8.77-6.19-15.51v-26.81h11.74v27.07c0,3.28,1.07,5.91,3.22,7.89
			c2.15,1.98,4.96,2.97,8.45,2.97c3.62,0,6.51-1.01,8.68-3.03c2.17-2.02,3.26-4.9,3.26-8.63V106.97z"/>
		<path class="st0" d="M116.02,145.46v8.6H80.1v-47.09h11.74v38.49H116.02z"/>
		<path class="st0" d="M118.44,106.97h21.02c4.77,0,8.56,1.38,11.37,4.14s4.22,6.02,4.22,9.79c0,3.9-1.39,7.25-4.17,10.03
			c-2.78,2.78-6.56,4.17-11.35,4.17h-9.34v18.96h-11.74V106.97z M130.18,115.57v10.93h5.48c4.89,0,7.33-1.82,7.33-5.46
			c0-2.05-0.65-3.47-1.96-4.27c-1.31-0.8-3.54-1.2-6.69-1.2H130.18z"/>
	</g>
	<path class="st0" d="M202.64,139.68v10.31c-5.89,3.13-12.05,4.7-18.5,4.7c-8.36,0-15.01-2.31-19.97-6.92
		c-4.95-4.62-7.43-10.3-7.43-17.07s2.61-12.5,7.83-17.22c5.22-4.72,12.04-7.08,20.46-7.08c6.71,0,12.39,1.38,17.04,4.15v10.48
		c-5.7-3.22-11.09-4.83-16.19-4.83c-5,0-9.09,1.34-12.27,4.03c-3.17,2.68-4.76,6.1-4.76,10.25c0,4.18,1.57,7.62,4.7,10.34
		c3.13,2.72,7.15,4.08,12.04,4.08c2.42,0,4.76-0.32,7-0.96C194.85,143.29,198.19,141.87,202.64,139.68z"/>
	<path class="st0" d="M189.72,101.87c-0.56-8.4-2.5-16.5-5.78-24.26c-3.82-9.02-9.28-17.13-16.24-24.08
		c-6.44-6.44-13.87-11.6-22.09-15.36l-1.57,2.77c23.78,10.79,40.72,33.61,42.52,60.93"/>
	<g>
		<path class="st0" d="M243.11,55.4h4.85v19.15c0,2.59-0.19,4.55-0.57,5.87c-0.38,1.32-0.85,2.42-1.4,3.3
			c-0.56,0.88-1.24,1.66-2.04,2.36c-2.67,2.3-6.17,3.45-10.48,3.45c-4.4,0-7.92-1.14-10.58-3.43c-0.81-0.71-1.49-1.5-2.04-2.38
			c-0.56-0.88-1.01-1.95-1.38-3.22c-0.36-1.27-0.54-3.27-0.54-5.99V55.4h4.85v19.15c0,3.17,0.36,5.38,1.09,6.62
			c0.72,1.24,1.83,2.23,3.31,2.98c1.48,0.75,3.23,1.12,5.24,1.12c2.87,0,5.2-0.75,7-2.25c0.95-0.81,1.63-1.75,2.05-2.85
			c0.42-1.09,0.63-2.97,0.63-5.63V55.4z"/>
		<path class="st0" d="M280.47,55.4h4.59v33.74h-4.15l-22.56-25.99v25.99h-4.54V55.4h3.91l22.75,26.21V55.4z"/>
		<path class="st0" d="M291.34,55.4h4.83v33.74h-4.83V55.4z"/>
		<path class="st0" d="M299.8,55.35h28.19v4.3h-11.76v29.49h-4.85V59.65H299.8V55.35z"/>
		<path class="st0" d="M331.56,55.4h19.13v4.3h-14.3v10.29h13.82v4.32h-13.82v10.48h14.76v4.3h-19.59V55.4z"/>
		<path class="st0" d="M355.35,89.09V55.4h11.38c4.59,0,8.22,0.69,10.89,2.07c2.67,1.38,4.8,3.4,6.38,6.07
			c1.58,2.67,2.37,5.59,2.37,8.74c0,2.25-0.43,4.41-1.3,6.47c-0.87,2.06-2.11,3.87-3.72,5.43c-1.64,1.61-3.55,2.83-5.72,3.65
			c-1.27,0.5-2.44,0.83-3.5,1c-1.06,0.17-3.09,0.25-6.09,0.25H355.35z M366.22,59.7h-6.04v25.1h6.18c2.42,0,4.29-0.16,5.63-0.5
			c1.34-0.33,2.45-0.75,3.35-1.26c0.89-0.51,1.71-1.13,2.45-1.87c2.38-2.42,3.57-5.47,3.57-9.15c0-3.62-1.22-6.58-3.67-8.86
			c-0.9-0.85-1.94-1.55-3.1-2.1c-1.17-0.55-2.27-0.91-3.32-1.09C370.23,59.78,368.54,59.7,366.22,59.7z"/>
		<path class="st0" d="M404.17,55.4H409v29.35h15.19v4.4h-20.02V55.4z"/>
		<path class="st0" d="M438.21,55.2h3.4l15.13,33.94h-4.94l-4.5-10h-14.4l-4.22,10h-4.96L438.21,55.2z M445.3,74.84l-5.44-12.22
			l-5.05,12.22H445.3z"/>
		<path class="st0" d="M451.61,55.35h28.19v4.3h-11.76v29.49h-4.85V59.65h-11.57V55.35z"/>
		<path class="st0" d="M483.42,55.4h4.83v33.74h-4.83V55.4z"/>
		<path class="st0" d="M521.56,55.4h4.59v33.74H522l-22.56-25.99v25.99h-4.54V55.4h3.91l22.75,26.21V55.4z"/>
		<path class="st0" d="M543.16,55.2h3.4l15.13,33.94h-4.94l-4.5-10h-14.4l-4.22,10h-4.96L543.16,55.2z M550.26,74.84l-5.44-12.22
			l-5.05,12.22H550.26z"/>
		<path class="st0" d="M591.23,55.4h4.52v33.74h-4.85V62.88l-10.37,13.04h-0.89l-10.5-13.04v26.26h-4.83V55.4h4.57l11.21,13.86
			L591.23,55.4z"/>
		<path class="st0" d="M602.02,55.4h19.13v4.3h-14.3v10.29h13.82v4.32h-13.82v10.48h14.76v4.3h-19.59V55.4z"/>
		<path class="st0" d="M625.91,89.14V55.4h8.45c3.41,0,6.12,0.85,8.13,2.54c2,1.69,3.01,3.98,3.01,6.86c0,1.96-0.49,3.66-1.47,5.1
			c-0.98,1.43-2.39,2.5-4.23,3.21c1.08,0.71,2.13,1.67,3.16,2.9c1.03,1.22,2.48,3.36,4.35,6.4c1.18,1.92,2.12,3.36,2.83,4.32
			l1.79,2.42h-5.75l-1.47-2.22c-0.05-0.08-0.14-0.22-0.29-0.41l-0.94-1.33l-1.5-2.46l-1.62-2.63c-1-1.39-1.91-2.49-2.74-3.31
			c-0.83-0.82-1.58-1.41-2.25-1.77c-0.67-0.36-1.79-0.54-3.37-0.54h-1.26v14.69H625.91z M632.19,59.5h-1.45v10.65h1.84
			c2.45,0,4.13-0.21,5.04-0.63c0.91-0.42,1.62-1.05,2.13-1.9c0.51-0.85,0.76-1.81,0.76-2.89c0-1.06-0.28-2.02-0.85-2.89
			c-0.56-0.86-1.36-1.47-2.38-1.82C636.25,59.68,634.56,59.5,632.19,59.5z"/>
		<path class="st0" d="M654.71,55.4h4.83v33.74h-4.83V55.4z"/>
		<path class="st0" d="M695.12,81.31v5.31c-3.54,1.93-7.63,2.9-12.27,2.9c-3.77,0-6.96-0.76-9.59-2.27c-2.62-1.51-4.7-3.6-6.23-6.26
			c-1.53-2.66-2.29-5.53-2.29-8.62c0-4.91,1.75-9.04,5.25-12.39c3.5-3.35,7.82-5.02,12.96-5.02c3.54,0,7.48,0.93,11.81,2.78v5.19
			c-3.95-2.25-7.8-3.38-11.57-3.38c-3.86,0-7.07,1.22-9.63,3.66c-2.55,2.44-3.83,5.5-3.83,9.17c0,3.7,1.26,6.75,3.77,9.13
			c2.51,2.38,5.72,3.57,9.64,3.57C687.23,85.08,691.22,83.83,695.12,81.31z"/>
		<path class="st0" d="M712.07,55.2h3.4l15.13,33.94h-4.94l-4.5-10h-14.4l-4.22,10h-4.96L712.07,55.2z M719.17,74.84l-5.44-12.22
			l-5.05,12.22H719.17z"/>
		<path class="st0" d="M760.12,55.4h4.59v33.74h-4.15l-22.56-25.99v25.99h-4.54V55.4h3.91l22.75,26.21V55.4z"/>
		<path class="st0" d="M220.7,132.7V98.91h10.7c3.22,0,5.79,0.87,7.71,2.61c1.92,1.74,2.87,4.07,2.87,7c0,1.96-0.49,3.7-1.47,5.22
			c-0.98,1.51-2.33,2.61-4.03,3.3c-1.71,0.68-4.15,1.03-7.34,1.03h-3.57v14.64H220.7z M230.56,103.21h-5v10.56h5.29
			c1.96,0,3.48-0.46,4.54-1.39c1.06-0.93,1.59-2.25,1.59-3.97C236.98,104.94,234.84,103.21,230.56,103.21z"/>
		<path class="st0" d="M246.48,98.96h19.13v4.3h-14.3v10.29h13.82v4.32h-13.82v10.48h14.76v4.3h-19.59V98.96z"/>
		<path class="st0" d="M298.32,98.96h4.59v33.74h-4.15l-22.56-25.99v25.99h-4.54V98.96h3.91l22.75,26.21V98.96z"/>
		<path class="st0" d="M307.56,98.91h28.19v4.3h-11.76v29.49h-4.85v-29.49h-11.57V98.91z"/>
		<path class="st0" d="M340.61,98.96h19.13v4.3h-14.3v10.29h13.82v4.32h-13.82v10.48h14.76v4.3h-19.59V98.96z"/>
		<path class="st0" d="M394.72,124.87v5.31c-3.54,1.93-7.63,2.9-12.27,2.9c-3.77,0-6.96-0.76-9.59-2.27
			c-2.62-1.51-4.7-3.6-6.23-6.26c-1.53-2.66-2.29-5.53-2.29-8.62c0-4.91,1.75-9.04,5.25-12.39c3.5-3.35,7.82-5.02,12.96-5.02
			c3.54,0,7.48,0.93,11.81,2.78v5.19c-3.95-2.25-7.8-3.38-11.57-3.38c-3.86,0-7.07,1.22-9.63,3.66c-2.55,2.44-3.83,5.49-3.83,9.17
			c0,3.7,1.26,6.75,3.77,9.13c2.51,2.38,5.72,3.57,9.64,3.57C386.83,128.64,390.82,127.39,394.72,124.87z"/>
		<path class="st0" d="M417.51,98.47c5.21,0,9.55,1.65,13.02,4.95c3.47,3.3,5.2,7.44,5.2,12.42c0,4.98-1.75,9.09-5.25,12.35
			c-3.5,3.26-7.91,4.89-13.24,4.89c-5.09,0-9.32-1.63-12.71-4.89c-3.39-3.26-5.08-7.35-5.08-12.26c0-5.04,1.71-9.21,5.12-12.51
			C407.99,100.12,412.3,98.47,417.51,98.47z M417.71,103.06c-3.86,0-7.03,1.21-9.52,3.62c-2.49,2.42-3.73,5.5-3.73,9.25
			c0,3.64,1.25,6.67,3.74,9.08c2.49,2.42,5.61,3.62,9.36,3.62c3.76,0,6.91-1.23,9.42-3.7c2.52-2.46,3.78-5.53,3.78-9.2
			c0-3.57-1.26-6.58-3.78-9.02C424.47,104.28,421.37,103.06,417.71,103.06z"/>
		<path class="st0" d="M450.33,118.56l-3.67-2.23c-2.3-1.41-3.94-2.79-4.92-4.15c-0.97-1.36-1.46-2.93-1.46-4.7
			c0-2.66,0.92-4.81,2.77-6.47c1.84-1.66,4.24-2.49,7.19-2.49c2.82,0,5.4,0.79,7.75,2.37v5.48c-2.43-2.34-5.05-3.51-7.85-3.51
			c-1.58,0-2.87,0.36-3.89,1.09c-1.01,0.73-1.52,1.66-1.52,2.8c0,1.01,0.37,1.96,1.12,2.84c0.75,0.88,1.95,1.81,3.61,2.78l3.69,2.18
			c4.12,2.46,6.17,5.59,6.17,9.39c0,2.71-0.91,4.9-2.72,6.59c-1.81,1.69-4.17,2.54-7.06,2.54c-3.33,0-6.37-1.02-9.11-3.07v-6.14
			c2.61,3.31,5.63,4.96,9.06,4.96c1.51,0,2.77-0.42,3.78-1.26c1.01-0.84,1.51-1.9,1.51-3.16
			C454.78,122.35,453.3,120.4,450.33,118.56z"/>
		<path class="st0" d="M462.06,98.91h28.19v4.3h-11.76v29.49h-4.85v-29.49h-11.57V98.91z"/>
		<path class="st0" d="M500.93,98.76h3.4l15.13,33.94h-4.94l-4.5-10h-14.4l-4.22,10h-4.96L500.93,98.76z M508.03,118.4l-5.44-12.22
			l-5.05,12.22H508.03z"/>
		<path class="st0" d="M523.44,98.96h4.83v29.35h15.19v4.4h-20.02V98.96z"/>
		<path class="st0" d="M591.11,124.87v5.31c-3.54,1.93-7.63,2.9-12.27,2.9c-3.77,0-6.96-0.76-9.59-2.27
			c-2.62-1.51-4.7-3.6-6.23-6.26c-1.53-2.66-2.29-5.53-2.29-8.62c0-4.91,1.75-9.04,5.25-12.39c3.5-3.35,7.82-5.02,12.96-5.02
			c3.54,0,7.48,0.93,11.81,2.78v5.19c-3.95-2.25-7.8-3.38-11.57-3.38c-3.86,0-7.07,1.22-9.63,3.66c-2.55,2.44-3.83,5.49-3.83,9.17
			c0,3.7,1.26,6.75,3.77,9.13c2.51,2.38,5.72,3.57,9.64,3.57C583.22,128.64,587.22,127.39,591.11,124.87z"/>
		<path class="st0" d="M621.14,98.96h4.83v33.74h-4.83v-14.69h-18.96v14.69h-4.83V98.96h4.83v14.59h18.96V98.96z"/>
		<path class="st0" d="M657.19,98.96h4.85v19.15c0,2.59-0.19,4.55-0.57,5.87c-0.38,1.32-0.85,2.42-1.4,3.3
			c-0.56,0.88-1.24,1.66-2.04,2.36c-2.67,2.3-6.17,3.45-10.48,3.45c-4.4,0-7.92-1.14-10.58-3.43c-0.81-0.71-1.49-1.5-2.04-2.38
			c-0.56-0.88-1.01-1.95-1.38-3.22c-0.36-1.27-0.54-3.27-0.54-5.99V98.96h4.85v19.15c0,3.17,0.36,5.38,1.09,6.62
			c0.72,1.24,1.83,2.23,3.31,2.98c1.48,0.75,3.23,1.12,5.24,1.12c2.87,0,5.2-0.75,7-2.25c0.95-0.81,1.63-1.75,2.05-2.85
			c0.42-1.09,0.63-2.97,0.63-5.63V98.96z"/>
		<path class="st0" d="M669.18,132.7V98.96h8.45c3.41,0,6.12,0.85,8.13,2.54c2,1.69,3.01,3.98,3.01,6.86c0,1.96-0.49,3.66-1.47,5.1
			c-0.98,1.43-2.39,2.5-4.23,3.21c1.08,0.71,2.13,1.67,3.16,2.9c1.03,1.22,2.48,3.36,4.35,6.4c1.18,1.92,2.12,3.36,2.83,4.32
			l1.79,2.42h-5.75l-1.47-2.22c-0.05-0.08-0.14-0.22-0.29-0.41l-0.94-1.33l-1.5-2.46l-1.62-2.63c-1-1.39-1.91-2.49-2.74-3.31
			c-0.83-0.82-1.58-1.41-2.25-1.77c-0.67-0.36-1.79-0.54-3.37-0.54h-1.26v14.69H669.18z M675.46,103.06h-1.45v10.65h1.84
			c2.45,0,4.13-0.21,5.04-0.63c0.91-0.42,1.62-1.05,2.13-1.9c0.51-0.85,0.76-1.81,0.76-2.89c0-1.06-0.28-2.02-0.85-2.89
			c-0.56-0.86-1.36-1.47-2.38-1.82C679.52,103.24,677.82,103.06,675.46,103.06z"/>
		<path class="st0" d="M728.29,124.87v5.31c-3.54,1.93-7.63,2.9-12.27,2.9c-3.77,0-6.96-0.76-9.59-2.27
			c-2.62-1.51-4.7-3.6-6.23-6.26c-1.53-2.66-2.29-5.53-2.29-8.62c0-4.91,1.75-9.04,5.25-12.39c3.5-3.35,7.82-5.02,12.96-5.02
			c3.54,0,7.48,0.93,11.81,2.78v5.19c-3.95-2.25-7.8-3.38-11.57-3.38c-3.86,0-7.07,1.22-9.63,3.66c-2.55,2.44-3.83,5.49-3.83,9.17
			c0,3.7,1.26,6.75,3.77,9.13c2.51,2.38,5.72,3.57,9.64,3.57C720.4,128.64,724.39,127.39,728.29,124.87z"/>
		<path class="st0" d="M758.32,98.96h4.83v33.74h-4.83v-14.69h-18.96v14.69h-4.83V98.96h4.83v14.59h18.96V98.96z"/>
	</g>
</g>
</svg>
